<?xml version="1.0" encoding="UTF-8"?>
<svg xmlns="http://www.w3.org/2000/svg" viewBox="0 0 484.49 376.11">
  <g isolation="isolate">
    <g id="Layer_1" data-name="Layer 1">
      <g>
        <g>
          <path d="M356.91,253.34c-38.28,0-48.66-64.27-61.34-84.19l6.81-3.26c11.77,18.51,30.48,76.18,53.91,74.93,23.66-1.27,21.33-38.11-3.66-52.39l9.55-16.71c43.16,24.67,39.48,81.61-5.27,81.61Z" fill="#544345"/>
          <g>
            <path d="M372.39,226.04c6.33-11.78.43-32.79-16.54-43.23l-3.22,5.63c15.03,8.59,21.85,25.34,19.76,37.61Z" fill="#473437"/>
            <path d="M359.01,247.02c-35.91,0-47.27-56.55-59-80l-4.44,2.12c12.68,19.92,23.06,84.19,61.34,84.19,19.65,0,31.38-10.99,34.7-25.39-4.98,11.18-15.94,19.08-32.59,19.08Z" fill="#473437"/>
          </g>
        </g>
        <g>
          <path d="M228.3,350.47s-56.32-23-71.56-38.64c-15.24-30.67-49.71-203.85-44.1-275.21,0,0,34.17-30.54,109.84-36.08,65.74-4.81,94.61,24.05,94.61,24.05,0,0,12.83,201.45-17.64,287.24-30.47,23.05-71.16,38.64-71.16,38.64Z" fill="#f4e9dc"/>
          <path d="M317.1,24.59s-6.69-6.67-20.92-13.06c26.34,49.37-3.35,217.09-30.79,299.53-18.43,14.83-25.73,30.34-40.8,37.85,2.34.99,3.7,1.55,3.7,1.55,0,0,40.69-15.58,71.16-38.64,30.47-85.79,17.64-287.24,17.64-287.24Z" fill="#f9f1e8"/>
          <path d="M201.46,299.64c-14.89-11.72-60.33-267.59-46.74-285.32-28.64,10.32-42.07,22.31-42.07,22.31-5.61,71.36,28.86,244.54,44.1,275.21,15.23,15.63,71.56,38.64,71.56,38.64,0,0,52.22-18.49,71.16-38.64,1.8-2.41,2.47-7.08,3.4-10.65-7.6,4.87-91.98,5.87-101.4-1.55Z" fill="#edd9c3"/>
          <path d="M151.21,15.62c-11.89,22.44,30.43,278.22,44.59,289.37,8.66,6.82,88.14,3.09,106.39-1,.18-.74.39-1.71.67-2.8-7.6,4.87-91.98,5.87-101.4-1.55-14.89-11.72-60.33-267.59-46.74-285.32-1.05.38-2.91,1.07-3.5,1.3Z" fill="#e5c9ae"/>
          <path d="M191.24,321.49c-36.88-32.87-80.59-210.3-74.98-281.66,0,0,6.13-8.39,18.56-17.05-14.98,7.46-22.16,13.84-22.16,13.84-5.61,71.36,28.86,244.54,44.1,275.21,1.07,1.1,2.37,2.24,3.81,3.4-.07-.07,19.85,8.66,30.67,6.25Z" fill="#f4e3d3"/>
          <path d="M240.59,349.85c-3.94-.96-17.3-19.18-17.3-19.18l8.52-11.33c7.52-11.12,20.16-8.24,24.15,1.5,2.6,6.35-8.73,30.62-15.37,29Z" fill="#c6a98d"/>
          <path d="M255.81,320.52c-4.14-9.47-16.56-12.17-23.99-1.18l-8.52,11.33s1.61,2.19,3.86,5.08c8.07-7.1,18.79-12.76,28.65-15.22Z" fill="#af8461"/>
          <path d="M245.95,348.98c4.2-5.88,9.61-29.64,9.61-29.64l43.9-7.52s-45.46,38.42-53.51,37.15Z" fill="#edd9c3"/>
          <path d="M249.89,349.41c0-15.67-8.77-25.46-19.58-25.46s-19.58,9.79-19.58,25.46,8.77,25.46,19.58,25.46,19.58-9.79,19.58-25.46Z" fill="#594547"/>
          <path d="M238.69,326.17c-2.54-1.43-5.38-2.21-8.39-2.21-10.81,0-19.58,9.79-19.58,25.46s8.77,25.46,19.58,25.46c4.96,0,9.48-2.09,12.94-5.83-11.52-.85-16.93-35.42-4.55-42.87Z" fill="#443235"/>
          <path d="M230.53,348.11c0-9.66-3.73-15.7-8.32-15.7s-8.32,6.04-8.32,15.7,3.73,15.7,8.32,15.7,8.32-6.04,8.32-15.7Z" fill="#d6c2b4"/>
          <path d="M224.91,348.05c0-2.6-1.35-4.71-3.01-4.71s-3.01,2.11-3.01,4.71,1.35,4.71,3.01,4.71,3.01-2.11,3.01-4.71Z" fill="#594547"/>
          <path d="M189.98,157.85c9,8.91,100.69,9.02,112.51-1.63,6.86-6.18,12.94-107.58,3.17-127.54-5.14-10.49-117.39-15.69-133.25,2.05-8.29,9.27,4.71,114.39,17.57,127.12Z" fill="#7a646f"/>
          <path d="M192.88,154.7c8.64,8.54,96.61,8.67,107.96-1.54,6.59-5.93,12.49-103.29,3.11-122.48-4.93-10.09-112.82-15.07-128.05,1.99-7.95,8.91,4.63,109.83,16.98,122.03Z" fill="#42323a"/>
          <path d="M154.79,190.27c-2.55-17.63-9.53-28.75-15.6-27.89-6.07.86-8.93,13.39-6.38,31.02,2.55,17.63,9.54,31.22,15.61,30.36,6.07-.86,8.92-15.86,6.37-33.49Z" fill="#d3bca9"/>
          <path d="M134.15,200.58c3.16-6.21,7.98-10.18,13.39-10.18,2.74,0,5.33,1.05,7.63,2.86-.11-.99-.24-1.99-.38-3-2.55-17.63-9.53-28.75-15.6-27.89-6.07.86-8.93,13.39-6.38,31.02.36,2.49.82,4.89,1.34,7.18Z" fill="#c6a98d"/>
          <path d="M153.33,190.33c-1.98-13.67-6.28-22.46-9.71-21.97-3.43.48-4.68,10.05-2.7,23.73,1.98,13.67,6.36,24.36,9.79,23.88,3.43-.48,4.6-11.96,2.62-25.63Z" fill="#3f3137"/>
          <path d="M220.69,350.02c4.45.74,11.12-30.67,11.12-30.67,0,0-51.8-.77-74.65-7.1,8.51,10.11,46.24,34.92,63.53,37.77Z" fill="#edd9c3"/>
          <g>
            <path d="M271.01,22.84c-34.54-3.09-85.05-1.44-95.11,9.83-7.59,8.5,3.53,100.77,15.3,119.77,32.04-48.15,55.44-83.49,79.81-129.6Z" fill="#3a2c32"/>
            <path d="M228.05,160.67c28.85,1.21,65.72-1.14,72.8-7.5,6.1-5.48,11.59-89.2,4.95-116.89-24.22,46.86-45.6,83.04-77.75,124.4Z" fill="#3a2c32"/>
          </g>
          <path d="M303.95,30.68c-4.93-10.09-112.82-15.07-128.05,1.99-.06.06-.11.18-.16.26,19.28-15.55,121.9-10.57,126.71-.74,9.07,18.56,3.86,110.24-2.46,121.6.3-.2.62-.41.85-.62,6.59-5.93,12.49-103.29,3.11-122.48Z" fill="#2b1f25"/>
          <path d="M299.88,265.36l-27.66,7.62-61.74,32.07s-10.02,4.41-17.24-17.64c-7.22-22.05-14.43-59.33-14.43-59.33l31.67-8.82,101.42,13.23-12.03,32.87Z" fill="#e5c9ae"/>
        </g>
        <polygon points="21.52 292.57 19.3 290.29 73.58 288.59 97.44 290.65 86.21 293.83 32.49 294.23 21.52 292.57" fill="#7d65b7"/>
        <polygon points="22.41 312.27 21.51 309.86 85.25 312.27 86.76 316.48 22.41 312.27" fill="#7f4b44"/>
        <polygon points="337.96 340.83 389.28 340.13 395.12 350.54 337.63 351.15 337.96 340.83" fill="#e5c3a3"/>
        <path d="M325.23,156.59c1.6-5.05,9.5-1.38,16.35,2.79,6.52,3.96,14.13,10.66,13.61,18.79l-3.16-.84c-.22-3.6-12.05-8.37-15.55-9.76-5.48-2.18-12.85-5.9-11.25-10.97Z" fill="#f4e9dc"/>
        <path d="M367.3,174.95l-8.51-11.6c-8.92,5.02-12.87,11.11-15.19,21.82l10.86,4.26c7.32-3.08,11.15-4.62,12.84-14.48Z" fill="#f4e9dc"/>
        <path d="M316.64,176.64c-3.23,4.44,4.26,9.5,11.56,13.32,6.95,3.63,16.54-.99,22.89-6.24l-2.49-2.4c-3.07,1.91-13.49,1.54-16.62-.84-4.89-3.73-12.11-8.29-15.34-3.85Z" fill="#f4e9dc"/>
        <path d="M339.03,144.44c1.84-4.97,9.54-.9,16.19,3.59,6.32,4.29,7.52,14.9,6.6,22.99l-3.12-1.01c-.04-3.6-5.55-12.5-8.98-14.06-5.37-2.46-12.55-6.53-10.69-11.51Z" fill="#f4e9dc"/>
        <path d="M229.52,151.31l-4.41,23.25,57.53,2.2c-21.25-23.45-53.12-25.46-53.12-25.46Z" fill="#e5c9ae"/>
        <path d="M345.38,165.34s-12.83-5.41-15.23-5.41-30.87,2.41-48.11,15.84c0,0-34.58-10.42-64.94-6.82-5.38.64-12.03,7.62-12.03,7.62l73.56,35.28,66.75-46.5Z" fill="#fff2d9"/>
        <path d="M287.45,181.1c0-1.73-2.2-3.13-4.91-3.13s-4.91,1.4-4.91,3.13,2.2,3.13,4.91,3.13,4.91-1.4,4.91-3.13Z" fill="#9e4736"/>
        <polygon points="200.05 171.36 200.96 169.55 283.04 181.28 352.81 162.18 354.8 163.74 267 253.44 200.05 171.36" fill="#c46c51"/>
        <polygon points="191.64 241.51 200.05 171.36 283.04 183.38 354.8 163.74 320.32 232.69 267 255.54 191.64 241.51" fill="#af5641"/>
        <polygon points="191.64 241.51 200.05 171.36 283.04 183.38 267 255.54 191.64 241.51" fill="#9e4736"/>
        <g mix-blend-mode="overlay" opacity=".4">
          <path d="M268.55,249.67l-70.81-11.86,8.06-60.4,76.12,9.92,69.85-20.75-33.44,63.89-49.78,19.19ZM200.44,235.82l67.86,11.36,48.32-18.63,30.39-58.05-64.88,19.28-.25-.03-74-9.65-7.43,55.72Z" fill="#fff4e3"/>
        </g>
        <g>
          <path d="M89.81,222.87c5.42-26.22,34.27-49.04,53.83-54.65,3.65,2.45,4.77,4.37,2.56,8.98-14.15,4.06-41.88,27.06-45.56,44.87-6.54,31.65,74.92,47.46,145.95,17.54l6.13,14.69c-86.3,36.35-173.69,20.76-162.9-31.42Z" fill="#544345"/>
          <g>
            <path d="M144.6,169.58c-14.15,4.06-41.88,27.06-45.56,44.87-.77,3.74-.28,7.25,1.25,10.51.04-.95.15-1.91.35-2.89,3.68-17.81,31.41-40.81,45.56-44.87,1.95-4.07,1.3-6.05-1.38-8.14-.08.18-.13.33-.22.52Z" fill="#473437"/>
            <path d="M249.77,247.23c-74.05,30.73-148.52,23.27-160.72-12.66,3.81,42.62,84.2,53.2,163.66,19.73l-2.95-7.06Z" fill="#473437"/>
          </g>
        </g>
        <rect x="226.32" y="44.87" width="5.61" height="4.41" fill="#b8faff"/>
        <rect x="237.54" y="44.87" width="5.61" height="4.41" fill="#b8faff"/>
        <rect x="248.77" y="44.87" width="5.61" height="4.41" fill="#b8faff"/>
        <rect x="259.99" y="44.87" width="5.61" height="4.41" fill="#b8faff"/>
        <path d="M283.49,229.06c3.51,3.78-3.39,8.7-10.22,12.51-6.49,3.62-15.83,6.84-22.46,2.5l2.23-2.27c3.16,1.54,12.89-6.18,15.75-8.48,4.48-3.6,11.17-8.05,14.7-4.26Z" fill="#edd9c3"/>
        <path d="M249.33,256.29l12.31-2.04-11.18-23.36-8.83,7.15c-.91,7.68.16,12.08,7.71,18.25Z" fill="#edd9c3"/>
        <path d="M270.63,212.14c-2.21-4.86-10.1-.96-16.84,3.39-6.42,4.14-7.12,14.49-5.72,22.39l3.23-.96c-.15-3.52,5.18-12.16,8.7-13.67,5.52-2.35,12.85-6.28,10.63-11.15Z" fill="#edd9c3"/>
        <path d="M287.15,246.58c3.32,3.95-3.82,8.52-10.83,11.99-6.67,3.29-16.23-.79-22.64-5.46l2.35-2.16c3.07,1.7,13.26,1.3,16.23-.85,4.66-3.37,11.57-7.49,14.89-3.53Z" fill="#edd9c3"/>
        <polygon points="97.45 350.4 5.65 344.67 109.88 348.3 97.45 350.4" fill="#e54242"/>
      </g>
    </g>
    <g id="Book_8" data-name="Book 8">
      <g id="Book_8-2" data-name="Book 8">
        <path d="M96.34,266.99l-27.54-1.83-.42,19.48,26.26,3.72c-2.71-8.78-2.16-13.56,1.7-21.38Z" fill="#f4c7a2"/>
        <path d="M99.13,269.02l1.07-2.8-28.13-5.25-53.59,8.07s-8.22,13.65,3.03,23.53l37.06,6.74,38.86-8.66.47-2.8-22.01-2.72s-5.31-10.92-2.97-18.81l26.21,2.71Z" fill="#7d65b7"/>
        <path d="M72.47,288.96s-6.88-10.7-2.18-27.73l-51.81,7.81s-8.22,13.65,3.03,23.53l37.06,6.74,37.44-8.35-23.55-2Z" fill="#9d85cc"/>
        <path d="M55.14,275.18c0,2.22,1.41,4.01,3.16,4.01s3.16-1.8,3.16-4.01-1.41-4.01-3.16-4.01-3.16,1.8-3.16,4.01Z" fill="#eac1ea"/>
        <polygon points="48.92 272.78 21.66 276.19 21.66 280 48.92 278.19 48.92 272.78" fill="#eac1ea"/>
      </g>
    </g>
    <g id="Book_1" data-name="Book 1">
      <g id="Book_1-2" data-name="Book 1">
        <path d="M464.81,258.21l-57,6.39,17.19,26.63,47.82.89c-6.8-12.19-8.76-20.58-8.02-33.91Z" fill="#e5c3a3"/>
        <path d="M378.45,296.94s-16.15-12.93-3.84-29.99l46.74-10.31,51.29.4.28,3.19s-48.67,1.71-49.61,4.12c-.94,2.41.85,19.89,5.56,21.25,4.71,1.36,46.89,4.14,46.89,4.14l.11,4.66-97.42,2.54Z" fill="#e54141"/>
        <path d="M420.21,256.9l-45.6,10.06c-12.3,17.06,3.84,29.99,3.84,29.99l49.1-1.28c-3.74-1.59-12.61-24.59-7.34-38.77Z" fill="#f55"/>
        <path d="M384.27,270.17l-7.96,2.27c-1.64,6.8-1.09,10.62,2.15,17.2l8.05-1.01c-2.68-6.45-3.41-11.83-2.25-18.47Z" fill="#ffa9a9"/>
      </g>
    </g>
    <g id="Book_9" data-name="Book 9">
      <g id="Book_9-2" data-name="Book 9">
        <path d="M110.21,296.19l-24.92-2.87-1.27,18.21,23.75,1.41c-2.04-6.55-1.66-10.74,2.44-16.76Z" fill="#f4c7a2"/>
        <path d="M22.16,311.75c-2.43-5.56-3.49-14.51,2.21-19.99l65.41-1.9,24.41,5.42-.74,2.84-22.61-2.94s-4.36,12.62-1.44,14.47c2.92,1.85,20.65,2.38,20.65,2.38l-1.42,4.24-86.46-4.51Z" fill="#915e54"/>
        <path d="M113.45,298.12l.74-2.84-24.41-5.42c-8.72,2.93-6.33,20.3-5.88,24.92l24.73,1.48,1.42-4.24s-17.73-.52-20.65-2.38c-2.92-1.85,1.44-14.47,1.44-14.47l22.61,2.94Z" fill="#7f4b44"/>
        <polygon points="70.07 296.18 26.77 297.53 26.17 301.74 68.87 304.15 70.07 296.18" fill="#bf8b84"/>
      </g>
    </g>
    <g id="Book_6" data-name="Book 6">
      <g id="Book_6-2" data-name="Book 6">
        <polygon points="19.74 311.94 55.41 317.45 45.71 344 16.02 345.55 19.74 311.94" fill="#fff2d9"/>
        <polygon points="19.74 311.94 18.76 320.76 51.13 325.22 42.89 344.15 45.71 344 55.41 317.45 19.74 311.94" fill="#f4c7a2"/>
        <path d="M110.95,350.31s13.63-17.02,1.25-33.85l-95.99-5.51-.28,3.14s27.87,1.69,28.81,4.07c.95,2.38-.3,22.99-5.04,24.33-4.74,1.34-26.64.71-26.64.71l-.12,4.59,97.99,2.51Z" fill="#ffce61"/>
        <path d="M112.2,316.46l-62.89-3.61c.82,5.5,1.05,11.5.57,17.77-.5,6.49-1.72,12.58-3.46,18.04l64.52,1.65s13.63-17.02,1.25-33.85Z" fill="#ffb243"/>
        <path d="M54.45,342.94h9.42c3.49-8.66,3.82-14.97,1.59-24.99h-9.42c.93,9.76,1.02,16.43-1.59,24.99Z" fill="#ffc885"/>
        <path d="M71.34,329.99c0,2.22,1.89,4.01,4.21,4.01s4.21-1.8,4.21-4.01-1.89-4.01-4.21-4.01-4.21,1.8-4.21,4.01Z" fill="#ffc885"/>
      </g>
    </g>
    <g id="Book_5" data-name="Book 5">
      <g id="Book_5-2" data-name="Book 5">
        <polygon points="138.94 351.26 84.22 351.26 84.22 371.81 140.59 373.96 138.94 351.26" fill="#f4c7a2"/>
        <path d="M111.08,371.43c-13.94-.85-12.11-19.22-7.12-19.22l40.69.95v-3.73l-138.27-4.87c-7.25,0-12.56,31.54,8.68,31.54h130.49v-2.87l-34.47-1.81Z" fill="#f95858"/>
        <path d="M145.55,373.24l-34.47-1.81c-13.94-.85-12.11-19.22-7.12-19.22l40.69.95v-3.73l-46-1.62c-7.77,0-3.86,28.29,4.38,28.29h42.53v-2.87Z" fill="#e54242"/>
        <path d="M23.09,349.44h-9.42c-2.66,8.08-2.39,13.96.8,23.32h9.42c-1.86-9.1-2.6-15.32-.8-23.32Z" fill="#ffc3b0"/>
      </g>
    </g>
    <g id="Book_3" data-name="Book 3">
      <g id="Book_3-2" data-name="Book 3">
        <path d="M479.51,316.63l-35.54-1.72-.54,18.32,33.88,3.5c-2.88-7.85-1.69-12.15,2.2-20.1Z" fill="#e5c3a3"/>
        <path d="M483.11,318.53l1.38-2.63-36.29-4.93-69.14,7.59s-10.61,12.83,3.9,22.13l47.82,6.33,50.14-8.14.61-2.63-28.4-2.57s-6.84-10.26-3.84-17.69l33.82,2.54Z" fill="#927ace"/>
        <path d="M481.53,336.24l-28.4-2.57s-6.84-10.26-3.84-17.69l33.82,2.54,1.38-2.63-36.29-4.93-4.23.46c-.48,2.26-.77,4.61-.77,7.05,0,10.59,4.84,19.79,11.98,24.57l25.75-4.18.61-2.63Z" fill="#7f67ba"/>
        <path d="M429.17,319.18l-45.95,4.3c-.67,2.52-1.06,4.17,0,7.27l45.95-1.21c-1.32-3.73-1.61-6.2,0-10.36Z" fill="#c4b8e8"/>
      </g>
    </g>
    <g id="Book_2" data-name="Book 2">
      <g id="Book_2-2" data-name="Book 2">
        <polygon points="383.78 297.37 407.21 294.56 408.25 313.66 385.92 314.96 383.78 297.37" fill="#fff2d9"/>
        <polygon points="407.66 302.89 407.21 294.56 383.78 297.37 384.47 303.06 407.66 302.89" fill="#ddb08c"/>
        <path d="M466.34,314.37c2.33-5.82,3.4-15.19-1.9-20.98l-61.42-2.49-22.98,5.49.68,2.98,21.26-2.91s3.99,13.27,1.23,15.19c-2.75,1.92-19.41,2.33-19.41,2.33l1.29,4.46,81.25-4.07Z" fill="#ffb24d"/>
        <path d="M464.44,293.39l-61.42-2.49c3.5.14,7.2,16.86,6.1,26.34l57.23-2.87c2.33-5.82,3.4-15.19-1.9-20.98Z" fill="#fc933d"/>
        <path d="M420.01,298.86c.55,2.27.93,4.47,1.17,6.66h35.82c-.29-2.26-.71-4.43-1.28-6.66h-35.7Z" fill="#ffc166"/>
      </g>
    </g>
    <g id="Book_4" data-name="Book 4">
      <g id="Book_4-2" data-name="Book 4">
        <polygon points="338.16 341.05 393.77 341.05 393.77 370.04 336.47 373.08 338.16 341.05" fill="#fff2d9"/>
        <path d="M364.72,369.26c3.46-.29,6.54-3.02,8.07-7.14,3.65-9.87,4.71-19.72.92-19.72l-41.36,1.35v-5.26l51.71-2.06,90.6,3.01c7.38,0,12.72,36.68-5.41,36.68h-137.82v-4.04l33.28-2.8Z" fill="#ffce61"/>
        <path d="M474.66,339.43l-90.6-3.01-.42.02c.25,2.29.42,4.61.42,6.99,0,12.5-3.55,23.91-9.37,32.68h94.56c18.13,0,12.78-36.68,5.41-36.68Z" fill="#ffb24d"/>
        <path d="M406.72,342.73h-9.62c.8,10.8-1.4,18.69-7.27,27.66h10.07c5.91-10.06,7.04-16.59,6.81-27.66Z" fill="#fc933d"/>
        <path d="M415.79,355.96c-.52,2.25-1.24,4.44-2.18,6.61h53.33c.9-2.24,1.54-4.4,2-6.61h-53.15Z" fill="#fc933d"/>
      </g>
    </g>
    <g id="Right_Eye" data-name="Right Eye">
      <g id="right_eye" data-name="right eye">
        <rect id="right_eye-2" data-name="right eye" x="267.9" y="107.81" width="16.54" height="28.86" fill="#b8faff" mix-blend-mode="overlay"/>
        <rect id="right_eye-3" data-name="right eye" x="271.26" y="111.06" width="9.82" height="22.36" fill="#b8faff"/>
        <rect id="right_eye-4" data-name="right eye" x="269.29" y="109.71" width="13.43" height="25.07" fill="#b8faff" mix-blend-mode="overlay"/>
      </g>
    </g>
    <g id="Left_Eye" data-name="Left Eye">
      <g id="left_eye" data-name="left eye">
        <rect id="left_eye-2" data-name="left eye" x="212.08" y="107.81" width="16.54" height="28.86" fill="#b8faff" mix-blend-mode="overlay"/>
        <rect id="left_eye-3" data-name="left eye" x="215.44" y="111.06" width="9.82" height="22.36" fill="#b8faff"/>
        <rect id="left_eye-4" data-name="left eye" x="213.63" y="109.71" width="13.43" height="25.07" fill="#b8faff" mix-blend-mode="overlay"/>
      </g>
    </g>
  </g>
</svg>