<?xml version="1.0" encoding="UTF-8"?>
<svg id="Layer_1" data-name="Layer 1" xmlns="http://www.w3.org/2000/svg" viewBox="0 0 46.26 35.87">
  <g>
    <ellipse cx="25.2" cy="16.65" rx="3.38" ry="1.32" fill="#3a3631" opacity=".6"/>
    <ellipse cx="17.17" cy="18.4" rx="4.38" ry="1.84" fill="#3a3631" opacity=".6"/>
    <ellipse cx="8.6" cy="25.12" rx="4.98" ry="2.1" fill="#3a3631" opacity=".6"/>
    <ellipse cx="36.14" cy="28.04" rx="4.61" ry="1.94" fill="#3a3631" opacity=".6"/>
    <path d="M37.17,31.84c-1.81,0-3.29.6-3.38,1.35-.47-.11-1.01-.17-1.59-.17-1.87,0-3.39.64-3.39,1.42s1.52,1.42,3.39,1.42,3.29-.6,3.38-1.35c.47.11,1.01.17,1.59.17,1.87,0,3.39-.64,3.39-1.42s-1.52-1.42-3.39-1.42Z" fill="#3a3631" opacity=".6"/>
    <ellipse cx="16.09" cy="29.49" rx="3.64" ry="1.53" fill="#3a3631" opacity=".6"/>
    <ellipse cx="3.55" cy="32.72" rx="2.83" ry="1.19" fill="#3a3631" opacity=".6"/>
    <ellipse cx="32.11" cy="17.58" rx="3.59" ry="1.51" fill="#3a3631" opacity=".6"/>
  </g>
  <g>
    <g>
      <path d="M19.09,27.89c-.4.34-.94.57-1.51.73-.96.28-1.88.59-3.15.3-.8-.19-.97-.82-.98-1.25-.08.19-.15.4-.18.61-.11.72.47,1.22,1.38,1.8.91.59,2.81-.45,3.42-.66.61-.21,1.13-.83,1.07-1.28-.01-.08-.03-.16-.05-.25Z" fill="#3a3631"/>
      <path d="M13.92,26.81s-.28.38-.47.85c.01.44.17,1.07.98,1.25,1.28.3,2.19-.02,3.15-.3.57-.17,1.11-.39,1.51-.73-.09-.39-.26-.77-.26-.77l-4.9-.31Z" fill="#3a3631"/>
      <path d="M17.33,25.91c-.77-.2-1.91-.13-2.68.21-.37.16-.77.57-.9.96-.13.38.31,1.01.94,1.28,1.22.52,1.99-.09,3.02-.27.61-.11,1.32-.39,1.11-.96-.14-.39-.58-.98-1.49-1.21Z" fill="#3a3631"/>
      <path d="M16.75,28.01s.65,0,1.04-.32l.4-.31s-.8.21-1.03.36c-.22.16-.41.27-.41.27Z" fill="#3a3631"/>
    </g>
    <path d="M17.28,30.26s-.45.27-.54.47c-.26.59.67.57.99.53.38-.05,1.1-.29.86-.82-.25-.55-.92-.44-1.31-.18Z" fill="#3a3631"/>
    <path d="M17.78,30.3c-.25-.1-.62.13-.77.34-.18.25,0,.43.24.4.18-.02.63-.11.81-.42.09-.15-.12-.31-.28-.33Z" fill="#3a3631"/>
    <path d="M13.58,29.51c-.09-.04-.65-.01-.5.32.05.12.24.17.35.21.08.04.25.15.33.05.13-.18.02-.49-.17-.58Z" fill="#3a3631"/>
    <path d="M13.61,30.67c-.12.25.37.25.53.2.21-.06.36-.3.2-.49-.14-.17-.53-.13-.73.29Z" fill="#3a3631"/>
    <path d="M13.46,32.23c-.16.19,0,.43.2.49.16.05.65.05.53-.2-.2-.41-.59-.45-.73-.29Z" fill="#3a3631"/>
    <g>
      <g>
        <path d="M16.03,25.99c.1.23-.09.54-.53.6-.4.06-.59.1-.89.07-.08.1-.16.19-.16.19,0,0,.29.02.56,0,.27-.02.4-.04.78-.13.24-.06.69-.23.69-.23l-.31-.52s-.05,0-.13.02Z" fill="#3a3631"/>
        <path d="M15.37,26.12c-.3.07-.51.22-.61.35-.04.05-.1.12-.16.19.3.04.49,0,.89-.07.45-.06.63-.37.53-.6-.17.03-.46.08-.66.13Z" fill="#3a3631"/>
      </g>
      <g>
        <path d="M16.94,25.58c-.39.09-1,.28-1.19.51-.07.09-.08.18-.04.27.16.02.45.05.75-.03.45-.11.91-.24.98-.42.05-.12.03-.26-.01-.37-.14-.07-.29,0-.5.04Z" fill="#3a3631"/>
        <path d="M17.44,25.54c.04.12.06.26.01.37-.07.18-.53.31-.98.42-.3.07-.59.05-.75.03.02.04.06.08.11.11.23.13.63.02.87-.03.28-.06,1.23-.31.87-.79-.04-.05-.08-.09-.12-.11Z" fill="#3a3631"/>
      </g>
      <path d="M16.18,25.95c-.12.05-.27.18-.2.18.11,0,.25-.06.42-.12.17-.06.41-.07.46-.2.05-.13-.42.01-.68.13Z" fill="#3a3631"/>
      <path d="M16.31,26.59s.01,0,.02-.02c0-.04-.02-.09-.06-.13,0,.04,0,.07,0,.11.01.02.02.03.04.04Z" fill="#3a3631"/>
      <path d="M15.91,25.88c-.06,0-.05.02-.05.03.02.07.07.13.09.2,0,.01,0,.03,0,.04-.02-.01-.05-.03-.07-.04-.06-.07-.19-.19-.24-.08,0,0,0,0,0,0,.12-.01.23.17.27.25.06.12.07.23.07.36,0,.04.07.03.08-.02.01-.1,0-.17-.03-.27,0,0,0-.05.01-.1,0,0,.13.15.17.19.03.03.05.06.06.08,0-.04,0-.08,0-.11-.05-.06-.12-.11-.15-.15-.02-.03-.08-.07-.1-.1-.01-.1-.05-.22-.05-.22,0,0,.16.1.23.21.05.09.07.16.07.25.04.04.07.09.06.13,0,.02,0,.03-.02.02-.02-.01-.03-.03-.04-.04,0,0,0,.01,0,.02,0,.05.06.05.08,0,.1-.27-.27-.66-.44-.68Z" fill="#3a3631"/>
    </g>
    <g>
      <path d="M14.38,31.57c-.02.06-.01.13.03.21.08.03.17.05.25.06.1.01.2.02.3.03.2.01.4.02.61.01.23,0,.56-.09.82-.03,0,0,0,0,0-.01-.02-.34-1.51-.49-2.02-.27Z" fill="#3a3631"/>
      <path d="M15.58,31.88c-.2,0-.41,0-.61-.01-.1,0-.2-.02-.3-.03-.09,0-.17-.02-.25-.06-.04-.08-.05-.15-.03-.21-.07.03-.12.06-.14.1-.09.13-.04.24.09.31.28.14.67.19.97.24.28.04,1.11.12,1.09-.37-.26-.06-.59.02-.82.03Z" fill="#3a3631"/>
    </g>
    <path d="M14.41,33.07c-.03.24.36.2.5.16.17-.06.33-.27.21-.44-.1-.14-.65-.17-.71.29Z" fill="#3a3631"/>
    <path d="M29.49,32.03c-.03.24.36.2.5.16.17-.06.33-.27.21-.44-.1-.14-.65-.17-.71.29Z" fill="#3a3631"/>
    <path d="M40.62,31.37c-.03.24.36.2.5.16.17-.06.33-.27.21-.44-.1-.14-.65-.17-.71.29Z" fill="#3a3631"/>
  </g>
  <g>
    <path d="M37.27,13.29s-.56-.55-1.1-.29c-.54.27-1.05.5-1.22.53-.23-.24-.58-.27-.77-.14-.36.24-.25.41-.25.41,0,0-.26-.1-.65-.03-.38.07-.65,1.02-.65,1.02,0,0,.51.29.98.29.69,0,1.25,0,1.51-.26.08.07.09.45.68.4.96-.08.66-.54.66-.54l1.47-.12-.66-1.27Z" fill="#3a3631"/>
    <g>
      <path d="M37.74,13.54c-.63.14-1.01.48-1.21.76.13-.02.26,0,.38.07.35.22.37.85.9.66.47-.17.86-.62,1.33-.6.04-.13.03-.28-.04-.44-.22-.51-.81-.57-1.36-.45Z" fill="#3a3631"/>
      <path d="M36.91,14.38c-.12-.08-.26-.09-.38-.07-.08.11-.13.2-.16.27-.32.82.84.92,1.36.82.45-.08,1.26-.44,1.41-.97-.47-.02-.86.43-1.33.6-.52.19-.55-.43-.9-.66Z" fill="#3a3631"/>
    </g>
    <path d="M36.33,13.25c-.21,0-.86.31-1.1.5-.24.19-.24.72.07.84s.44-.09,1.03-.53c.59-.44.72-.84,0-.81Z" fill="#3a3631"/>
    <path d="M34.37,13.54c-.21-.02-.23.44.06.54.3.1.53-.48-.06-.54Z" fill="#3a3631"/>
    <path d="M33.51,14.06c-.25-.03-.44.03-.57.34-.14.31.1.38.46.29.35-.09.5-.59.12-.63Z" fill="#3a3631"/>
    <path d="M36.33,13.39c-.24,0-.61.16-.84.43-.23.27-.33.44,0,.44.33,0,.39-.21.68-.38.29-.17.63-.5.17-.49Z" fill="#3a3631"/>
  </g>
  <g>
    <g>
      <path d="M27.18,22.81c-.48.34-1.41.98-1.41.98l.98.75,1.53-.84s.16-.34,0-.68c-.16-.35-.62-.54-1.1-.2Z" fill="#3a3631"/>
      <path d="M22.05,24.45c-.37.09-1,.18-1,.18l.11.11s.63-.08.89-.13c.26-.04.92-.13.92-.13l-.11-.19s-.44.06-.81.15Z" fill="#3a3631"/>
      <path d="M29.5,23.62c-.08-.05-.59-.03-1.17,0-.58.03-1.7.25-1.73.24l.22.19s.98-.12,1.21-.09c.23.04.87.3.91.34.03.04.52.04.52.04,0,0,.01-.04-.25-.16-.26-.12-.94-.32-.94-.32,0,0,.3-.06.57-.06.26,0,.68-.01.69-.03.01-.01.05-.1-.03-.16Z" fill="#3a3631"/>
      <g>
        <path d="M23.19,25.91c-.41.2-.83.45-1.3.45,0,0-.01-.01,0-.02.57-.13,1.03-.43,1.56-.66.08-.04.17-.06.25-.09-.16.04-.33.08-.49.14-.46.14-.9.32-1.38.33-.06,0-.06-.09,0-.09.58-.02,1.11-.28,1.66-.43.57-.15,1.15-.23,1.73-.33,1.03-.16,2.08-.4,3.12-.49-.02-.1-.06-.2-.09-.28-.7.03-1.39.1-2.09.24-.24.05-.69.23-.93.09-.08-.05-.07-.08-.13-.14-.13-.14-.25-.22-.38-.26-.37.03-.71.08-.98.14-1.31.29-2.36.73-2.36.73-.29.48-.08,1.13.38,1.36.72-.09,2.1-.76,2.44-.8,1.17-.14,2.58-.16,3.44-.24.46-.04.65-.24.7-.47-1,.27-2.06.38-3.08.45-.74.05-1.4.05-2.08.38ZM21.49,25.91s-.06-.05-.02-.06c.24-.1,2.87-1,2.84-1.1-.04-.16-2.51.72-2.73.8,0,0-.01-.01,0-.01.86-.5,1.89-.75,2.86-.89.03,0,.07.02.06.06-.05.11-.09.12-.21.17-.29.13-.6.24-.9.35-.63.24-1.26.48-1.9.69Z" fill="#3a3631"/>
        <path d="M25,25.34c-.34.06-.68.12-1.01.19.34-.06.69-.06,1.04-.08,1.14-.07,2.23-.24,3.33-.49,0-.05,0-.11-.01-.16-1.1.26-2.24.37-3.35.55Z" fill="#3a3631"/>
        <path d="M24.92,24.36c.07.03.15.06.22.11,0,0,0,0,0,0,.05.11.14.19.27.24.1.02.23-.03.33-.05.26-.05.52-.11.78-.15.54-.1,1.1-.18,1.65-.21,0,0,0-.01,0-.01,0,0-1.81-.04-3.25.07Z" fill="#3a3631"/>
        <path d="M23.99,25.53c.33-.07.67-.13,1.01-.19,1.11-.18,2.25-.29,3.35-.55,0-.02,0-.04-.01-.07-1.04.1-2.09.33-3.12.49-.58.09-1.16.18-1.73.33-.56.15-1.08.4-1.66.43-.06,0-.06.1,0,.09.49-.02.92-.19,1.38-.33.16-.05.32-.09.49-.14-.08.02-.17.05-.25.09-.53.22-.99.53-1.56.66,0,0,0,.02,0,.02.47,0,.89-.24,1.3-.45.68-.34,1.34-.33,2.08-.38,1.02-.07,2.08-.18,3.08-.45,0-.04.01-.08.02-.13-1.1.25-2.19.42-3.33.49-.35.02-.7.03-1.04.08Z" fill="#3a3631"/>
        <path d="M24.44,24.64c-.97.14-2.01.39-2.86.89,0,0,0,.02,0,.01.22-.08,2.7-.96,2.73-.8.02.1-2.6,1.01-2.84,1.1-.04.02-.02.08.02.06.64-.21,1.27-.45,1.9-.69.3-.12.61-.22.9-.35.11-.05.16-.06.21-.17.01-.04-.03-.06-.06-.06Z" fill="#3a3631"/>
        <path d="M26.53,24.51c-.26.05-.52.1-.78.15-.1.02-.23.07-.33.05-.14-.05-.23-.13-.27-.24,0,0,0,0,0,0-.07-.05-.14-.08-.22-.11-.07,0-.13.01-.19.02.13.04.24.12.38.26.06.06.05.1.13.14.24.14.69-.04.93-.09.7-.13,1.39-.21,2.09-.24-.03-.07-.06-.13-.07-.15-.56.02-1.11.11-1.65.21Z" fill="#3a3631"/>
        <path d="M21.47,25.23c-.37,0-.31.53-.3.68.02.35.43.86.72.62.27-.21.15-.79-.02-1.03-.09-.13-.23-.27-.4-.27Z" fill="#3a3631"/>
        <path d="M21.57,25.74c-.07-.02-.15,0-.16.09-.02.13.09.26.18.33.02.01.05-.01.04-.04-.04-.05-.12-.11-.15-.17-.07-.2.08-.2.16-.08.06.08.14.5-.06.39-.11-.06-.19-.2-.23-.31-.03-.09-.08-.41.08-.43.04,0,.16-.01.16-.01-.03-.07-.18-.13-.29,0-.07.08-.06.31-.04.4.03.13.1.27.21.36.06.05.17.14.25.09.07-.05.05-.28.04-.34-.02-.1-.09-.24-.19-.27Z" fill="#3a3631"/>
      </g>
      <path d="M23.52,26.02c-.3.47-.35.87-.39,1.19,0,0,.12.04.22,0,.02-.4.32-1.07.32-1.07l.09.59.13-.04s-.06-.69.03-.89c.09-.2.8-.68.8-.68l-.23-.21s-.68.64-.97,1.11Z" fill="#3a3631"/>
      <path d="M24.41,26.11c-.28.28-.61.48-.61.48,0,0,.3.5.65.36.35-.14,1.59-1.3,1.59-1.3l-.59-.32s-.76.5-1.04.78Z" fill="#3a3631"/>
      <path d="M25.77,25.43c-.74.11-1.18.92-1.84,1.22,0,0,0,0,0,0,.73-.19,1.13-.95,1.84-1.2.02,0,0-.03,0-.02Z" fill="#3a3631"/>
      <path d="M25.64,25.63c-.27.27-.52.54-.84.75-.21.13-.47.23-.61.44,0,.01,0,.03.02.02.52-.3,1.12-.68,1.44-1.2,0,0,0-.02-.01-.01Z" fill="#3a3631"/>
      <g>
        <path d="M23.53,23.82c-.27-.12-.55-.24-.84-.31-.25-.06-.49-.1-.73-.17-.03.06-.06.12-.09.19.5.05.97.16,1.44.36.19.08.65.25.57.53,0,.01-.02.03-.03.03-.31.06-.64-.18-.93-.25-.25-.06-.5-.08-.75-.13-.11-.02-.22-.05-.33-.08.02.06.04.11.08.17.22.11.52.22.85.33.55.06,1.11.08,1.66.15.47.06.91.34,1.33.54.69.34,1.29.77,1.81,1.3.02-.04.05-.09.06-.16.02-.06.03-.12.04-.17-.78-.55-1.6-1.02-2.45-1.48-.55-.3-1.11-.59-1.68-.85Z" fill="#3a3631"/>
        <path d="M23.52,24.08c-.13-.11-.38-.16-.53-.22-.37-.13-.75-.22-1.13-.28-.03.09-.04.19-.04.29.2.04.4.11.6.14.35.06.66.12.99.25.08.03.16.06.24.09.04-.14,0-.23-.13-.26Z" fill="#3a3631"/>
        <path d="M25.39,25.3c-.33-.18-.64-.19-.98-.18.03.02.06.03.09.05.52.29,1.47.92,2.15,1.33-.12-.16-.24-.31-.37-.45-.26-.28-.54-.56-.88-.74Z" fill="#3a3631"/>
        <path d="M27.27,25.33s0,0,0,0c-.66.02-1.35-.56-1.87-.89-.61-.39-1.29-.58-1.85-1.04-.9-.06-1.4-.31-1.4-.31,0,0-.08.08-.16.21.5.11.97.19,1.44.4.59.26,1.16.58,1.73.89.81.44,1.79.82,2.51,1.44.02-.19,0-.31-.08-.48-.08-.05-.2-.13-.34-.22Z" fill="#3a3631"/>
        <path d="M26.94,26.02c-.43-.27-.86-.54-1.31-.77-.23-.11-.45-.23-.68-.34-.33-.15-.63-.19-.99-.22-.27-.02-.55-.05-.82-.08.4.14.81.28,1.14.44.68-.11,1.23.14,1.76.6.35.3.68.66.96,1.05.05.03.09.05.13.07.07-.05.25-.05.38-.22-.17-.2-.36-.38-.58-.52Z" fill="#3a3631"/>
        <path d="M25.3,24.3c.62.36,1.2.85,1.92.99-.92-.59-2.8-1.79-3.61-1.89.54.36,1.12.57,1.69.9Z" fill="#3a3631"/>
        <path d="M23.44,23.69c-.48-.21-.95-.29-1.44-.4,0,.02-.02.03-.03.05.24.08.49.11.73.17.29.07.56.19.84.31.57.26,1.13.55,1.68.85.85.46,1.67.93,2.45,1.48,0-.05.02-.09.02-.13-.73-.62-1.7-1-2.51-1.44-.57-.31-1.14-.63-1.73-.89Z" fill="#3a3631"/>
        <path d="M27.22,25.29s.03.02.05.03c0,0,.01-.02,0-.02-.02,0-.03,0-.05-.01Z" fill="#3a3631"/>
        <path d="M25.3,24.3c-.56-.33-1.15-.54-1.69-.9-.02,0-.04,0-.05,0,0,0,0,0-.01,0,.56.46,1.24.65,1.85,1.04.52.33,1.21.91,1.87.89,0,0,0,0,0,0-.02-.01-.03-.02-.05-.03-.72-.14-1.31-.63-1.92-.99Z" fill="#3a3631"/>
        <path d="M23.31,23.89c-.46-.2-.94-.32-1.44-.36,0,.02-.01.04-.02.06.38.06.77.15,1.13.28.15.05.41.11.53.22.13.03.17.12.13.26-.08-.02-.16-.05-.24-.09-.33-.13-.64-.19-.99-.25-.2-.03-.4-.1-.6-.14,0,.04.01.07.02.11.11.03.22.06.33.08.25.05.5.07.75.13.3.07.62.31.93.25.01,0,.03-.02.03-.03.08-.28-.38-.45-.57-.53Z" fill="#3a3631"/>
        <path d="M24.42,24.64c-.55-.07-1.11-.09-1.66-.15.12.04.25.09.38.13.27.04.54.06.82.08.36.03.66.06.99.22.23.11.45.22.68.34.45.23.89.5,1.31.77.22.14.41.32.58.52.01-.02.03-.04.04-.06-.52-.53-1.12-.97-1.81-1.3-.42-.2-.86-.48-1.33-.54Z" fill="#3a3631"/>
        <path d="M26.04,25.65c-.53-.46-1.09-.71-1.76-.6.05.02.09.04.13.06.34-.01.66,0,.98.18.34.18.62.46.88.74.13.14.26.3.37.45.13.08.25.15.36.21-.29-.39-.62-.75-.96-1.05Z" fill="#3a3631"/>
      </g>
      <path d="M27.61,25.54c-.11-.03-.31.03-.43.19,0,0,0,0,0,0-.11.14-.19.32-.23.47-.08.32.09.7.47.53.33-.15.49-.6.41-.94-.03-.12-.14-.24-.23-.26Z" fill="#3a3631"/>
      <path d="M27.62,25.75c-.12-.06-.27.05-.34.14-.11.12-.18.3-.17.47,0,.1.04.27.16.29.12.02.22-.12.27-.21.06-.12.1-.3.04-.44-.03-.08-.09-.09-.17-.05-.12.08-.13.3-.13.43,0,.03.05.04.05,0,.01-.05.06-.48.18-.32.08.1-.04.42-.14.48-.3.16-.17-.4-.11-.5.05-.08.14-.18.23-.2.15-.03.17.1.21.2,0,0,0,0,.01,0,.03-.1.02-.23-.09-.27Z" fill="#3a3631"/>
      <path d="M23.7,26.7c-.09.17.28.33.39.33.12,0,.61,0,.28-.33-.15-.15-.55-.22-.67,0Z" fill="#3a3631"/>
      <g>
        <path d="M24.11,26.8s0,0,0,0c0,0,0,0,0,0Z" fill="#3a3631"/>
        <path d="M23.85,26.76c.04.13.22.23.35.19.15-.06.02-.17-.08-.18-.02,0-.06.02.04.07.11.06,0,.08-.05.07-.03,0-.05,0-.08-.02-.07-.04-.19-.16-.06-.2.11-.04.37.04.38.19,0,.05.03.05.03,0,.04-.3-.61-.36-.53-.12Z" fill="#3a3631"/>
      </g>
    </g>
    <g>
      <path d="M26.49,21.87c.08.71-.26,1.21-.45,1.45.26-.92-.23-1.92-.76-2.94-.53-1.02-.12-2.29-.12-2.29,0,0-1.09,1.43-1.5,2.62-.4,1.19-.18,2.26-.18,2.26,0,0-.14-.45-.34-.82-.26-.46-.98-.95-.98-.95,0,0,.47.98.52,1.99.07,1.41.37,1.52.76,1.74.4.22.83.13.83.13,0,0-.42-.21-.44-.5-.02-.35.29-.84.29-.84,0,0-.02.51.11.9.09.28.49.5.49.5,0,0-.07-.29.1-.5.17-.21.7-.27.7-.27l1.21.64s.82-1.01.78-1.91-.78-2.67-.78-2.67c0,0-.33.76-.25,1.46Z" fill="#3a3631"/>
      <path d="M26.55,23.4c-.18.38-.58.68-.58.68,0,0,0-.29-.19-1.06-.19-.82-.32-1.05-.66-1.71s-.5-1.78-.5-1.78c0,0-.61,1.17-.64,2.08-.03.91-.06,1.4-.1,1.59-.04.19-.21.59-.21.59,0,0-.12-.39-.38-.85-.25-.46-.54-.77-.54-.77,0,0,.33.92.33,1.5s.29.96.45,1.03c0-.38.22-.62.52-1.16.3-.53.39-1.08.39-1.08,0,0,.22.7.13,1.14-.08.45.03.97.03.97,0,0,.31-.27.45-.59.17-.38.21-.88.21-.88,0,0,.05.58.5,1.07.2.22.51.37.51.37,0,0,.34-.27.53-.77.19-.5,0-1.44,0-1.44,0,0-.15.81-.28,1.09Z" fill="#3a3631"/>
      <path d="M23.13,21.08s-.08-.6.05-.96c.19-.52.19-.85.19-.85,0,0-.48.53-.51.95-.03.42.27.86.27.86Z" fill="#3a3631"/>
      <path d="M25.65,19.52s.05.61.26,1.02c.21.41.26.72.26.72,0,0,.18-.5-.07-.92-.24-.41-.45-.82-.45-.82Z" fill="#3a3631"/>
    </g>
  </g>
  <g>
    <path d="M33.39,9.36l-1.64.09-1.64,2.66s.56.53,1.6-.13c.43-.27.55-.56.55-.56,0,0,.53.95,1.4,1.14.41-.19,0-1.79,0-1.79l-.27-1.41Z" fill="#3a3631"/>
    <g>
      <path d="M31.88,9.24l-1.31-.06s-.14,2.05-.15,2.42c0,.36-.08,1.44.03,2.21.02.16.19,1.65.19,1.65h.62c.07-.83.18-2.08.18-2.37,0-.44-.18-.69-.14-.97.02-.18.36-1.79.59-2.87Z" fill="#3a3631"/>
      <path d="M32.49,9.27l-.61-.03c-.23,1.08-.56,2.69-.59,2.87-.03.28.14.53.14.97,0,.29-.1,1.54-.18,2.37h.15s.32-1.43.29-2.15c-.03-.71-.27-.79-.15-1.15.07-.22.94-2.88.94-2.88Z" fill="#3a3631"/>
    </g>
    <g>
      <path d="M33.95,10.08s-.67-.28-1.17-.44c.12.74.33,1.92.41,2.19.12.41.04.63,0,1.12-.07.88.19.63.59,2.46.1.15.17.26.17.26h.79s-.42-2.44-.54-3.1-.29-2.43-.25-2.48Z" fill="#3a3631"/>
      <path d="M33.18,12.94c.04-.49.12-.71,0-1.12-.08-.27-.28-1.45-.41-2.19-.29-.1-.52-.17-.52-.17,0,0,.23,1.7.71,2.68.14.28-.17,1.24.21,2.19.14.34.41.79.6,1.07-.41-1.83-.66-1.59-.59-2.46Z" fill="#3a3631"/>
    </g>
    <path d="M33.16,1.02c-.21-.19-1.53-.1-1.53-.1,0,0-.34.27-.49.73-.11.32-.17.83-.15,1.32.02.43.12,1.48.21,1.69s2.46-.33,2.46-.33c0,0-.04-1.68-.13-2.22-.1-.62-.17-.91-.37-1.09Z" fill="#3a3631"/>
    <path d="M32.82,3.14c-.03-.2,0-.69,0-.69h-1.02s.03.49,0,.69c-.03.2-.6.51-.6.51,0,0,.31.47,1.06.49h0s.03,0,.05,0c.02,0,.03,0,.05,0h0c.75-.02,1.06-.49,1.06-.49,0,0-.58-.31-.6-.51Z" fill="#3a3631"/>
    <path d="M32.3.79c-.49,0-.88.49-.88,1.09s.39,1.09.88,1.09.88-.49.88-1.09-.39-1.09-.88-1.09Z" fill="#3a3631"/>
    <path d="M33.28,1.16c-.13-.22-.3-.47-.75-.37-.16-.1-.34-.21-.51-.17-.63.16-.93.93-.94,1.41.12.09.09.35.24.42.07-.08.26-.27.43-.46.34-.38.38-.48.52-.79.01.16.06.33.21.51.11.13.27.2.43.4.36.46.12.66.22.68.04.01.31-.71.26-1.22-.01-.15-.02-.29-.1-.42ZM32.02,1.49c-.1.23-.38.49-.56.67.08-.54.4-.76.72-.96-.05.07-.12.21-.15.29ZM32.42,1.49c-.09-.15-.1-.29-.06-.39.06.11.17.25.29.43.04.07.22.29.26.43-.09-.05-.28-.13-.49-.47Z" fill="#3a3631"/>
    <path d="M35.63,7.09c0-.26-.54-1.78-.69-1.98-.15-.2-.07-.92-.31-1.17-.18-.19-.55-.28-.78-.3-.16,0-.76-.19-.76-.19-.1.41-.55.51-.78.51-.24,0-.69-.1-.8-.51,0,0-.6.18-.76.19-.23.01-.46.04-.64.23-.23.25-.14.83-.29,1.04-.15.2-.4,1-.45,1.15-.05.15-.23.68-.03,1.04.2.36.55.33.78-.05.09-.16.46-1.51.46-1.51,0,0,.03.24.09.74.07.64.29,1.34.29,1.34h2.66s.22-.7.29-1.34c.06-.5.09-.74.09-.74,0,0,.19.83.71,1.81.08.93.1,1.14.3,1.84.04.13-.34.42-.3.75.01.11.16.18.3.2.09.21.26.36.57.26.37-.12.3-.54.21-1.03-.09-.48-.16-1.59-.18-2.27Z" fill="#3a3631"/>
    <path d="M33.94,7.61l-2.44.2.26,1.64s.22,1.17,1.19,2.18c.43.44,1.76,1.01,1.76,1.01,0,0-.35-1.95-.46-3.12-.12-1.17-.31-1.91-.31-1.91Z" fill="#3a3631"/>
    <path d="M30.6,5.48s.03.42.08.91c.05.49.3,1.23.3,1.23l.74.09s-.59-.59-.73-1.06c-.14-.47-.39-1.16-.39-1.16Z" fill="#3a3631"/>
    <path d="M32.91,7.7l.74-.09s.25-.74.3-1.23c.05-.49.08-.91.08-.91,0,0-.25.69-.39,1.16-.14.47-.73,1.06-.73,1.06Z" fill="#3a3631"/>
    <path d="M33.75,7.21c-.68.19-2.39.37-2.9-.05,0,0-.23.14-.23.38,0,.32.19.36.19.36,0,0,1.45.35,2.1.23.65-.12,1.06-.38,1.06-.38,0,0,.03-.36-.22-.54Z" fill="#3a3631"/>
    <path d="M30.34,9.52c-.04,1.1-.23,2.59-.23,2.59,0,0,.83-.08,1.09-.58.26-.5.24-.85.24-.85,0,0,.09.27.13.56.34-.24.6-.85.59-1.39-.02-.68.14-1.04.14-1.04,0,0,.11.31.3.54.05-.51.27-1.51.27-1.51l-1.89-.24s-.6.81-.63,1.91Z" fill="#3a3631"/>
    <g>
      <path d="M31.4,14.27c-.08-.15-.07-.22-.12-.34-.18.05-.25.17-.31.24,0-.08-.22-.31-.22-.31,0,0-.16.25-.19.39-.12-.13-.22-.3-.45-.26.12.32.24,1,.27,1.2h0s.17.67.02.85c-.15.18-.56.7-.56.7-.13.18-.19.32-.2.43.15.1.42.23.58.17.4-.15.65-.29.88-.53.24-.24.34-.29.25-.83-.08-.55-.03-1.2.09-1.4.05-.07.11-.11.17-.14.08-.27.22-.38.22-.38,0,0-.26-.04-.44.22Z" fill="#3a3631"/>
      <path d="M31.44,14.58c-.13.2-.18.86-.09,1.4.08.55-.02.6-.25.83-.24.24-.49.38-.88.53-.16.06-.43-.07-.58-.17-.02.14.06.24.17.32.18.13.4.09.59.06.19-.04.63-.38.87-.53.28-.19.37-.31.28-.77-.13-.65.01-1.47.05-1.69,0-.04.02-.07.03-.11-.06.02-.13.07-.17.14Z" fill="#3a3631"/>
    </g>
    <path d="M31.55,15.37s.03-.06.01-.08c-.04-.04-.48.1-1.05-.11-.03-.02-.11-.05-.14-.06-.03-.02-.06.03,0,.08.23.14.68.24,1.06.18-.26.18-.75.32-.99.24-.05-.02-.06.03-.02.07.15.14.28.21.48.29.21.09.36.08.62.04.06,0,.05-.07,0-.06-.11.02-.35.03-.56-.04-.18-.06-.32-.18-.36-.21.29-.03.64-.09.87-.27.03-.02.05-.04.08-.06Z" fill="#3a3631"/>
    <g>
      <path d="M35.28,16.81c-.37-.67-.5-.91-.54-1.15-.07-.4-.18-1.22-.18-1.9-.37.15-.53.5-.53.5l-.4-.5s-.22.4-.22.68c-.25-.15-.44-.16-.44-.16,0,0,.09.2.21.46.17.13.38.34.47.57.15.4.32,1.44.43,1.76.11.33.62.71.85.8.11.04.36.03.59,0,.04-.07.05-.18.02-.31-.04-.17-.11-.48-.27-.76Z" fill="#3a3631"/>
      <path d="M34.93,17.88c-.23-.09-.74-.47-.85-.8-.11-.33-.28-1.37-.43-1.76-.09-.23-.3-.44-.47-.57.18.39.41.92.48,1.1.11.3.16,1.18.29,1.41.13.23.64.75,1,.79.25.03.49,0,.58-.16-.23.03-.48.04-.59,0Z" fill="#3a3631"/>
    </g>
    <path d="M34.13,8.38c-.12-.03-1.1.06-1.6-.02.32-.08.64-.19.94-.32,0,0,0,0,0,0,.1-.02.37-.13.51-.23.09-.06.02-.11-.01-.1-.38.17-1.27.32-1.74.3-.25,0-.49-.03-.74-.06-.24-.03-.57-.11-.81-.14-.04,0-.01.06.02.08.04.02.15.04.2.05.3.2.68.33,1.05.42-.47.08-.97.13-1.45.14-.07,0-.09.1-.01.1.56-.01,1.18-.06,1.75-.17.07.01.15.03.22.04.55.09,1.11.1,1.66.03.05,0,.08-.09,0-.11ZM32.24,8.31c-.19-.04-.38-.09-.56-.15-.1-.03-.19-.07-.28-.11.29.04.6.06.88.06.29,0,.58,0,.88-.04-.3.08-.6.17-.91.23Z" fill="#3a3631"/>
    <path d="M33.1,3.41c0,.4-.27,1.06-.73,1.11h0s-.05,0-.07,0c-.02,0-.05,0-.07,0-.46-.06-.72-.72-.73-1.11,0-.05-.07-.05-.07,0-.01.47.33,1.23.87,1.22.54.01.89-.75.87-1.22,0-.05-.07-.05-.07,0Z" fill="#3a3631"/>
    <path d="M29.13,5.17c-.07-.35.27-.78.13-1.04-.17-.33-.27-.44-.66-.2-.4.24-.17.63-.13,1.15.04.51-.09,1.16.5,1.9.31.39.67.56.97.28.04-.04.1-.32.06-.67-.04-.35-.8-1.06-.87-1.41Z" fill="#3a3631"/>
    <path d="M33.35,10.03s-.05.37-.05.53.07.49.07.49c0,0-.31-.41-.38-.74-.07-.29-.13-.63-.13-.63,0,0-.04.66.01,1.02-.1-.11-.2-.34-.2-.34,0,0,.03.39.18.69.15.3.3.44.3.44,0,0-.06-.28-.07-.44-.01-.16-.03-.25-.03-.25,0,0,.16.48.37.7.21.21.5.39.5.39,0,0-.33-.48-.4-.84-.08-.35-.17-1.01-.17-1.01Z" fill="#3a3631"/>
    <path d="M34.76,15.81c-.2.04-.39.06-.59.05-.13,0-.25-.03-.37-.04.14-.06.27-.14.39-.23.13-.09.28-.19.38-.31.04-.02.09-.04.13-.06.05-.03,0-.09-.04-.07-.42.19-.81.22-1.26.12-.04,0-.06.05-.02.07.31.12.67.12.99.03-.08.05-.15.11-.22.16-.17.11-.35.19-.52.28-.04.02-.01.06.03.07.11.01.49.17,1.12,0,.04-.01.02-.07-.02-.06Z" fill="#3a3631"/>
    <path d="M30.52,4.85s.11.64.55.77c.44.13.9,0,.9,0,0,0-.59-.04-.9-.25-.32-.21-.55-.53-.55-.53Z" fill="#3a3631"/>
    <path d="M33.6,5.38c-.32.21-.9.25-.9.25,0,0,.46.13.9,0,.44-.13.55-.77.55-.77,0,0-.24.32-.55.53Z" fill="#3a3631"/>
    <path d="M29.14,2.21l-.24.05s.06,1.74.11,3.11c.02.55.05,1.89-.01,2.24-.07.35-.08,1.79-.12,2.25-.04.41-.01,6.08-.01,7.23,0,.36.34.2.34.13-.01-.66-.07-3.5-.07-3.77,0-.3.07-2.41.07-2.81,0-.4.01-2.82.1-3.7.09-.88-.08-1.6-.08-2.31,0-.71-.08-2.42-.08-2.42Z" fill="#3a3631"/>
    <path d="M28.73,1.38c0,.35.15.95.15.95h.26s.19-.41.19-.85-.29-1.27-.29-1.27c0,0-.3.82-.3,1.17Z" fill="#3a3631"/>
    <path d="M28.91,1.87c.03.21.06.35.08.44.03,0,.07,0,.1.01h0s.05-.5.05-.81c0-.38-.12-.73-.12-.73,0,0-.17.69-.12,1.09Z" fill="#3a3631"/>
    <path d="M29.19,3.13c-.06-.03-.07-.05-.12-.08-.03-.02-.05-.04-.08-.05.04-.02.08-.05.11-.08.04-.03.12-.12.12-.17,0-.06-.24-.15-.25-.16.08-.05.17-.14.18-.23,0,0,0,0,0,0,.06-.01.04-.09-.01-.09-.05,0-.1,0-.15-.02-.04-.01-.08-.04-.13-.03-.03,0-.05.03-.03.06.04.07.14.1.23.1-.02.02-.03.04-.05.06-.04.04-.09.08-.14.12-.03.02-.02.07.01.09.04.02.25.14.26.14-.03.02-.08.05-.11.07-.05.04-.1.07-.15.12-.01.01-.01.03.02.08.06.07.2.15.26.18.06.03.08-.06.02-.09Z" fill="#3a3631"/>
    <path d="M31.65,4.17s-.12.12-.12.28.09.28.09.28c0,0,.01-.26.09-.37.13-.18-.06-.18-.06-.18Z" fill="#3a3631"/>
    <path d="M32.97,4.3c.08.11.09.37.09.37,0,0,.09-.12.09-.28s-.12-.28-.12-.28c0,0-.19,0-.06.18Z" fill="#3a3631"/>
    <path d="M31.91,4.49s-.02.13,0,.27c.02.14.04.18.04.18,0,0,.08-.21.09-.32,0-.1-.03-.19-.13-.14Z" fill="#3a3631"/>
    <path d="M32.68,4.55c0,.1.09.32.09.32,0,0,.02-.04.04-.18.02-.14,0-.27,0-.27-.09-.05-.14.03-.13.14Z" fill="#3a3631"/>
    <path d="M32.31,4.6s-.03.11-.01.21c.02.09.05.26.05.26,0,0,.04-.06.06-.16s.08-.27.02-.32c-.02-.02-.1-.01-.12.01Z" fill="#3a3631"/>
    <path d="M28.69,3.88l.28,1.15s.42-.3.54-.49c.12-.19.08-.56-.12-.74s-.7.08-.7.08Z" fill="#3a3631"/>
  </g>
  <g>
    <path d="M26.35,1.99c-.1-.46.03-.56-.07-.9-.14-.48-.49-.82-.49-.82l-1.38-.19s-.46.4-.49,1.06c-.02.48.25.67.08,1.03-.07.14-.47.39-.47.6v.5h3.26s.12-.44.05-.56c-.21-.35-.43-.53-.48-.75Z" fill="#3a3631"/>
    <g>
      <path d="M24.08,8.21s-.58,1.54-.61,2.08c-.1,1.56-.02,1.71,0,2.7.03,1.02,0,1.5,0,2.34,0,.27.21.31.4.25.24-.95.59-2.33.64-2.64.08-.5-.16-1.03-.18-1.58-.02-.43.22-2.18.32-2.93l-.57-.2Z" fill="#3a3631"/>
      <path d="M25.19,8.61l-.54-.19c-.11.75-.34,2.5-.32,2.93.03.55.27,1.09.18,1.58-.05.32-.4,1.69-.64,2.64.16-.05.31-.16.33-.25.05-.2.51-2.18.5-2.76-.02-.58-.15-.93,0-1.66.15-.71.49-2.3.49-2.3Z" fill="#3a3631"/>
    </g>
    <g>
      <path d="M26.66,9.65l-.9-.47c.03.28.18,1.54.19,2.08,0,.61.26,1.67.5,2.49.11.38.26,1.01.39,1.59h.59s-.28-2.72-.38-3.43c-.1-.71-.39-2.26-.39-2.26Z" fill="#3a3631"/>
      <path d="M25.94,11.25c0-.54-.15-1.8-.19-2.08l-.29-.15s.2,1.76.28,2.7c.04.49.28,1.38.48,2.09.2.71.48,1.53.48,1.53h.12c-.13-.58-.28-1.22-.39-1.59-.24-.82-.5-1.89-.5-2.49Z" fill="#3a3631"/>
    </g>
    <path d="M25.56,2.45c-.12-.3-.08-.62-.08-.62h-.76s.05.52-.1.7c-.15.18-.44.32-.44.32,0,0,.19.44.85.44s.96-.44.96-.44c0,0-.31-.11-.43-.41Z" fill="#3a3631"/>
    <path d="M25.08.28c-.44,0-.8.45-.8,1.01s.36,1.01.8,1.01.8-.45.8-1.01-.36-1.01-.8-1.01Z" fill="#3a3631"/>
    <path d="M25.08.09s-.36-.21-.66,0c-.31.21-.24,1.32-.24,1.32,0,0,.06-.22.36-.29.31-.07.57-.61.57-.61.05.45.88,1.02.88,1.02,0,0,0-.75-.07-1-.19-.69-.83-.44-.83-.44Z" fill="#3a3631"/>
    <path d="M27.13,3.58c-.08-.19-.19-.48-.58-.64-.22-.09-.75-.2-.75-.2-.09.15-.24.36-.71.36-.38,0-.62-.21-.71-.36,0,0-.53.1-.75.2-.39.17-.5.45-.58.64-.08.19-.2,1.52-.43,2.34-.31,1.1-.37,2.24-.29,2.83.08.59.29.66.45.67.07,0,.07-.16.06-.33-.02-.19-.02-.4-.02-.4,0,0,.08.07.23.13.15.06.09-.09.05-.16-.08-.14-.32-.36-.27-.6.02-.11.07-.34.17-.69.11-.42.33-.8.33-1.24,0-.39.38-1.8.38-1.8,0,0,.3.83.32,1.23.02.41-.11,1.64-.11,1.64l1.2.08,1.2-.08s-.1-1.2-.09-1.6c.02-.41.3-1.27.3-1.27,0,0,.38,1.41.38,1.8,0,.44.22.82.33,1.24.09.35.14.59.17.69.05.23-.18.46-.27.6-.04.07-.1.22.05.16.15-.06.23-.13.23-.13,0,0,0,.2-.02.4-.02.17-.01.33.06.33.16,0,.37-.08.45-.67.08-.59.02-1.73-.29-2.83-.23-.82-.36-2.15-.43-2.34Z" fill="#3a3631"/>
    <path d="M24.91,9.65s.38.72.78,1.12c.28.28,1.52.43,1.52.43,0,0-.31-1.72-.54-2.9-.17-.86-1.76,1.35-1.76,1.35Z" fill="#3a3631"/>
    <path d="M26.33,5.37c-.02-.81.08-.78.16-1.03.11-.35-.09-1.17-.12-1.46,0-.08-.23-.18-.43-.11-.31.11-.46.35-1.12.67-.52.26-.95.41-1.06.65-.23.5.11.54.14,1.48.04,1.11-.35,2.61-.5,3.33-.24,1.21-.51,2.32-.51,2.32,0,0,.53-.12.64-.2.28-.23.51-.59.51-.59,0,0,.14.36.24.59.23-.15.47-.71.47-.71,0,0,.16.3.44.57.21-.2.3-.56.45-.74.08.28.1.37.26.59.29-.18.81-1.05.93-1.58,0-.68,0-.25-.15-1.25-.12-.76-.33-1.63-.36-2.53Z" fill="#3a3631"/>
    <path d="M25.86,2.75c0,.26-.09.66-.2.85-.18.28-.45.45-.79.26-.48-.26-.47-.68-.44-1.16,0-.09-.07-.06-.08,0-.05.34-.02.75.2,1.03.16.2.42.33.7.29.28-.04.43-.28.54-.51.08-.16.15-.48.15-.74,0-.06-.07-.07-.08-.02Z" fill="#3a3631"/>
    <path d="M25.69,5.89c-.2.35-1.01,1.16-1.3,1.29-.4.18-.66.07-.66.07,0,0-.1.24-.21.56-.1.32-.23.46-.23.46,0,0,.32-.13.47-.37.06.25.28.53.28.53,0,0,.22-.31.24-.51.11.12.5.27.5.27,0,0,.13-.44.15-.56.13.04.19.14.37.33.15-.34.22-.63.25-.87.13.07.16.11.29.29.04-.1.14-.49.2-.89.09.04.25.17.25.17,0,0,.16-.91.2-1.21.05-.41,0-1.17,0-1.17,0,0-.6,1.26-.81,1.61Z" fill="#3a3631"/>
    <path d="M26.31,2.81s.06.39.06.68.01.93-.38,1.67c-.8,1.49-1.41,1.81-1.72,1.95-.32.14-.52.05-.52.05l-.06.23s.3.17.65,0,1.24-.93,1.66-1.71c.42-.79.52-1.26.52-1.26,0,0,.08-.5.07-.8,0-.37-.03-.67-.03-.67l-.24-.13Z" fill="#3a3631"/>
    <path d="M24.56,6.08s.04-.42.07-.63c.04-.33.17-.71.17-.71,0,0-.18.29-.25.42-.04.06-.13.29-.19.41-.07-.18-.18-.41-.18-.41,0,0,0,.61,0,.71,0,.25-.11.84-.11.84,0,0,.26-.52.36-.76,0,.16,0,.45.04.63.22-.22.5-.57.62-.94.15-.47.25-1.07.25-1.07,0,0-.33.54-.47.88-.13.33-.31.63-.31.63Z" fill="#3a3631"/>
    <path d="M25.4,5.48s.17-.29.23-.46c.06-.18.08-.46.08-.46,0,0-.17.27-.2.43-.03.15-.11.5-.11.5Z" fill="#3a3631"/>
    <path d="M25.74,5.07s.2-.29.24-.47c.04-.18.07-.46.07-.46,0,0-.21.36-.24.49-.03.13-.08.45-.08.45Z" fill="#3a3631"/>
    <path d="M24.05,9.59c-.02.23,0,.56,0,.56,0,0,.14-.32.22-.56.08-.24,0-.89,0-.89,0,0-.2.67-.22.89Z" fill="#3a3631"/>
    <path d="M23.48,9.86s.31-.37.42-.61c.11-.24.17-.5.17-.5,0,0-.27.31-.38.56-.11.26-.2.55-.2.55Z" fill="#3a3631"/>
    <path d="M25.99,8.57c-.1.3-.24.54-.24.54,0,0,0-.36,0-.54,0-.37,0-.65,0-.65,0,0-.18.76-.28,1.1-.1.34-.33,1.12-.33,1.12,0,0,.45-.52.61-.72.32-.4.55-.89.55-.89l-.1.89s.35-.52.33-.89c-.01-.38-.13-1.07-.13-1.07,0,0-.3.81-.4,1.11Z" fill="#3a3631"/>
    <path d="M24.59,9.86c-.15.21-.29.46-.29.46l.22-.18c.22-.18.39-.61.39-.61,0,0-.17.11-.32.33Z" fill="#3a3631"/>
    <path d="M25.61,2.57c-.08.38-.12.76-.23,1.13-.11.36-.23.69-.36,1-.3-.66-.42-1.46-.42-2.18,0-.06-.04-.03-.05.03-.07.71.14,1.65.45,2.28.1-.17.61-1.34.64-2.24,0-.07-.02-.08-.03-.03Z" fill="#3a3631"/>
    <path d="M25.02,4.65c-.12,0-.22.1-.22.22s.1.22.22.22.22-.1.22-.22-.1-.22-.22-.22Z" fill="#3a3631"/>
    <path d="M22.94,7.51s-.19.16-.22.19c-.05-.04-.1-.08-.15-.12-.08-.07-.18-.14-.24-.23-.02-.03-.04.03-.02.05.08.08.13.15.21.22.04.04.11.09.16.13-.05.04-.14.11-.18.14-.03.02-.06.04-.1.06-.05-.03-.07-.05-.12-.08-.02-.01-.02.01-.01.03.02.05.05.05.08.09-.03.03-.06.03-.08.07,0,0-.02.04.02.03.05-.01.05-.03.1-.06.03.02.12.07.15.09.09.05.18.08.27.08.02,0,.02-.05,0-.05-.13-.03-.2-.07-.28-.11-.02,0-.07-.04-.08-.05.03-.02.23-.17.27-.21.04.03.08.07.13.09.06.03.08-.02.02-.06-.03-.02-.07-.06-.1-.09.03-.03.14-.14.17-.17.04-.04.04-.09,0-.05Z" fill="#3a3631"/>
    <g>
      <g>
        <path d="M24.22,14.24c-.02-.43-.18-.53-.18-.53,0,0-.28.34-.36.67-.26-.34-.53-.53-.53-.53,0,0,.14.42.15.53.02.18.1.44.05.7-.05.26-.39.56-.57.88-.17.31-.28.54-.22.71.42.03.82-.07,1.12-.31.37-.29.42-.52.52-1.04.07-.37.25-1.05.34-1.4-.1.08-.22.19-.32.31Z" fill="#3a3631"/>
        <path d="M24.21,15.33c-.1.51-.15.74-.52,1.04-.3.24-.7.34-1.12.31.03.07.18.17.29.18.39.05.72-.12,1.08-.33.36-.21.45-.63.5-.88.05-.25.03-.57.12-1.02.09-.45.16-.82.16-.82,0,0-.07.05-.16.12-.09.35-.27,1.03-.34,1.4Z" fill="#3a3631"/>
      </g>
      <path d="M24.54,14.62c-.17.11-.34.21-.54.27-.06-.01-.12-.03-.18-.04-.19-.05-.32-.11-.48-.23-.02-.02-.05.01,0,.06.14.14.5.26.52.26-.17.04-.39.09-.53.14-.04.02-.08.03-.02.07.12.09.4.22.5.26.18.07.42.1.63.06.05,0,.03-.06.01-.06-.2,0-.35-.02-.53-.08-.17-.06-.33-.14-.49-.22.17-.05.4-.09.58-.15.18.04.34.06.49,0,.05-.02.05-.08,0-.06-.1.03-.21.03-.32.01.15-.06.29-.15.38-.29,0,0,0-.02-.01-.01Z" fill="#3a3631"/>
    </g>
    <g>
      <g>
        <path d="M27.49,15.08c-.05-.26.03-.53.05-.7.01-.11.15-.53.15-.53,0,0-.27.19-.53.53-.08-.33-.36-.67-.36-.67,0,0-.16.1-.18.53-.1-.12-.22-.23-.32-.31.09.35.27,1.03.34,1.4.1.51.15.74.52,1.04.3.24.7.34,1.12.31.06-.17-.05-.41-.22-.71-.19-.33-.52-.63-.57-.88Z" fill="#3a3631"/>
        <path d="M27.16,16.36c-.37-.29-.42-.52-.52-1.04-.07-.37-.25-1.05-.34-1.4-.09-.07-.16-.12-.16-.12,0,0,.08.37.16.82.09.45.07.77.12,1.02.05.25.14.67.5.88.36.21.68.38,1.08.33.11-.01.26-.11.29-.18-.42.03-.82-.07-1.12-.31Z" fill="#3a3631"/>
      </g>
      <path d="M27.51,15.08c-.14-.06-.36-.11-.53-.14.02,0,.38-.12.52-.26.04-.04.02-.07,0-.06-.16.12-.28.18-.48.23-.05.01-.11.03-.18.04-.2-.06-.36-.15-.54-.27,0,0-.02,0-.01.01.09.14.22.22.38.29-.11.02-.23.02-.32-.01-.06-.02-.06.04,0,.06.15.06.3.04.49,0,.19.05.41.1.58.15-.16.08-.31.16-.49.22-.18.06-.33.08-.53.08-.02,0-.04.05.01.06.21.04.45,0,.63-.06.1-.04.38-.17.5-.26.05-.04.02-.06-.02-.07Z" fill="#3a3631"/>
    </g>
  </g>
  <g>
    <g>
      <g>
        <path d="M40.21,24.98c-1.04-.34-3.2-.39-3.7.01-.07.06-.15.14-.23.23.3.51.64,1,.97,1.21.83.51,2.38.68,2.94.38.26-.14.62-.66.93-1.17-.2-.28-.49-.52-.92-.66Z" fill="#3a3631"/>
        <path d="M40.19,26.81c-.55.31-2.11.14-2.94-.38-.33-.21-.68-.7-.97-1.21-.14.17-.28.4-.39.64.29.56.84,1.17,1.86,1.44,2.08.55,2.9.32,3.24-.64.1-.28.18-.57.25-.84-.04-.07-.08-.13-.12-.19-.31.51-.67,1.03-.93,1.17Z" fill="#3a3631"/>
      </g>
      <path d="M40.99,26.67c-.34.96-1.16,1.19-3.24.64-1.02-.27-1.56-.88-1.86-1.44-.12.29-.19.61-.15.91.09.7,1.91,1.6,3.42,1.48,1.5-.12,2.24-.85,2.29-1.41.02-.28-.03-.66-.22-1.01-.07.27-.15.56-.25.84Z" fill="#3a3631"/>
    </g>
    <g>
      <path d="M35.51,23.33c-.49-.05-.58.08-.75.38-.56,1.05-.49.87-.86,1.5-.43.72-.9,1.49-.9,1.49l.57.58s.39-.29.93-.94c.49-.59,1.03-1.09,1.23-1.57.33-.19,2.14.58,2.29.6.15.02-.34-1.73-.34-1.73,0,0-1.29-.21-2.16-.3Z" fill="#3a3631"/>
      <path d="M36.83,20.14c-.05.29-.19.47-.31.73-.15.33-.27.67-.27.67,0,0-.51-.35-1.17-.65-.18-.08-.31-.49-.37-.59-.12-.19-.26-.32-.39-.37-.1-.04-.22.03-.19.15-.11-.02-.21.08-.11.22-.13.02-.16.13-.07.21-.11.09,0,.28.25.41.33.17,1.19,1.22,1.48,1.42.19.13.71.38,1.09,0,.2-.19.51-.7.58-.9.22-.59.18-2.02.18-2.02,0,0-.59.02-.71.72Z" fill="#3a3631"/>
      <path d="M38.02,18.77l-1.03.45s.26.39.35.76c.02.09-.16.4-.15.48.03.27.3.46.3.46,0,0,.81-.23.98-.54.17-.32-.17-1-.17-1l-.28-.6Z" fill="#3a3631"/>
      <path d="M37.13,17.79c-.44.06-.74.55-.66,1.09s.49.93.93.87c.44-.06.74-.55.66-1.09-.07-.54-.49-.93-.93-.87Z" fill="#3a3631"/>
      <path d="M36.91,23.49s.31.55.66.72c.35.17.76.22.76.22l.76-.33-1.08-.51-1.11-.1Z" fill="#3a3631"/>
      <g>
        <g>
          <path d="M33.87,26.48c.27-.17.32-.38.39-.57-.27-.12-.81.23-.81.23,0,0,.36-.44.13-.64-.37.25-.33.63-.76.78-.24.08-.66.09-1.26-.06-.19-.04-.34,0-.43.08.17.33.55.57.92.8.41.25.73.48.96.48.23,0,.42-.44.67-.76.18-.23.52-.17.69-.11.09-.04.18-.08.28-.13-.32-.19-.77-.11-.77-.11Z" fill="#3a3631"/>
          <path d="M33.68,26.83c-.26.32-.45.76-.67.76-.23,0-.55-.24-.96-.48-.37-.23-.75-.47-.92-.8-.15.13-.16.2.03.41.26.27.61.46,1.22.87.74.5,1.01.11,1.1-.06.13-.23.34-.52.47-.61.14-.09.28-.14.43-.21-.17-.05-.51-.11-.69.11Z" fill="#3a3631"/>
        </g>
        <path d="M33.45,26.72s-.05-.07-.07-.11c-.1-.17-.15-.37-.26-.54-.01-.02-.06-.01-.05.02.01.16.09.34.17.49-.13-.1-.27-.23-.39-.35-.04-.04-.12,0-.08.05,0,0,.06.06.07.07,0,.18.1.35.2.49.14.21.31.41.49.58.04.03.1-.01.07-.06-.14-.18-.3-.34-.44-.53-.09-.12-.15-.25-.21-.39.13.13.28.28.45.38.09.13.19.26.3.37.05.05.11-.03.07-.07-.05-.06-.1-.12-.15-.18.1.04.18.07.28.07.06,0,.06-.06.04-.06-.16-.08-.33-.14-.49-.23Z" fill="#3a3631"/>
      </g>
      <path d="M38.39,24.19s-1.76-.12-2.2-.07c-.38.04-.38.29-.67.87-.17.35-1.17,1.93-1.52,2.37-.03.04-.07.08-.1.12.2.37.46.66.79.85.09-.15.17-.3.2-.39.12-.28.9-.96,1.29-1.29.39-.33.55-1.07.55-1.07,0,0,1.27.66,2.27.54,1-.12,1.07-1.04.73-1.5-.34-.46-1.35-.42-1.35-.42Z" fill="#3a3631"/>
      <path d="M38.28,24.22s-.4.21-.49.6c.2.18,1.07.18,1.07.18,0,0-.35.43-.35.88.39-.06.92-.22.92-.22l-.15.9s1.05-.37,1.25-1.25c.2-.88-.31-1.63-.31-1.63l-1.93.53Z" fill="#3a3631"/>
      <g>
        <path d="M39.58,20.28c-.41-.5-1.03-.44-1.34-.14-.21.2-.56.7-.81.57-.26-.14-.14-.43-.07-.62,0-.09-.08-.32-.08-.32-.16.36-.18.46-.27.94-.07.4.07,1.09.25,1.69.33.17.86.39.96.14.15-.36.09-1.51.54-1.88.45-.37,1.23,1.18,1.38,1.76.12.46.02,1.13-.11,1.56.2-.03.3-.07.3-.07,0,0,.24-.23.19-.99-.05-.75-.53-2.15-.94-2.65Z" fill="#3a3631"/>
        <path d="M38.76,20.66c-.45.37-.39,1.52-.54,1.88-.1.24-.63.02-.96-.14.19.67.41,1.24.41,1.24,0,0,.29.43,1.22.43.51,0,.9-.05,1.14-.09.14-.43.23-1.1.11-1.56-.15-.58-.93-2.12-1.38-1.76Z" fill="#3a3631"/>
      </g>
      <path d="M39.33,19.63c-.2-.23-.02-.44-.27-.81-.1-.15-.32-.22-.33-.39-.02-.24-.03-.54-.43-.91-.39-.37-1.33-.01-1.69.31-.2.18-.21.3-.1.53.08,0,.53-.04.66.3.11.29.27.39.41.43.21.39-.08.97.33,1.27.11.08.21.09.34.06.32-.08.54-.31.86-.26.17.06.35.14.54.21.03-.11.04-.3-.02-.42-.08-.18-.19-.19-.31-.33ZM38.62,20.18c-.05.03-.16.07-.22.1-.43.18-.62-.01-.63-.39-.03-.26.03-.55-.09-.76.09.01.23.21.22.49-.01.37.14.66.48.52.15-.06.3-.07.45-.04-.07.02-.14.05-.21.08ZM39.11,19.59c-.06-.16.05-.29.04-.49.02.06.03.13.03.2,0,.1-.01.2.04.29.03.06.09.1.14.14.12.11.2.21.23.32-.14-.19-.42-.31-.48-.47Z" fill="#3a3631"/>
      <path d="M35.63,22.33s-.05.08-.08.12c-.06.07-.16.25-.29.35-.11.09-.25.04-.38-.04-.48-.3-.22-.9-.17-1.32.04-.27-.11-.45-.19-.7-.13-.42-.1-.79.21-1.06.08-.07.01-.1-.04-.06-.27.22-.37.6-.32.94.03.24.17.4.24.63.09.32-.07.6-.1.94-.02.29.06.59.47.76.1.04.25.02.34-.05.05-.04.26-.37.36-.5-.01-.02-.05-.03-.05-.03Z" fill="#3a3631"/>
      <path d="M42.3,26.5c-.29-.23-1.21-.47-2.02-1.1-.81-.63-5.37-3.9-5.37-3.9-.12.24-.2.25-.2.25,0,0,3.76,2.65,4.35,3.14.59.49,1.36,1.1,2.04,1.49.67.4.79.3,1.26.63.47.34,1.58,1.12,1.78,1.32.2.2.41.06.47-.05.06-.12-2.02-1.54-2.3-1.77Z" fill="#3a3631"/>
      <path d="M40.5,24.22c-.17-.02-.25-.04-.42-.05-.1,0-.21-.01-.31-.02.29-.03.62-.11.73-.31.02-.04-.02-.08-.06-.06-.51.24-1.01.25-1.53.18-.05-.02-.09-.04-.14-.06-.03-.01-.51-.1-.66-.15-.01,0-.02.01-.01.02.06.06.14.11.22.15,0,0,0,0,0,0,0,0,0,0,0,0,.26.14.58.21.88.23.23.08,1.12.2,1.33.19.15-.01.05-.12-.03-.13Z" fill="#3a3631"/>
      <path d="M39.08,20.26c-.4-.08-.63.52-.51,1.04.19.82.11.84.11,1.04,0,.38.09.65.09.65,0,0-.76-.09-1.26-.06-.5.04-.67-.29-1.02-.39-.34-.09-.6-.06-.67.32-.07.38.27.59.71.69.44.1.7.02,1.41.26.72.25,1.52.16,1.68.09.16-.07.27-1.09.2-1.78-.07-.68.11-1.69-.73-1.86Z" fill="#3a3631"/>
      <path d="M34.02,20.72c-.67-.3-1.19-.35-1.19-.35,0,0,.31.48.89.91.46.34,1.32.69,1.32.69l.18-.25s-.53-.69-1.19-.99Z" fill="#3a3631"/>
      <path d="M33.22,20.59s.49.54.84.71c.35.17.9.48.9.48l.07-.11s-.49-.46-.8-.65c-.31-.19-1.01-.43-1.01-.43Z" fill="#3a3631"/>
      <path d="M35.63,21.98c-.07,0-.14.03-.22.07.02-.04.07-.19.04-.22-.04-.04-.22.03-.3.08,0,0,0-.02.01-.02.03-.04.1-.14.11-.15.04-.04.03-.1-.02-.08-.08.02-.15.06-.21.11.05-.06.08-.11.11-.17.01-.03-.02-.06-.04-.04-.06.06-.09.1-.14.17-.05.08-.07.11-.1.17-.01.02,0,.09.05.06.07-.04.18-.11.18-.12-.04.06-.1.12-.12.19,0,.03.04.06.06.04.02-.02.03-.04.04-.06,0,0,0,0,0,0,0,0,0,0,0,0,.06-.02.12-.04.18-.06.04,0,.07-.01.11-.02-.02.02-.04.05-.05.08-.03.06-.08.12-.06.18,0,.02.04.04.06.02.02-.01.13-.09.17-.1.03-.01.07-.02.1-.03,0,.01-.02.03-.03.04-.04.06-.07.09-.1.16-.02.05.04.08.07.04.04-.06.06-.09.1-.16.02-.04.04-.08.06-.11,0-.02,0-.08-.04-.07Z" fill="#3a3631"/>
      <path d="M34.63,19.88s-.11.05-.14.16c-.03.11-.06.2,0,.31.06.12.13.28.13.28,0,0,.27.03.26.03,0,0-.21-.44-.21-.54,0-.13-.04-.24-.04-.24Z" fill="#3a3631"/>
      <path d="M34.49,20.21c0-.1-.14-.23-.14-.23l-.15.65s.16.14.22.09c.06-.05-.04-.18-.04-.18,0,0,.09.03.11-.03.02-.06-.07-.18-.07-.18,0,0,.07,0,.07-.1Z" fill="#3a3631"/>
      <g>
        <g>
          <path d="M34.86,27.4c.22-.23.22-.45.25-.64-.29-.06-.74.41-.74.41,0,0,.25-.51-.02-.65-.3.33-.18.69-.56.94-.22.14-.62.24-1.24.24-.19,0-.33.07-.4.18.24.28.66.43,1.08.57.45.14.82.3,1.05.25.22-.05.3-.53.48-.89.13-.26.47-.28.65-.27.08-.06.16-.12.24-.19-.35-.11-.78.08-.78.08Z" fill="#3a3631"/>
          <path d="M34.75,27.78c-.18.37-.26.84-.48.89-.22.05-.59-.1-1.05-.25-.41-.13-.84-.29-1.08-.57-.12.16-.11.24.13.39.32.2.7.31,1.39.57.83.31,1-.12,1.05-.31.07-.26.21-.59.31-.7.12-.12.24-.2.37-.3-.18-.01-.52,0-.65.27Z" fill="#3a3631"/>
        </g>
        <path d="M35.04,27.84c-.18-.04-.35-.06-.53-.11-.03-.03-.06-.06-.09-.09-.14-.14-.23-.32-.37-.46-.02-.02-.06,0-.05.03.05.16.17.31.28.43-.15-.07-.32-.16-.46-.25-.05-.03-.12.04-.07.07.01,0,.07.04.09.05.04.17.18.32.3.43.18.17.4.32.61.45.04.03.09-.04.05-.07-.18-.15-.38-.27-.55-.41-.12-.1-.21-.21-.3-.33.16.1.34.2.53.27.12.11.24.21.37.29.06.04.1-.05.05-.09-.06-.05-.13-.09-.19-.14.11.01.19.02.29,0,.06-.01.04-.07.02-.07Z" fill="#3a3631"/>
      </g>
      <path d="M35.97,24.6c.15.3.32.06.35-.02-.13-.03-.35.02-.35.02Z" fill="#3a3631"/>
    </g>
  </g>
  <g>
    <g>
      <g>
        <path d="M18.42,14.66c-1.07-.22-3.22-.02-3.67.44-.07.07-.13.16-.2.26.35.48.75.92,1.11,1.09.88.41,2.45.4,2.96.03.24-.17.54-.73.78-1.27-.23-.25-.55-.46-.99-.55Z" fill="#3a3631"/>
        <path d="M18.62,16.48c-.51.37-2.08.38-2.96-.03-.35-.17-.76-.61-1.11-1.09-.12.19-.24.43-.31.68.35.52.97,1.07,2.01,1.22,2.13.31,2.92-.02,3.14-1.01.07-.29.11-.59.15-.86-.04-.06-.09-.12-.14-.18-.25.54-.54,1.1-.78,1.27Z" fill="#3a3631"/>
      </g>
      <path d="M19.4,16.25c-.22.99-1.01,1.32-3.14,1.01-1.04-.15-1.66-.7-2.01-1.22-.08.3-.12.62-.04.92.17.68,2.09,1.36,3.57,1.07,1.48-.29,2.13-1.11,2.11-1.67,0-.28-.11-.65-.33-.98-.04.27-.09.57-.15.86Z" fill="#3a3631"/>
    </g>
    <path d="M16.96,10.41c.3.6.9.13.9.13l-.86-1.69s-.35.97-.04,1.57Z" fill="#3a3631"/>
    <g>
      <path d="M20.68,11.79c-.45-.64-.85-1.03-.85-1.03l-.26,1.11c.09.12.24.32.37.55.22.37.88.9,1.15.98.25-.15.13-.33.16-.39.15-.33-.24-.75-.57-1.21Z" fill="#3a3631"/>
      <path d="M19.93,12.42c-.13-.23-.28-.43-.37-.55l-.1.41s.21.39.77.8c.37.28.6.46.85.31-.27-.08-.94-.61-1.15-.98Z" fill="#3a3631"/>
    </g>
    <path d="M18.83,10.17s-1.05-.13-1.39-.06c-.63.13-1.35.72-1.35.72,0,0,0,1.07.12,1.47.17.6.02,1.33.02,1.33,0,0,.82.76,1.18.74.37-.02,1.09-.17,1.24-.2.15-.04,1.04-2.06,1.28-3.26-.21-.61-1.11-.73-1.11-.73Z" fill="#3a3631"/>
    <path d="M16.55,11.74s-.33.44-.27.88c.06.44-.18,1.47-.18,1.47l.67.16s-.04-.96-.06-1.71c-.02-.75-.15-.79-.15-.79Z" fill="#3a3631"/>
    <path d="M19.39,10.08c-.19-.11-.51-.17-.68-.19-.28-.04-1.13.07-1.13.07,0,0-.35.07-.58.14s-.42.08-.42.08l.18.13s-.14.2-.18.35c-.05.15-.02.31-.02.31l.47-.25s-.12.56-.03.74c.21.02.47-.19.47-.19,0,0,.03.18.12.45.07.2.35.34.35.34l.21-.44s.26.33.44.39c.08-.21.07-.52.07-.52,0,0,.24.15.42.17.06-.21.04-.48.04-.48,0,0,.18.11.32.1.04-.15.04-.4,0-.57.18,0,.29-.05.29-.05,0,0-.18-.49-.34-.58Z" fill="#3a3631"/>
    <ellipse cx="18.21" cy="9.7" rx=".83" ry="1.02" fill="#3a3631"/>
    <g>
      <path d="M19.3,14.27l-.98.87c.3.02.57.05.57.05,0,0,.2.07.4.18.07.04.34.15.44.17,0,0-.19.44-.27,1.07-.07.55-.01,1.16,0,1.32l.5.04s.6-1.96.65-2.09c.05-.13.18-.88.18-1.16s-1.1-.72-1.5-.45Z" fill="#3a3631"/>
      <path d="M19.73,15.54c-.11-.02-.38-.13-.44-.17-.2-.12-.4-.18-.4-.18,0,0-.27-.03-.57-.05l-.31.27s.87.25,1.48.27c-.31.66-.3,2.24-.3,2.24l.28.02c-.02-.15-.07-.76,0-1.32.08-.64.27-1.07.27-1.07Z" fill="#3a3631"/>
    </g>
    <path d="M18.78,13.99s-.83.37-1.56.07c-.79-.33-1.01-.32-1.01-.32l-.69.76s1.04,1.43,1.74,1.55c.7.12.99-.1,1.35-.63.21,0,.56-.05.75-.13,0-.26-.04-.3-.08-.58.43-.08.65-.21.99-.4-.43-.37-1.5-.32-1.5-.32Z" fill="#3a3631"/>
    <path d="M18.82,13.95c-.51.12-.95.25-1.48.13-.39-.09-.93-.17-1.22-.47-.02-.02-.05,0-.03.03.21.36.79.42,1.16.51.55.14,1.06.07,1.59-.13.05-.02.03-.09-.02-.07Z" fill="#3a3631"/>
    <path d="M21.16,10.08c-.08.03-.05.11.14.13.14.02.16.29.07.5-.07.17.05.26.05.26l.26.47s.27-.66.15-1.04c-.12-.38-.45-.41-.68-.32Z" fill="#3a3631"/>
    <path d="M20.72,11.18c-.12.44-.16.91-.37,1.32-.21.41-.68.8-1.14.9-.04,0-.03.07,0,.07.53-.03,1.06-.55,1.27-1.01.2-.45.4-2.51,1.12-2.11.1.05.09,0,.07-.02-.51-.43-.88.53-.97.85Z" fill="#3a3631"/>
    <g>
      <path d="M17.41,15.93c-.13.49-.49,1.26-.63,1.71-.12.38.42.5.53.24.18-.45.34-1.25.52-1.86.37-1.2.61-2.15.61-2.15l-.4-.13s-.51,1.7-.64,2.19Z" fill="#3a3631"/>
      <g>
        <path d="M18.01,12.43c-.45.07-.62.06-.8.37-.03.05-.04.11-.03.18.22.16.46.27.72.37.28.11.6.3.91.2.32-.1.36-.34.49-.57-.48-.46-.83-.62-1.28-.55Z" fill="#3a3631"/>
        <path d="M19.29,12.98c-.13.23-.17.47-.49.57-.3.09-.63-.09-.91-.2-.26-.1-.49-.21-.72-.37.03.25.28.57.65.71.46.18.9.33,1.13.19.23-.14.82-.44.34-.9,0,0,0,0,0,0Z" fill="#3a3631"/>
      </g>
      <path d="M19.1,12.81c-.15.2-.32.39-.51.56-.05-.15-.13-.34-.2-.48.04-.17.05-.3.07-.46.01-.08-.07-.1-.08-.02-.02.13-.04.26-.06.39-.11-.15-.23-.29-.4-.38-.01,0-.03.01-.02.02.08.09.24.29.38.5-.02.07-.03.14-.05.21-.06.2-.15.39-.22.59-.04,0-.05.05.01.06.05.02.12.02.26.08.04.02.11.05.14.08.28.01.27-.29.21-.49.21-.18.4-.4.55-.61.04-.05-.04-.12-.08-.07ZM18.07,13.74s-.01,0-.02,0c.14-.19.25-.42.32-.66.07.12.12.23.16.35-.14.11-.28.2-.42.32-.01,0-.02,0-.04,0ZM18.46,13.87c-.07-.05-.16-.1-.26-.12.12-.05.23-.12.34-.2.02.13,0,.24-.08.32Z" fill="#3a3631"/>
    </g>
    <g>
      <path d="M16.44,14.98c-.22-.22-.67-.48-.91-.5-.15-.01-.22-.09-.25-.15-.07.14-.12.33-.18.57-.13.51.02,1.05.21,1.5.19.45.61,1.51.61,1.51h.63s0-1.51,0-2.14c0-.27-.03-.54-.11-.79Z" fill="#3a3631"/>
      <path d="M15.59,14.09c-.15,0-.24.09-.31.24.03.06.1.14.25.15.24.02.7.29.91.5-.15-.51-.44-.91-.85-.89Z" fill="#3a3631"/>
    </g>
    <path d="M15.73,15.1c-.11.05-.08.16-.08.16,0,0,.04.1.24,0,.2-.11.1-.33.1-.33,0,0-.15.13-.26.18Z" fill="#3a3631"/>
    <path d="M17.53,14.16s-.76-.5-1.43-.66c.1-.35.46-.97.53-1.3.08-.33-.17-1.05-.54-1.38-.27.14-.42.42-.47.78-.09.68-.2.96-.35,1.46-.19.59.05,1.17.05,1.17,0,0,.91.39,1.63.49.36.05.92.62,1.26.57.19-.03.38-.38.4-.67.03-.29-1.09-.46-1.09-.46Z" fill="#3a3631"/>
    <path d="M19.07,8.29c-.49-.42-1-.1-1-.1,0,0-.2-.25-.59.06-.22.18-.44.36-.54.8-.12.55.15.75.37.9.04.14.08.32.18.51.26.53.48.65.73.58.52-.13.74-.47.81-.72.04-.13.07-.33.09-.48.12.25.13.61.13.61,0,0,.31-.71.27-.94-.07-.4-.24-1.04-.44-1.22ZM17.64,9.45c.17-.27.38-.48.46-.61-.06.35-.36.62-.59.85.04-.05.09-.17.14-.24ZM18.8,10.31c-.12.16-.39.29-.6.28-.21-.01-.61-.33-.69-.58-.02-.07-.04-.12-.05-.18.14-.13.32-.27.43-.41.12-.16.25-.36.25-.57.11.08.54.41.87.82-.04.17-.12.52-.21.64Z" fill="#3a3631"/>
    <path d="M21.13,10.29c-.14-.02-.05.15-.02.33.03.18,0,.22.02.61.02.39-.41,1.59-.41,1.59,0,0,.24.65.48.48.29-.21.29-.3.32-.53.03-.23.14-1.23.15-1.32.02-.09-.19-.72-.26-.78-.07-.07-.14-.35-.29-.38Z" fill="#3a3631"/>
    <g>
      <path d="M20.4,16.54c-.37.18-.72.45-.72.45l.66.53s.06-.3.25-.53c.19-.23.42-.41.42-.41,0,0-.24-.22-.61-.04Z" fill="#3a3631"/>
      <g>
        <path d="M20.67,18.04c-.21-.2-.21-.29-.31-.56-.21-.56-.19-.53-.44-.82-.25-.29-.89-.46-.89-.46,0,0,.01.1.03.23.08.13.18.33.21.53.05.34-.06.76-.05,1,0,.24.1.46.47.63.37.17.91.43,1.18.47.08.01.17.03.25.05.21-.1.31-.31.3-.4-.02-.15-.51-.44-.75-.66Z" fill="#3a3631"/>
        <path d="M19.69,18.59c-.37-.17-.46-.39-.47-.63,0-.24.1-.65.05-1-.03-.2-.13-.4-.21-.53.03.24.06.59.08.79.03.31-.11.6-.08.9.02.27.4.49.8.67.39.17.11.05.7.3.24.1.43.08.57.02-.09-.02-.18-.04-.25-.05-.27-.04-.81-.3-1.18-.47Z" fill="#3a3631"/>
      </g>
      <path d="M20.51,17.7c-.2-.06-.38-.14-.56-.23.09-.04.18-.09.25-.15.13-.02.25-.06.3-.18,0,0,0-.01-.01-.01-.09.01-.17.06-.27.08-.13.03-.27.01-.4,0-.23-.03-.45-.1-.64-.25-.04-.03-.1.02-.06.06.08.07.17.12.26.16.09.11.2.2.33.28-.19.05-.39.06-.59.08-.05,0-.05.09,0,.09.21-.02.47-.04.7-.1.21.11.45.18.66.26.05.02.07-.06.02-.07ZM19.56,17.25c.11.04.22.06.34.08.05,0,.1.01.16.01-.07.03-.14.06-.21.09-.1-.05-.19-.11-.28-.17Z" fill="#3a3631"/>
    </g>
    <g>
      <path d="M15.79,16.93c-.21-.21-.52-.38-.52-.38,0,0,.15.47.2.87.05.41-.01.83-.1,1.29-.08.44-.39,1.03-.41,1.31.2-.02.35.12.62.13.32,0,.44-.5.73-.98.28-.48.11-.84.09-1.29-.01-.27.13-.47.26-.6.03-.22.05-.37.05-.37l-.58.38s-.21-.24-.34-.36Z" fill="#3a3631"/>
      <path d="M16.6,17.93c.01-.25.03-.47.05-.65-.12.12-.27.33-.26.6.02.45.2.81-.09,1.29-.28.48-.41.99-.73.98-.27,0-.41-.15-.62-.13,0,.02,0,.03,0,.05.02.26.73.48.98.06.24-.42.45-.74.67-1.01.22-.27-.03-.78-.01-1.2Z" fill="#3a3631"/>
    </g>
    <path d="M16.62,17.75c-.38.17-.78.16-1.12-.11-.03-.03-.07.03-.04.06.09.07.19.13.3.17,0,0,0,0,0,.01-.04.01-.09.04-.13.05-.06.02-.13.04-.2.05-.05,0-.04.09,0,.09.12,0,.28-.04.37-.13.07.07.15.12.23.17-.02,0-.03.02-.05.03-.19.09-.4.14-.61.15-.05,0-.06.08,0,.08.22,0,.54-.06.78-.19.14.06.29.1.42.1.04,0,.06-.06.02-.08-.11-.03-.22-.06-.33-.1.08-.06.15-.13.19-.22.06-.02.11-.05.17-.09.02-.02,0-.05-.02-.04ZM16.16,18.04c-.09-.04-.17-.09-.26-.14.15.04.3.04.44,0-.06.04-.12.09-.18.13Z" fill="#3a3631"/>
    <path d="M16.8,10.43c-.05.07-.16.28-.16.28,0,0,.3-.05.41-.25.07-.12.13-.25.13-.25,0,0-.32.15-.37.22Z" fill="#3a3631"/>
    <path d="M17.18,10.98c0,.08-.06.33-.06.33,0,0,.18-.24.19-.33.01-.09-.03-.34-.03-.34,0,0-.11.26-.11.34Z" fill="#3a3631"/>
    <path d="M17.54,10.97s.06.26.11.41c.05.15.14.36.14.36,0,0,.09-.16,0-.39-.09-.22-.25-.38-.25-.38Z" fill="#3a3631"/>
    <path d="M19.04,10.72s.04.14.1.21.15.19.15.19c0,0,0-.18-.05-.26-.06-.09-.2-.14-.2-.14Z" fill="#3a3631"/>
    <path d="M18.87,10.88s0,.24.03.35c.04.11.07.27.07.27,0,0,.08-.26.04-.38-.03-.12-.14-.24-.14-.24Z" fill="#3a3631"/>
    <path d="M18.41,11.25s-.04.2,0,.31c.04.11.14.29.14.29,0,0,.05-.18,0-.35-.05-.17-.14-.24-.14-.24Z" fill="#3a3631"/>
  </g>
  <g>
    <path d="M7.6,22.67s-.64.7-.23,1.65c.41.96,2.46,1.74,4.49,1,2.03-.74,1.41-2.38,1.38-2.44l-5.65-.21Z" fill="#3a3631"/>
    <g>
      <path d="M11.99,23.88c-1.3.48-3.21-.03-4.37-.65.04.25.17.51.4.72.62.58,1.72.98,2.99.77,1.23-.21,1.99-.59,2.2-1.29.09-.31.05-.56-.02-.74,0,.38-.24.83-1.19,1.18Z" fill="#3a3631"/>
      <path d="M12.94,22.36s-3.46-.6-4.46-.31c-.66.2-.94.69-.86,1.19,1.16.61,3.07,1.13,4.37.65.95-.35,1.19-.81,1.19-1.18-.09-.22-.24-.34-.24-.34Z" fill="#3a3631"/>
      <path d="M9.32,20.33s-1.07,1-1.16,1.04c-.09.04,1.54,1.15,1.54,1.15l1.91-.35s-.67-1.08-1.08-1.65c-.41-.57-1.21-.18-1.21-.18Z" fill="#3a3631"/>
    </g>
    <path d="M8.97,20.21c-.56.16-1.73.81-1.73.81,0,0,.96.71,1.67.41.72-.3.92-1.36.92-1.36,0,0-.31-.02-.87.14Z" fill="#3a3631"/>
    <path d="M10.61,21.52c-2.39.14-2.3.68-2.3.68-.4.58,1.5,1.4,2.65,1.28,1.15-.12,1.81-.34,2.04-.77s-.99-1.27-2.39-1.19Z" fill="#3a3631"/>
    <g>
      <path d="M6.49,24.28c-.94.35-2.22.37-3.18-.47.03.19.12.37.29.53.45.42,1.25.72,2.17.56.89-.15,1.45-.43,1.6-.94.07-.23.04-.41-.02-.54,0,.27-.17.6-.86.86Z" fill="#3a3631"/>
      <path d="M7.18,23.17s-2.14-.6-2.88-.44c-.99.22-1.04.71-.99,1.07.76.98,2.34.93,3.28.58.69-.26.76-.7.76-.97-.07-.16-.17-.25-.17-.25Z" fill="#3a3631"/>
      <path d="M5.49,22.57c-1.74.1-1.98.44-1.82.85.17.44,1.24.66,2.08.58.84-.08,1.32-.24,1.48-.56s-.72-.93-1.74-.87Z" fill="#3a3631"/>
    </g>
    <path d="M12.68,16.04c-.24-.03-.56.35-.88.58-.32.23-1.7.92-1.7.92,0,0-.62-.4-1.18-.71-.57-.31-1.45.06-1.45.06,0,0,.25,1.28.59,1.25.71-.06,1.07.29,1.69.45.16.04.75-.03,1.37-.41.62-.38,1.04-.96,1.16-1.05.12-.08.74-.24.84-.56.1-.31-.18-.49-.43-.52Z" fill="#3a3631"/>
    <path d="M7.82,16.76c.05-.18-.86-.49-.86-.49,0,0-.18.47-.32.72-.15.25-.62.43-.62.43,0,0,.73.58,1.16.56.44-.02.98-.31.98-.31,0,0-.4-.73-.34-.91Z" fill="#3a3631"/>
    <path d="M7.87,17.04s.02.53-.34.63c-.75.22-1.33-.55-1.33-.55,0,0-.9.49-1.09.86-.19.37-.18.98.02,1.61.19.63.07.77.02,1.52-.02.25-.01.43,0,.57.03.28.09.36.09.36,0,0,1.3.07,1.84-.17.54-.24.86-.55.86-.55,0,0-.23-.75-.13-1.07.18-.57.63-1.2.71-1.61.08-.4.11-.9,0-1.22-.22-.61-.66-.38-.66-.38Z" fill="#3a3631"/>
    <path d="M8.14,15.04c-.45-.14-.95.19-1.12.74-.18.55.04,1.11.49,1.25.45.14.95-.19,1.12-.74.18-.55-.04-1.11-.49-1.25Z" fill="#3a3631"/>
    <path d="M7.42,17.07s-.07,0-.05.04c.15.29.35.55.43.87.03.14.12.89-.33.6-.12-.08-.23-.33-.31-.45-.22-.33-.42-.98-.86-1.04-.01,0-.06.04-.05.04.56.38.6.71.89,1.16.12.19.3.57.59.47.24-.09.23-.48.2-.68-.05-.37-.25-.73-.5-1.01Z" fill="#3a3631"/>
    <path d="M7.7,17.16s-.05.02-.03.04c.1.09.21.18.28.31.13.24.17,1.1-.56.61-.15-.1-.26-.28-.41-.4-.3-.24-.66-.4-1.04-.47-.1-.02-.06.06-.05.06.51.14.92.32,1.29.71.16.17.37.39.64.31.54-.16.24-.98-.13-1.15Z" fill="#3a3631"/>
    <path d="M7.47,14.54c-.4-.11-1.2.54-1.09,1.28.11.74-.28,1.56-.28,1.56,0,0,.5.04.9-.39.17-.18.27-.52.39-.78.43-.12.96-.34,1.09-.72l.2.42s.16-.28.02-.62c-.2-.49-.84-.64-1.24-.74ZM7.91,15.92c-.09.04-.39.16-.49.19.03-.04.17-.16.21-.19.38-.28.61-.37.75-.47-.11.16-.26.37-.47.47Z" fill="#3a3631"/>
    <path d="M7.87,17.04c-.37,0-.78-.48-.78-.48l-.13.05s.31.96.86.84c.54-.13.49-.41.49-.41v-.23s-.25.23-.44.23Z" fill="#3a3631"/>
    <path d="M11.3,25.5c-.85-.84-1.41-2.08-1.56-2.47-.15-.39-.29-1.07-.53-1.53-.24-.46-.44-.48-.9-.51-.45-.03-3.16.56-3.16.56,0,0-.02.83.39,1.48.38.6,1.32.17,1.55.15.22-.02.98-.52.98-.52,0,0,.07.93.53,1.55.46.62,1.33,1.18,1.63,1.47.29.29.02.41.12.69.1.28.85.4,1.26.5.41.1.93-.14.99-.19.34-.3-.46-.33-1.31-1.17Z" fill="#3a3631"/>
    <path d="M5.11,18.42s-.01.83.26,1.22c.27.39.63.72.65.96.02.23.09.9.09.9l1.79-.43-.07-.82s-2.39-1.07-2.71-1.82Z" fill="#3a3631"/>
    <g>
      <path d="M11.36,19.31c-.19-.19-.45-.34-.58-.41-.23-.11-.68-.23-.73.27-.05.5-.02,1.34-.02,1.34,0,.14.04.25.1.34.23.04.62.08.86-.03.35-.16.41-.43.39-1.05,0-.17-.01-.32-.02-.47Z" fill="#3a3631"/>
      <path d="M11.38,19.77c.02.62-.04.9-.39,1.05-.24.11-.64.07-.86.03.21.3.7.31,1.05.13.45-.24.4-.8.43-1.19.01-.17-.1-.34-.25-.49,0,.14.02.3.02.47Z" fill="#3a3631"/>
    </g>
    <path d="M10.02,19.55c0-.07.02-.12,0-.19-.28.09-.71.31-.88.32-.23.02-1.93.21-1.93.21,0,0-.57-1.71-1.12-2.05-.73-.45-1.13.3-.95,1,.12.47.57,1.05,1.43,1.93.12.13.49.04.7.05.66.05,1.72-.46,2.04-.49.42-.04.91.21,1.11.2.2,0,.43-.24.55-.57.12-.34-.45-.51-.95-.41Z" fill="#3a3631"/>
    <path d="M7.43,19.6c-.19-.16-.56-1.1-.78-1.48-.37-.65-.96-.41-.96-.41,0,0,.46,0,.76.53s.76,1.65.76,1.65l.78-.09.16-.32s-.54.28-.73.12Z" fill="#3a3631"/>
    <g>
      <path d="M12.68,15.42s-.31,1.03-.38,1.37c-.06.24-.03.76-.01,1.03.13-.31.31-.78.4-1.19.08-.38.25-.92.38-1.31-.14-.08-.32-.08-.38.1Z" fill="#3a3631"/>
      <path d="M13.06,15.32c-.13.39-.29.93-.38,1.31-.09.41-.27.88-.4,1.19,0,.1.01.17.01.17,0,0,.37-.66.47-.98.1-.33.41-1.23.45-1.44.02-.09-.06-.18-.16-.24Z" fill="#3a3631"/>
    </g>
    <path d="M12.16,16.32s-.34.75.03.53c.37-.21.39-.73.56-.82.2-.1.26-.38.26-.38,0,0-.31.06-.44.13-.12.07-.41.54-.41.54Z" fill="#3a3631"/>
    <path d="M12.71,15.98c-.12.08-.2.34-.05.47-.24.09-.14.24-.08.28-.19.07-.1.21-.03.25.29.13.51-.16.59-.33.08-.16.15-.49,0-.65,0,0-.11-.24-.43-.03Z" fill="#3a3631"/>
    <g>
      <path d="M11.05,24.9c-.37-.41-.62-.78-.76-1.25-.28.17-.21.69-.21.69,0,0-.25-.1-.52-.16.07.21.18.57.18.57,0,0-.09-.01-.34-.07-.25-.05-.48.17-.48.17.09.01.17.04.26.08.23-.07.46-.05.65.13.27.26.32.67.5.98.2.35.46.39.83.45.23.04.42.14.64.2.44.11.71-.19,1.1-.27-.01-.1-.07-.2-.14-.3-.17-.25-1.36-.86-1.7-1.24Z" fill="#3a3631"/>
      <path d="M11.79,26.71c-.22-.06-.42-.16-.64-.2-.38-.06-.63-.1-.83-.45-.18-.31-.23-.72-.5-.98-.19-.18-.42-.2-.65-.13.29.13.59.42.84.85.16.26.05.69.59.85.53.17,1.38.53,1.91.25.31-.16.4-.31.38-.45-.39.08-.66.38-1.1.27Z" fill="#3a3631"/>
    </g>
    <path d="M11.18,24.98c-.23.16-.45.3-.72.37-.11.03-.23.03-.35.04.08-.06.14-.12.19-.17.11-.11.21-.24.29-.38.12-.11.19-.25.17-.39,0-.04-.07-.06-.08-.01-.07.29-.4.48-.67.57-.17.06-.42.06-.59.09-.03,0-.04.07.1.08.23.02.56-.02.82-.16-.02.03-.2.22-.59.39-.07.03-.02.07.05.09.46.12,1.15-.14,1.45-.43.04-.04-.01-.12-.07-.09Z" fill="#3a3631"/>
    <g>
      <path d="M7.55,20.99c-.47.12-1.65.13-2.15.12,0,.24,0,.59,0,.93-.02.58-.19,1.11.63,1.42.72.27,1.55.46,1.91,1.06.09-.14.16-.4-.11-.77-.18-.25-.67-.31-.67-.31,0,0,.28-.17.67-.04,0-.47-.21-.73-.21-.73,0,0,.35-.18.84-.84.07-.1.16-.37.47-.4.29-.04.39.29.39.29,0,0,.22-.22-.03-.61-.25-.39-.78-.36-1.73-.12Z" fill="#3a3631"/>
      <path d="M6.01,23.46c-.82-.31-.65-.84-.63-1.42.01-.34,0-.69,0-.93-.15,0-.24,0-.24,0,0,0-.39.94-.33,1.45.07.55.41.99,1.27,1.24,1.28.37,1.72.85,1.72.85,0,0,.06-.04.11-.12-.36-.6-1.19-.79-1.91-1.06Z" fill="#3a3631"/>
    </g>
    <path d="M6.07,21.87s.33.11.74.75c.23.36.62.53.62.53,0,0-.06-.28-.19-.52-.19-.35-.58-.55-.58-.55,0,0,.38-.04.8-.18.41-.14.95-.65.95-.65,0,0-.62.27-1.17.44-.57.17-1.17.18-1.17.18Z" fill="#3a3631"/>
    <path d="M9.17,22.05l-.41-.24c.03.47.41.24.41.24Z" fill="#3a3631"/>
  </g>
  <g>
    <g>
      <path d="M36.85,33.15c-1.25-.07-2.17-.3-2.17-.3,0,0,.06.13-.09.47-.16.34-.62.54-2.28.89-1.26.27-2.5-.2-3.02-.44-.17.32-.14.67.21.88.2.12.44.19.66.27.32.12.65.23.98.31.62.14,2.51-.05,3.05-.22.63-.19,1.03-.5,1.21-1.33.38.04,2.05.21,2.93.15.59-.04,1.53-.18,1.79-.82.09-.23.04-.51-.04-.77-.71,1.06-2.04.97-3.23.9Z" fill="#3a3631"/>
      <g>
        <path d="M39.44,31.12c-.23-.2-1.68-.66-2.37-.68-.62-.02-1.3-.05-1.9.12-.55.15-.98.59-1.37.99-.2.21-.39.43-.54.67-.32-.1-.66-.16-1-.11-.54.07-1.11.37-1.59.61-.4.2-.86.44-1.18.77.47.2,1.39.52,2.11.41,1.01-.15,2.26-.37,2.42-.71.16-.35-.1-.75-.1-.75,0,0,.72-.22,1.28-.08.56.14,2.11.51,3.03.22.58-.18,1.18-.67,1.56-1.01-.09-.17-.21-.33-.36-.46Z" fill="#3a3631"/>
        <path d="M39.8,31.57c-.37.34-.98.82-1.56,1.01-.92.29-2.47-.08-3.03-.22-.56-.14-1.28.08-1.28.08,0,0,.26.41.1.75-.16.35-1.42.56-2.42.71-.72.11-1.64-.22-2.11-.41-.05.05-.09.1-.13.16-.03.04-.06.09-.08.13.52.24,1.76.7,3.02.44,1.66-.35,2.12-.54,2.28-.89.16-.34.09-.47.09-.47,0,0,.92.22,2.17.3,1.19.07,2.52.17,3.23-.9-.03-.1-.06-.2-.1-.28-.05-.14-.11-.27-.18-.4Z" fill="#3a3631"/>
      </g>
    </g>
    <path d="M32.3,32.44c-.45-.03-.95.38-1.48.71-.53.33.03.75.66.43.63-.32.59-.23,1.27-.43.68-.2.47-.65-.45-.71Z" fill="#3a3631"/>
    <path d="M37.17,30.98c-.39-.31-1.35-.51-1.91-.21-.41.22-1.04,1.01-.47.97s.53-.17,1.32-.25c.79-.08,1.46-.2,1.07-.51Z" fill="#3a3631"/>
    <path d="M38.46,31.19c-.21-.07-.66.19-.82.43-.16.23.17.12.67.07s.96-.23.15-.5Z" fill="#3a3631"/>
  </g>
  <g>
    <path d="M11.22,33.93c-.36,0-.53.24-.56.45-.03.2.55.42,1.14.24.59-.17.32-.67-.57-.69Z" fill="#3a3631"/>
    <path d="M9.69,34.45c-.15-.04-.53.21-.39.3s.4.12.52,0,.16-.23-.13-.3Z" fill="#3a3631"/>
    <path d="M.42,26.6c-.15-.04-.53.21-.39.3s.4.12.52,0c.12-.12.16-.23-.13-.3Z" fill="#3a3631"/>
    <path d="M4.07,32.87c-.19-.03-.53.1-.44.22.09.12.24.12.52.04.28-.08.31-.21-.08-.27Z" fill="#3a3631"/>
    <path d="M2.51,32.28c-.37-.1-.68-.15-.97.06-.36.26.12.44.87.35.75-.09.48-.32.11-.42Z" fill="#3a3631"/>
    <path d="M5.63,31.58c-.7-.58-1.64-.06-1.64-.06,0,0-.26-.26-.37-.32-.64-.32-1.21.02-1.25.47-.04.44.52.52.93.61.32.07.69-.16.69-.16,0,0,.07.46.94.49.88.03,1.2-.61.7-1.03Z" fill="#3a3631"/>
    <path d="M4.93,31.55c-.31-.04-.59.03-.67.28-.09.25.49.2.9.16.41-.04.48-.36-.22-.44Z" fill="#3a3631"/>
    <path d="M3.06,31.21c-.24,0-.43.17-.43.35s.43.04.66,0c.23-.04.32-.33-.23-.35Z" fill="#3a3631"/>
    <path d="M10.68,32.72c-.25.01-.63.39-.32.57.32.18,1.34.46,1.5.31s-.06-.94-1.18-.88Z" fill="#3a3631"/>
    <path d="M1.44,25.61c-.25.01-.63.39-.32.57.32.18,1.34.46,1.5.31s-.06-.94-1.18-.88Z" fill="#3a3631"/>
    <path d="M14.7,34.83c-.35.08-.74.4,0,.43.74.03.35-.51,0-.43Z" fill="#3a3631"/>
    <path d="M28.28,30.76c-.35.08-.74.4,0,.43.74.03.35-.51,0-.43Z" fill="#3a3631"/>
    <path d="M15.95,34.26c-.59.03-.73.58.17.59.9,0,.74-.65-.17-.59Z" fill="#3a3631"/>
    <path d="M2,24.67c-.59.03-.73.58.17.59.9,0,.74-.65-.17-.59Z" fill="#3a3631"/>
    <path d="M27.34,31.61c-.59.03-.73.58.17.59.9,0,.74-.65-.17-.59Z" fill="#3a3631"/>
    <path d="M43.27,31.61c-.59.03-.73.58.17.59.9,0,.74-.65-.17-.59Z" fill="#3a3631"/>
    <path d="M16.72,32.86c-.23.03-.42.34.14.31s.28-.36-.14-.31Z" fill="#3a3631"/>
    <path d="M29.33,29.45c-.23.03-.42.34.14.31.56-.02.28-.36-.14-.31Z" fill="#3a3631"/>
    <path d="M3.97,27.27c-.87.07-1.35.43-1.31.94.04.51,1.42.22,2.13.08s.9-1.16-.81-1.02Z" fill="#3a3631"/>
    <path d="M41.69,29.09c-1.02.42-1.77.77-1.26,1.21.51.43.97.38,2.13.32,1.16-.05,1.59.21,1.65-.6.04-.58-1.42-1.38-2.51-.93Z" fill="#3a3631"/>
  </g>
  <g>
    <path d="M44.14,13.75c-.64.26-1.5,1.6-1.89,2.3-.39.7-1.15,1.75-.58,2.6.57.85,2.73,1.05,3.37.63.78-.51,1.31-.91,1.2-2.69s-.84-3.36-2.1-2.84Z" fill="#3a3631"/>
    <path d="M44.38,14.24c-.48-.03-.63.27-1.42,1.54-.79,1.27-1.42,1.94-.78,2.36.64.42,1.73.44,2.13,0s.96-3.84.07-3.9Z" fill="#3a3631" opacity=".5"/>
    <path d="M44.12,14.87c-.37.05-.46.49-.76,1.16s-.27,1.46.25.93c.52-.53,1.28-2.2.51-2.08Z" fill="#3a3631"/>
  </g>
  <g>
    <path d="M14.71,22.13c-.02-.07-.13-.03-.13.01-.52.12-.91.46-.97.86-.07.47.28.9.85,1.1.54.19,1.23.26,1.71-.05.45-.29.55-.76.31-1.15-.3-.49-1.06-.78-1.77-.77ZM16.28,23.86c-.38.37-.98.39-1.54.25-.57-.14-1.01-.47-1.05-.93-.04-.43.33-.82.85-.99-.03.05-.05.1-.03.15,0,.02.03.02.03,0,0-.03,0-.05.01-.08.01-.03.01-.06.03-.08.04.02.08.02.12-.02.02.02.04.03.07.06.03.03.04.05.04.09,0,.01.03.02.04,0,.03-.05-.07-.14-.11-.16.57,0,1.16.23,1.5.58.32.33.38.79.04,1.13Z" fill="#3a3631"/>
    <g>
      <path d="M15.95,24c-.09-.09-.26-.13-.38-.03-.02.01-.03.03-.04.05.02.06.04.12.09.16.09.08.3.32.39.34.03.01.09,0,.15-.01,0-.03,0-.06,0-.09-.04-.16-.11-.32-.2-.41Z" fill="#3a3631"/>
      <g>
        <path d="M16.01,24.51c-.08-.03-.29-.27-.39-.34-.05-.04-.07-.1-.09-.16-.04.07-.02.18.11.32.06.02.14.05.19.1.09.09.17.21.24.18.02,0,.04-.01.06-.01.01-.03.02-.07.03-.11-.06.01-.12.02-.15.01Z" fill="#3a3631"/>
        <path d="M15.84,24.44c-.05-.06-.14-.09-.19-.1.02.02.03.03.05.05.22.2.36.38.36.38,0,0,.05-.07.08-.16-.02,0-.04,0-.06.01-.07.02-.15-.09-.24-.18Z" fill="#3a3631"/>
      </g>
      <path d="M15.62,24.01s.04.07.1.16c.07.12.18.16.18.16,0,0-.09-.17-.14-.24-.05-.07-.14-.09-.14-.09Z" fill="#3a3631"/>
    </g>
    <g>
      <path d="M15.17,24.06s-.06-.01-.11,0c-.13.02-.12.23,0,.37.03.03.06.06.09.08.09-.04.05-.21.05-.28,0-.06-.02-.12-.03-.17Z" fill="#3a3631"/>
      <path d="M15.17,24.06s.03.11.03.17c0,.08.04.25-.05.28.1.08.18.11.18.11,0,0-.07-.18-.06-.31,0-.1-.01-.21-.1-.25Z" fill="#3a3631"/>
    </g>
    <path d="M15.13,24.21s-.05.07-.03.12c.02.05.06.07.06.07,0,0,.03-.06,0-.13l-.03-.07Z" fill="#3a3631"/>
    <g>
      <path d="M16.16,23.75s-.02.04-.01.07c.03,0,.06.02.08.04.06.04.12.15.17.15h.09s0-.05,0-.08c-.02-.14-.23-.28-.33-.18Z" fill="#3a3631"/>
      <path d="M16.23,23.86s-.06-.03-.08-.04c0,.03.02.07.05.1.09.09.25.22.25.22,0,0,.04-.05.04-.14h-.09s-.11-.1-.17-.15Z" fill="#3a3631"/>
    </g>
    <path d="M14.68,24.01s-.14.17-.08.31c.06.14.1.19.1.19,0,0,.11-.13.14-.28.02-.15,0-.24-.16-.22Z" fill="#3a3631"/>
    <path d="M16.64,23.53c-.13-.03-.27-.04-.28.02,0,.06.03.1.18.12s.32.02.32.02c0,0-.08-.14-.21-.17Z" fill="#3a3631"/>
    <path d="M14.74,24.11s-.03.08-.02.13c0,.06.02.09.02.09,0,0,.06-.03.06-.11,0-.08-.06-.12-.06-.12Z" fill="#3a3631"/>
    <path d="M16.42,23.57s.03.04.08.06c.05.02.17.02.17.02,0,0-.13-.1-.25-.08Z" fill="#3a3631"/>
  </g>
  <g>
    <path d="M18.62,20.33s0-.01,0-.02c.05-.01.1-.03.15-.04.1-.02.2-.02.3-.02.04,0,.05-.04,0-.05-.1-.01-.21,0-.31.02-.05,0-.11.02-.16.04,0-.02,0-.04.02-.06.02-.05.06-.09.09-.14.04-.05.02-.07-.02-.04-.07.05-.13.15-.16.23-.03,0-.06.01-.08.03-.03,0-.06-.01-.1-.02-.39-.07-.74-.06-1.18.19-.13.07-.23.16-.32.25-.02.02-.33.25-.27.72.02.16.1.31.16.47.09.21.26.37.58.43.33.06.71.02,1.03-.06.59-.15,1.22-.54,1.21-1.01,0-.4-.43-.75-.94-.92ZM19.12,21.81c-.25.2-.59.35-.96.42-.38.07-.95.11-1.2-.15-.2-.21-.33-.53-.33-.78,0-.29.24-.52.27-.55.08-.07.16-.14.24-.21.09-.06.19-.12.31-.16.3-.11.65-.11.96-.04,0,.01,0,.03,0,.04.03.05.12.04.17,0,.01,0,.03,0,.04.01.35.12.64.33.77.59.15.3,0,.59-.28.82Z" fill="#3a3631"/>
    <g>
      <path d="M16.98,21.88c-.14.03-.22.04-.41.21-.1.09-.18.18-.23.26.02,0,.04,0,.05,0,.06,0,.36-.1.49-.15.1-.03.22-.06.28-.06.03-.04.04-.08.03-.12-.02-.11-.07-.17-.21-.14Z" fill="#3a3631"/>
      <path d="M16.4,22.34s-.03,0-.05,0c-.05.07-.08.12-.08.12,0,0,.35-.13.6-.19.15-.04.25-.09.3-.14-.06,0-.17.03-.28.06-.13.04-.43.14-.49.15Z" fill="#3a3631"/>
    </g>
    <g>
      <path d="M17.43,22.08s-.02.02-.03.04c.02.03.05.08.06.16.01.14.02.32.08.38.03.04.09.05.14.06.05-.13.11-.31.1-.41-.01-.19-.05-.34-.35-.22Z" fill="#3a3631"/>
      <path d="M17.47,22.27c0-.08-.04-.13-.06-.16-.03.08-.05.27,0,.4.05.16.21.38.21.38,0,0,.04-.08.08-.19-.05,0-.11-.02-.14-.06-.05-.06-.07-.24-.08-.38Z" fill="#3a3631"/>
    </g>
    <g>
      <path d="M16.45,21.53c-.23.06-.46.17-.57.22.14,0,.35,0,.5-.02.2-.03.41-.07.55-.13,0-.02-.01-.04-.03-.06-.07-.09-.14-.08-.46,0Z" fill="#3a3631"/>
      <path d="M15.88,21.75s-.06.03-.06.03c0,0,.35.03.6,0,.24-.03.39-.05.48-.1,0,0,.04-.03.03-.08-.14.07-.35.11-.55.13-.15.02-.36.02-.5.02Z" fill="#3a3631"/>
    </g>
    <path d="M16.74,22.19s.1-.01.19-.08c.09-.07.09-.11.09-.11,0,0-.13.02-.18.06-.04.04-.11.13-.11.13Z" fill="#3a3631"/>
    <path d="M17.53,22.14s-.03.12,0,.17.07.15.07.15c0,0,0-.11,0-.17,0-.07-.07-.14-.07-.14Z" fill="#3a3631"/>
    <path d="M16.71,21.56c-.09.03-.45.13-.45.13.17,0,.54-.05.55-.1.02-.05-.02-.06-.1-.03Z" fill="#3a3631"/>
  </g>
  <g>
    <g>
      <path d="M31.37,29.7c-.22.16-.48.15-.48.15,0,0-.05.24-.31.25.04.03.08.08.07.19-.01.11-.12.17-.12.17,0,0-.14.29-.14.47.3-.06.47-.09.47-.09,0,0,.11-.14.22-.13.11.01.16.1.16.1,0,0,.09-.2.2-.18.11.02.16.08.16.08,0,0,.1-.23.24-.2.06.01.09.09.11.18.05-.05.64-.58.26-.97-.4-.41-.84-.04-.84-.04Z" fill="#3a3631"/>
      <path d="M31.85,30.53c-.14-.03-.24.2-.24.2,0,0-.05-.06-.16-.08-.11-.02-.2.18-.2.18,0,0-.05-.09-.16-.1-.11-.01-.22.13-.22.13,0,0-.18.03-.47.09.05-.21.14-.47.14-.47,0,0,.11-.06.12-.17.01-.11-.03-.17-.07-.19,0,0,0,0,0,0,0,0,.05.23-.1.34-.08.2-.18.43-.23.66.34-.04.44-.05.66-.09.14-.19.35-.05.35-.05,0,0,.05-.11.16-.15.06-.02.14,0,.21.02.05-.07.09-.11.14-.13.1-.04.19,0,.19,0-.02-.09-.05-.17-.11-.18Z" fill="#3a3631"/>
    </g>
    <path d="M30.38,30.94c-.07.04-.14.17-.14.17,0,0,.25,0,.36-.02.1-.01.3-.07.3-.07l-.05-.17s-.4.05-.47.09Z" fill="#3a3631"/>
    <path d="M31.07,30.72l.04.2s.02,0,.07.02c.04.02.07.04.07.04l-.02-.15s-.02-.07-.16-.1Z" fill="#3a3631"/>
    <path d="M31.54,30.68c-.05-.02-.06-.02-.06-.02l.02.16s.03,0,.06.01.06.02.06.02v-.12s-.03-.03-.08-.05Z" fill="#3a3631"/>
    <path d="M31.81,30.53l.02.17s.04,0,.07,0c.03,0,.06.01.06.01l-.02-.11s-.03-.09-.13-.07Z" fill="#3a3631"/>
    <path d="M30.52,30.39s-.05.06-.05.06l.05.02c.08-.03.11-.11.11-.11h-.08s0,0-.03.03Z" fill="#3a3631"/>
    <path d="M32.1,30.5c-.09.08-.17.09-.17.09l.02.11s.09-.03.18-.15c.09-.12.12-.23.12-.23,0,0-.1.13-.16.18Z" fill="#3a3631"/>
    <path d="M30.59,30.7s.15-.11.24-.21c.09-.1.1-.2.1-.2,0,0-.11.09-.21.17-.1.09-.13.23-.13.23Z" fill="#3a3631"/>
    <path d="M31.63,30.4s.14-.08.24-.14c.1-.06.18-.15.18-.15,0,0-.2,0-.28.09-.08.09-.14.19-.14.19Z" fill="#3a3631"/>
    <path d="M31.61,30c-.13.06-.23.1-.23.1,0,0,.22,0,.35-.01.13-.02.23-.06.23-.06,0,0-.21-.08-.34-.03Z" fill="#3a3631"/>
  </g>
  <g>
    <g>
      <g>
        <path d="M36.98,31.3s-.21-.02-.26-.14c-.05-.12-.01-.24-.01-.24,0,0-.7-.43-.99-.52-.29-.08-.43-.07-.57.09-.05.06-.11.14-.15.27.01.06.06.18.16.26.13.1.79.54.91.62.04-.03.1-.06.17-.07.16-.02.25.11.25.11,0,0,.07-.06.23-.04.14.01.2.09.2.09,0,0,.13-.05.17-.05.04,0,.13-.02.13-.02,0,0-.1-.11-.15-.18-.04-.07-.08-.18-.08-.18Z" fill="#3a3631"/>
        <path d="M35,30.77s-.01.03-.02.05c-.02.07.01.24.16.39.08.08.48.36.6.43.13.07.22.14.22.14,0,0,.03-.08.1-.14-.12-.08-.79-.52-.91-.62-.1-.08-.14-.2-.16-.26Z" fill="#3a3631"/>
      </g>
      <path d="M37.19,31.51c-.1-.13-.15-.3-.15-.3,0,0-.13.03-.23-.06-.11-.09-.1-.23-.1-.23,0,0-.04.12.01.24.05.12.26.14.26.14,0,0,.04.11.08.18.04.07.15.18.15.18,0,0-.09.01-.13.02-.04,0-.17.05-.17.05,0,0-.05-.07-.2-.09-.16-.02-.23.04-.23.04,0,0-.09-.13-.25-.11-.21.02-.27.2-.27.2,0,0,.08-.11.24-.1.16.02.26.17.26.17,0,0,.1-.06.24-.06.09,0,.21.07.21.07,0,0,.05-.03.21-.08.08-.03.3-.03.3-.03,0,0-.14-.11-.24-.24Z" fill="#3a3631"/>
    </g>
    <path d="M36.91,31.73v.13s.06-.02.2-.07c.12-.04.32-.05.32-.05l-.22-.09s-.17-.01-.3.07Z" fill="#3a3631"/>
    <path d="M36.48,31.69l-.02.16s.05-.03.1-.04c.05-.01.1-.02.1-.02v-.15s-.09-.02-.18.05Z" fill="#3a3631"/>
    <path d="M36.03,31.62c-.03.05-.05.12-.07.16,0,0,.06-.07.13-.08.07-.02.13-.01.13-.01v-.11s-.13-.02-.19.04Z" fill="#3a3631"/>
    <path d="M36.98,31.3s.02.04.04.09c.02.04.03.07.03.07l.06-.07s-.06-.14-.07-.17l-.06.09Z" fill="#3a3631"/>
    <path d="M36.69,31.08c.01.07.04.11.04.11l.04-.07s-.08-.12-.08-.2c0,0-.02.09,0,.16Z" fill="#3a3631"/>
    <path d="M36.61,31.5c-.09,0-.21.04-.21.04,0,0,.1.05.19.04.09-.01.24-.04.24-.04,0,0-.1-.05-.23-.04Z" fill="#3a3631"/>
    <path d="M36.79,31.37s.08.06.11.09c.03.03.08.05.08.05,0,0,0-.05-.06-.1-.05-.05-.12-.04-.12-.04Z" fill="#3a3631"/>
    <path d="M35.23,30.55s.16-.02.23-.04c.07-.02.2-.03.2-.03,0,0-.07-.03-.21-.03-.14,0-.22.1-.22.1Z" fill="#3a3631"/>
    <path d="M36.34,31.3c-.17-.04-.21-.01-.21-.01,0,0,.06.06.17.09.11.03.22.05.22.05,0,0-.07-.1-.19-.13Z" fill="#3a3631"/>
  </g>
</svg>