<?xml version="1.0" encoding="UTF-8"?>
<svg xmlns="http://www.w3.org/2000/svg" xmlns:xlink="http://www.w3.org/1999/xlink" viewBox="0 0 421.55 358.27">
  <defs>
    <linearGradient id="linear-gradient" x1="350.54" y1="256.96" x2="369.13" y2="256.96" gradientUnits="userSpaceOnUse">
      <stop offset="0" stop-color="#dc298d"/>
      <stop offset="1" stop-color="#8b2ed8"/>
    </linearGradient>
    <linearGradient id="linear-gradient-2" x1="59.53" y1="257.4" x2="79.57" y2="257.4" xlink:href="#linear-gradient"/>
    <linearGradient id="linear-gradient-3" x1="78.51" y1="249.8" x2="350.11" y2="249.8" xlink:href="#linear-gradient"/>
  </defs>
  <g isolation="isolate">
    <g id="Hair">
      <g id="Hair-2" data-name="Hair">
        <g>
          <path d="M120.22,116.72S42.16,103.45,0,146.38c0,0,26.54-13.27,64.8-.78,38.25,12.49,95.23,28.89,131.93,8.59,36.69-20.3-3.12-22.64-5.47-22.64l-71.04-14.83Z" fill="#2e3045"/>
          <path d="M64.8,145.6c38.25,12.49,95.23,28.89,131.93,8.59,3.79-2.1,6.72-3.99,9.01-5.72-7.41-3.87-18.43-6.33-30.87,1.82-22.64,14.83-78.84-3.9-117.87-12.49-27.84-6.13-45.75,2.05-53.73,7.24,8.18-3.03,31.15-9.35,61.53.57Z" fill="#1c1a36"/>
        </g>
        <g>
          <path d="M311.84,161.09s-42.42,20.17-111.02,18.79c0,0,62.42-4.15,86.6-21.99,0,0-134.26,50.15-231.82-67.33,0,0,51.66,26.23,78.94,25.48,0,0-25.64-14.41-44.79-27.77-19.27-13.46-54.02-25.88-67.49-28.19,0,0,71.95-6.16,137.55,16.86,0,0-57.7-18.51-76.5-61.71,0,0,26.71,23.95,59.91,29.79,33.14,5.83,58.56,15.93,72.7,27.64,0,0-26.4-25.59-28.04-68.23,0,0,3.77,24.79,26.49,41.23,22.53,16.3,41.55,27.2,48.11,39.06,0,0-17.18-28.41,1.56-84.7,0,0-6.37,38.22,4.3,54.27,10.58,15.9,28.34,40.78,30.32,46.69,0,0-.02-38.09,51.09-75.08,0,0-24.64,31.49-26.58,53.77-1.92,22.01,8.75,39.48,8.31,57.74,0,0-4.53-37.87,32.86-75.06,0,0-19.91,20.73-18.52,45.25,1.37,24.19.07,37.83-5.09,47.63,0,0,25.12-15.5,26.8-44.27,0,0,4.82,30.54-19.14,58.78,0,0,53.73-17.41,73.18,53.36,0,0-34.96-44.82-77.06-31.74l-15.57.39-17.09-30.62Z" fill="#2e3045"/>
          <path d="M298.71,99.64l.79,3.28s1.93-6.05,5.57-14.76c7.01,1.89,13.89,6.33,19.37,11.56-.69-3.62-1.2-7.34-1.4-11.19-4.18-.28-9.5-4.27-14.52-8.21,6.64-14.41,16.76-32.54,29.64-44.01,2.39-2.12,4.28-4.13,5.79-6.04-40.2,31.55-44.73,62.76-45.24,69.38ZM240.04,115.09s-36.21,6.62-56.85,4.55c.73-3.48,1.2-6.74,7.68-9.95,7.28-3.61,16.41-3.19,23.01-7.25-4.68-5.01-11.67-8.66-16.92-13.61,0-.02.02-.04.02-.06,31.94,3.26,65.7,4.59,65.7,4.59l9.56,3.27-.75-2.84c2.36,1.86,4.62,4.08,6.81,6.78,3.55-6.68,8.07-10.49,13.03-12.22-6.63-10.18-16.27-23.95-23-34.07-.82-1.23-1.53-2.61-2.16-4.07l-.45.07s2.83,9.51,5.56,18.07c-4.69.75-9.1,2.24-13.86,1.87,2.12,9.62,5.05,14.5,5.05,14.5-6.55-11.86-25.58-22.76-48.11-39.06-14.17-10.25-20.97-23.74-24.08-32.46l-.33-.03s13.82,35.65,40.9,52.29c-6.38-.55-12.88-.45-18.73.92-1.46-1.79-5.25-6.42-8.49-9.96,6.38,10.5,12.28,16.23,12.28,16.23-14.14-11.71-39.56-21.81-72.7-27.64-23.63-4.16-43.92-17.45-53.7-24.8,4.38,4.66,22.3,21.83,57.36,31.71,27.57,7.77,45.58,15.37,54.32,19.45-1.26.98-2.44,2.05-3.48,3.32-2.67,3.28.66,4.39-4.9,8.9,0,0-22.75-5.21-45.91-11.79,6.02,2.7,10.49,4.31,12.17,4.88-27.44-9.52-56.03-13.99-79.95-15.94,18.06,4.12,50.61,12.02,67.51,19.03,7.79,3.23,22.67,5.79,39.23,7.77-4.33,1.81-9.07,3.07-12.92,4.6-14.97,5.96-9.53,11.85-16.29,23.41-9.86-1.65-16.93-2.93-16.93-2.93,0,0-26.27-14.19-28.68-15.01-.91-.31-4.51-.67-8.98-1.13,16.27,10.45,32.49,19.56,32.49,19.56-23.21.64-63.98-18.21-75.7-23.88,6.6,5.23,39.72,29.77,84.13,32.54-7.07,1.59-14.96,1.34-21,3.82-4.9,2.01-6.81,4.67-13.74,4.96-2.08.08-4.15.1-6.2.09,30.85,21.31,62.46,30.69,90.66,33.9-3.81-1.75-7.49-3.54-10.53-5.76-4.73-3.46-15.55-9.05-17.87-15.06-4.55-11.8,9.11-13.62,15.22-19.68.75-.74,1.32-1.48,1.78-2.19,48.1-1.55,107.31-6.51,140.07,8.12,0,0-18.56-20.4-81.31-17.8Z" fill="#3b597a"/>
          <path d="M150.28,146.29c2.93-8.27,10.45-11.46,16.2-16.78,6.49-6,4.21-11.12,9.05-17.84,4.15-5.74,15.01-10.55,21.39-10.48-7.71-4.39-3.59-8.44,1.72-10.88-.58-.49-1.15-.98-1.69-1.49,0-.02.02-.04.02-.06,1.48.15,2.98.3,4.46.44,1.71-.58,3.36-.98,4.59-1.15,7.87-1.09,15.61-1.53,23.61-1.75,17.7-.5,28.56-1.02,42.12,8.48l-.27-1c.55.44,1.09.89,1.63,1.36,1.49-5.4,7.2-12.23,12.93-14.77-1.13-1.68-2.29-3.4-3.47-5.13-4.37,4.17-9.63,6.98-15.68,7.41-2.09.14-3.99-.19-5.8-.76.81,1.84,1.38,2.82,1.38,2.82-.56-1.01-1.24-2.02-1.98-3.02-4.75-1.67-8.87-4.94-13.86-5.67-7.38-1.08-10.25,5.58-17.59,6.74-8.23,1.3-14.12-6.47-22.75-3.14-5.14,1.99-10.73,7.8-14.7,11.97-6.21,6.52-9.15,6.56-16.59,10.57-10.08,5.44-4.43,9.2-7.43,17.55-2.5,6.95-10.99,9.68-16.51,12.61-7.1,3.77-8.62,6.88-13.51,12.24-2.29,2.52-4.88,4.1-7.67,5.11,6.39,3.03,12.76,5.64,19.07,7.85-.28-3.74.03-7.49,1.34-11.21Z" fill="#618f8f"/>
          <path d="M340.28,114.31c2.44,13.02.44,40.89.44,40.89,5.16-9.79,6.45-23.43,5.09-47.63-1.27-22.35,15.12-41.51,18.04-44.73-.05.05-.09.07-.14.12-.02.02-.04.03-.06.06-1.51,1.36-3.06,3.04-4.63,4.93-10.36,12.55-20.87,34.96-18.73,46.36ZM343.37,171.74l3.74-1.37s.7-.53,1.9-1.45c23.22-28.01,18.51-58,18.51-58-.1,1.61-.27,3.16-.51,4.69.06,26.44-23.63,56.13-23.63,56.13ZM331.32,131.72c.26-2.26.42-4.1.42-4.1l-.02-1.97c-.25,2.34-.36,4.37-.4,6.07ZM171.37,159.03c-57.59-11.34-106.33-59.4-114.54-67.87-.79-.39-1.23-.61-1.23-.61,97.56,117.48,231.82,67.33,231.82,67.33-24.17,17.84-86.6,21.99-86.6,21.99,5.21.1,10.24.07,15.13-.05,69.79-4.91,93.53-33.44,93.53-33.44,0,0-75.28,25.02-138.11,12.65ZM330.17,180.83c-5.23,1.55-9.49,3.14-13.01,4.72l.02.02,15.57-.39c35.36-10.98,65.81,19.02,74.52,28.77-6.13-9.79-32.53-46.34-77.1-33.11ZM153.32,74.52c1.4.54,2.82,1.08,4.29,1.64.13.05.25.1.39.15.09.03.17.06.26.09,29.45,11.08,63.52,11.44,63.52,11.44C135.1,79.19,93.57,29.99,84.56,17.9c15.79,32.67,53.6,50.56,68.76,56.62ZM134.53,116.03c-.66.02-1.33,0-2.01,0,.06.02.12.04.19.06,31.14,8.95,63.55,2.84,63.55,2.84-44.29.56-81.13-22.75-111.84-38.5-25.6-13.13-51.39-18.93-59.52-20.53-1.69.1-2.64.18-2.64.18,13.47,2.31,48.22,14.73,67.49,28.19,19.15,13.37,44.79,27.77,44.79,27.77ZM349.73,25.88c-.68.49-1.33,1-1.98,1.49-17.19,19.35-37.48,60.17-30.75,73.75,3.89,7.86,7.63,19.36,10.11,27.68-9.02-4.89-41.57-19.83-91.79-12.92,0,0,57.62-4.87,94.75,23.49.45-1.38.89-4.57,1.21-7.28-1.36-16.39-9.86-32.56-8.13-52.44,1.93-22.28,26.58-53.77,26.58-53.77ZM259.21,80.02c.71,1.44,1.41,2.8,2.07,4.05,4.87,9.18,18.09,20.72,18.09,20.72-24.15-33.6-21.6-74.71-18.69-93.69-13.14,48.89,1.78,73.6,1.78,73.6-.87-1.57-1.97-3.13-3.25-4.68ZM214.34,70.99l.41.34,18.36,11.53c-33.77-26.4-41.86-61.03-43.65-72.13-1.21-3.87-1.59-6.32-1.59-6.32,1.4,36.38,20.79,60.31,26.47,66.58Z" fill="#1c1a36"/>
        </g>
      </g>
    </g>
    <g id="Face">
      <g id="Face-2" data-name="Face">
        <g>
          <g>
            <ellipse cx="214.31" cy="252.65" rx="165.18" ry="74.18" fill="#003340"/>
            <g>
              <path d="M360.21,287.47c-2.93,2.47-6.16,4.86-9.67,7.15,8.56-24.62,12.26-51.95,11.37-75.32,2.7,2.4,5.11,4.88,7.23,7.43-.08,19.27-3,40.55-8.92,60.73Z" fill="url(#linear-gradient)"/>
              <path d="M59.53,226.68c2.12-2.55,4.55-5.04,7.26-7.45-1.39,23.59,3.34,51.39,12.77,76.34-3.66-2.31-7.03-4.72-10.09-7.22-6.61-20.57-10.05-42.21-9.95-61.68Z" fill="url(#linear-gradient-2)"/>
            </g>
          </g>
          <path d="M169.41,357.73c30.6-4.25,61.64-4.9,92.48-1.9,70.94,6.89,96.19-99.37,86.07-152.85-5.16-27.27-35.55-46.81-61.21-52.88-46.51-11-96.19-11.69-142.94-1.88-25.08,5.34-49.9,22.36-59.66,46.82-20.4,51.09,15.96,172.31,85.26,162.7Z" fill="url(#linear-gradient-3)"/>
          <path d="M84.15,195.03c4.83-12.09,13.33-22.36,23.73-30.3-3.49,4.65-6.4,9.71-8.57,15.14-20.4,51.09,15.96,172.31,85.26,162.7,30.6-4.24,61.64-4.9,92.48-1.9,16.83,1.64,31.09-3.1,42.91-11.98-14.07,18.14-33.28,29.55-58.07,27.14-30.85-3-61.89-2.35-92.48,1.9-69.3,9.62-105.66-111.61-85.26-162.7Z" fill="#a3b6bf" mix-blend-mode="multiply" opacity=".46"/>
          <path d="M277.34,190.53c-41.92-3.26-84.03-3.26-125.94,0-67.22,5.22-90.36,116.33,31.22,132.98,38.57,5.28,84.88,2.52,118.68-18.42,52.93-32.79,34.06-110.05-23.95-114.56Z" fill="#c7d8ea"/>
          <path d="M216.29,324c-11.01,0-22.26-.78-33.43-2.31-63.86-8.75-85.69-43.25-84.83-72.62.88-30.03,23.88-54.41,53.51-56.71,20.81-1.62,41.95-2.44,62.83-2.44h0c20.88,0,42.01.82,62.83,2.44,25.35,1.97,45.63,19.28,51.67,44.11,6.34,26.07-4.86,52.39-28.54,67.06-27.31,16.92-60.77,20.47-84.04,20.47h0Z" fill="#003340"/>
        </g>
        <g mix-blend-mode="screen" opacity=".34">
          <path d="M226.03,163.59c.72,6.36,19.97,9.42,42.64,12.35,22.7,2.73,42.11,4.49,44.37-1.5,2.29-5.83-15.79-18.1-41.53-21.27-25.72-3.26-46.27,4.2-45.48,10.41Z" fill="#a2bfdc"/>
        </g>
      </g>
    </g>
    <g id="Right_Eye" data-name="Right Eye">
      <path id="Right_Eye-2" data-name="Right Eye" d="M284.39,224.7c0,4.18-3.39,7.57-7.57,7.57s-7.57-3.39-7.57-7.57,3.39-7.57,7.57-7.57,7.57,3.39,7.57,7.57Z" fill="#fff"/>
    </g>
    <g id="Left_Eye" data-name="Left Eye">
      <path id="Left_Eye-2" data-name="Left Eye" d="M160.65,224.7c0,4.18-3.39,7.57-7.57,7.57s-7.57-3.39-7.57-7.57,3.39-7.57,7.57-7.57,7.57,3.39,7.57,7.57Z" fill="#fff"/>
    </g>
    <g id="Mouth_O" data-name="Mouth O">
      <g>
        <path d="M221.03,235.29c-3.03,0-13.64-.25-14.92,16.78-.24,3.23,1.21,11.27,1.21,15.91s-2.09,18.82.12,23.7c2.71,5.99,7.52,8.99,14.68,8.99s14.66-5.24,14.68-12.95c.02-8.99-1.36-17.13-1.24-19.74.12-2.48,1.38-11.9.78-16.68-.61-4.78-1.27-16-15.3-16Z" fill="#fff"/>
        <path d="M235.66,246.76c-.2-1.65-.75-4.39-2.46-6.88-3.56-5.19-9.37-5.21-12.05-5.22-2.77,0-7.14-.02-10.59,3.86-2.47,2.78-3.27,6.22-3.55,7.88,4.11,2.29,15.91,7.48,28.65.34Z" fill="#fff"/>
        <path d="M208.21,293.17c.23.49,4.45,9.07,12.95,9.44,8.29.36,12.99-7.42,13.31-7.96-11.12-10.76-21.83-4.85-26.25-1.48Z" fill="#fff"/>
        <path d="M202.36,259.59c.16.33.28.68.39,1.03.11.35.21.71.3,1.07.09.36.16.72.23,1.08.07.36.12.73.17,1.09.2,1.46.26,2.94.24,4.41l-.03,1.1-.08,1.1c-.03.37-.06.73-.11,1.1-.04.36-.09.73-.14,1.09-.11.73-.25,1.45-.4,2.16-.08.36-.17.71-.27,1.07-.1.35-.19.71-.31,1.06-.04-.74-.03-1.47-.02-2.2,0-.73.02-1.45.03-2.18,0-.72.04-1.44.05-2.16l.03-1.08.02-1.08c.02-1.44.04-2.87.03-4.31v-1.08c-.03-.36-.02-.72-.04-1.08-.02-.72-.04-1.45-.09-2.18Z" fill="#fff"/>
        <path d="M239.9,260.89c.2,1.34.32,2.66.42,3.98.1,1.32.18,2.64.24,3.96.06,1.32.12,2.63.15,3.96.02,1.32.07,2.65,0,4-.11-.32-.21-.64-.31-.96-.05-.16-.09-.32-.14-.48l-.12-.49c-.08-.33-.15-.65-.22-.98-.06-.33-.12-.66-.18-.99-.22-1.32-.36-2.66-.42-3.99-.06-1.34-.06-2.68.02-4.01.09-1.34.23-2.67.54-3.99Z" fill="#fff"/>
        <path d="M215.89,230.62c.39-.37.83-.67,1.29-.94.46-.27.94-.49,1.44-.68.99-.37,2.05-.59,3.12-.62,1.07-.03,2.16.13,3.17.5.06.02.13.04.19.07l.19.08c.12.06.25.11.37.17.24.13.48.25.7.4.45.28.87.64,1.23,1.02-1-.33-1.95-.62-2.92-.77-.96-.16-1.92-.22-2.89-.19-.97.02-1.93.14-2.91.31-.98.17-1.95.4-2.97.65Z" fill="#fff"/>
        <path d="M212.61,303.8c.18.12.36.24.54.35.18.12.36.23.55.34.37.22.74.43,1.11.63.74.41,1.5.77,2.26,1.09,1.53.64,3.12,1.08,4.72,1.18,1.6.12,3.19-.16,4.69-.79,1.5-.64,2.87-1.65,4.17-2.79-.24.36-.48.74-.76,1.08-.28.34-.56.69-.88.99-.16.15-.32.31-.48.46l-.52.42c-.09.07-.17.14-.27.2l-.28.18-.28.18c-.09.06-.19.12-.29.17l-.6.31c-.2.1-.41.17-.62.26-.1.04-.21.09-.31.12l-.32.1c-.22.06-.43.14-.65.17-.88.21-1.79.25-2.68.2-1.79-.12-3.51-.7-5.05-1.55-.77-.43-1.5-.92-2.18-1.47-.68-.56-1.32-1.15-1.87-1.84Z" fill="#fff"/>
      </g>
    </g>
    <g id="Mouth_CDGKNSTXYZ" data-name="Mouth CDGKNSTXYZ">
      <path d="M274.69,270.67c-4.42-5.23-11.54-11.93-21.76-14.83-10.46-2.97-13.95.94-31.73.69-19.09-.27-23.31-4.72-34.13-1.64-9.44,2.69-15.9,9.28-19.86,14.39,5.39,6.6,16.47,18.05,32.84,22.08,9.42,2.32,19.6,1.91,22.98,1.8,2.12-.07,9.38-.38,16.49-2.02,16.11-3.7,28.13-13.47,35.16-20.48Z" fill="#fff"/>
      <path d="M198.39,279.36c.72-2.6,2.05-5.71,4.66-8.36,9-9.14,28.36-7.92,35.66,1.97,1.96,2.65,2.75,5.53,3.09,7.83-3.65,1.65-8.69,3.41-43.41-1.44Z" fill="#fff"/>
      <path d="M182.95,255c4.74-2.67,9.42-2.43,13.8-2.16,8.7.55,16.28,1.23,22.81,1.92,12.58-.06,19.6-.71,23.8-1.49,1.25-.23,4.41-.88,8.23.02,2.78.65,4.87,1.88,5.87,2.48,2.57,1.53,4.37,3.27,5.5,4.54-1.47,3.06-3.12,5.12-5.35,7.91-1.72,2.16-12.72,4.88-24.79,4.88-2.8,0-7.61-.16-10.13-.07-3.54.14-26.65.5-36-3.95-2.4-1.14-6.25-3.34-8.64-10.05,1-1.15,2.6-2.74,4.9-4.04Z" fill="#fff"/>
      <path d="M251.28,276.48c.51-.13,2.64-.74,5.12-.11.95.24,1.66.59,2.05.8,2.12.97,3.51,2.52,4.54,3.33-3.73,3.5-9.75,7.94-18.58,10.8-6.44,2.08-11.56,2.22-19.69,2.44-8.34.23-14.82.4-22.93-1.8-4.68-1.27-12.51-3.36-20.43-9.29.71-1.25,2.41-2.92,4.44-4.36,0,0,1.49-1.05,3.3-1.69,5.48-1.93,21.58,2.25,33.3,2.46,8.5.15,25.07-1.6,28.86-2.59Z" fill="#fff"/>
      <path d="M166.53,262.89c-.63,1.07-1.17,2.11-1.56,3.16-.39,1.05-.61,2.11-.61,3.16,0,.53.05,1.05.16,1.58.04.27.13.52.19.79l.13.39c.04.13.09.26.14.39.39,1.05.96,2.08,1.55,3.17-1.1-.6-2.03-1.48-2.74-2.56-.19-.27-.33-.56-.48-.85-.13-.3-.26-.61-.35-.93-.11-.32-.16-.65-.23-.98l-.05-.5c-.02-.17-.01-.34-.02-.5,0-1.35.43-2.67,1.12-3.76.35-.55.75-1.04,1.21-1.48.46-.43.96-.82,1.53-1.09Z" fill="#fff"/>
      <path d="M277.48,265.47c1.09.48,2,1.37,2.6,2.47.6,1.1.87,2.39.78,3.64-.08,1.25-.47,2.45-1.06,3.5-.6,1.04-1.37,1.96-2.32,2.67.37-1.13.79-2.16,1.1-3.2.32-1.03.53-2.06.6-3.07.07-1.02-.03-2.02-.31-3.02-.28-1-.76-1.97-1.38-2.98Z" fill="#fff"/>
      <path d="M203.18,297.86c1.6.35,3.2.62,4.8.83l1.2.16c.4.05.8.08,1.21.13.4.04.8.09,1.2.12l1.21.1c3.22.26,6.43.34,9.66.31l2.42-.07c.4-.01.81,0,1.21-.04l1.21-.08c.8-.05,1.61-.08,2.42-.14.8-.08,1.61-.15,2.41-.21l1.21-.1c.4-.05.8-.1,1.21-.14l2.42-.27c.41-.03.81-.09,1.21-.15.4-.06.8-.12,1.21-.17.81-.1,1.62-.21,2.44-.29-.77.26-1.55.51-2.34.75-.39.12-.78.23-1.18.35-.39.12-.79.23-1.19.32l-2.4.55c-.4.09-.8.18-1.2.26l-1.21.2c-.81.13-1.62.26-2.43.38-.41.07-.82.1-1.22.14l-1.23.12c-1.63.19-3.28.21-4.92.28-3.29.02-6.59-.18-9.84-.69-.81-.13-1.62-.26-2.43-.45-.4-.09-.8-.17-1.2-.27l-1.19-.31c-1.58-.45-3.16-.94-4.64-1.65Z" fill="#fff"/>
    </g>
    <g id="Mouth_A_E_I" data-name="Mouth A,E,I">
      <g>
        <path d="M261.06,271.36c-5.35-11.61-11.35-15.64-16.26-16.93-7.61-2-10.55,3.25-22.5,3.25-13.3,0-17.4-6.09-25.28-3.33-4.02,1.41-9.09,5.2-13.04,16.02,3.86,4.73,11.81,12.95,23.55,15.84,6.76,1.66,14.06,1.37,16.48,1.29,1.52-.05,6.73-.28,11.83-1.45,11.56-2.65,20.17-9.66,25.22-14.69Z" fill="#fff"/>
        <path d="M205.45,277.59s13.3-13.5,31.13,1.03c0,0-18.04,8.14-31.13-1.03Z" fill="#fff" mix-blend-mode="multiply" opacity=".46"/>
        <path d="M195.26,254.92c4.04-2.14,8.09-1.72,9.9-1.55,9.92.95,16.87,1.61,24.02.82,0,0,7.58-.83,15-.39.56.03,1.76.12,3.25.54,2.55.72,4.82,3.44,5.16,4.5-1.05,2.19-2.17,3.55-3.76,5.55-1.24,1.55-9.12,3.5-17.78,3.5-2.01,0-5.46-.12-7.27-.05-2.54.1-19.12.36-25.82-2.83-1.72-.82-4.52-2.63-6.24-7.44.75-.77,1.93-1.8,3.56-2.67Z" fill="#fff"/>
        <path d="M243.37,275.52c.37-.1,1.89-.53,3.67-.08.68.17,1.19.42,1.47.57,1.52.7,2.94,2.13,3.68,2.71-2.67,2.51-7.41,5.37-13.74,7.42-4.62,1.49-8.29,1.59-14.12,1.75-5.98.16-10.63.29-16.44-1.29-3.36-.91-8.63-2.81-14.31-7.06.51-.9,1.39-1.7,2.84-2.73,0,0,1.07-.75,2.37-1.21,3.93-1.38,15.48,1.62,23.88,1.77,6.09.11,17.98-1.15,20.7-1.86Z" fill="#fff"/>
        <path d="M253.79,251.1c.78.39,1.51.87,2.22,1.37.7.52,1.38,1.06,2.03,1.65,1.29,1.18,2.46,2.5,3.46,3.95.25.36.48.73.72,1.11.22.38.45.76.64,1.15l.15.29c.05.1.09.2.14.3.09.2.19.4.28.6.17.41.34.81.48,1.23.58,1.66.89,3.41.87,5.15-.41-1.69-.92-3.31-1.63-4.85-.17-.39-.36-.76-.55-1.14l-.3-.56c-.05-.09-.1-.19-.15-.28l-.16-.27c-.41-.73-.87-1.45-1.35-2.14-.96-1.39-2.03-2.7-3.18-3.96-.58-.63-1.16-1.25-1.78-1.84-.61-.6-1.24-1.19-1.89-1.76Z" fill="#fff"/>
        <path d="M188.39,253.22c-.56.28-1.07.62-1.57.97-.5.35-.97.73-1.43,1.12-.92.78-1.76,1.65-2.55,2.56l-.59.69c-.19.23-.37.48-.56.71l-.28.36c-.1.12-.18.25-.27.37-.18.25-.36.49-.54.74l-.14.18-.13.19-.26.38c-.17.25-.35.5-.53.76-.34.52-.67,1.04-1.05,1.54.08-.3.18-.6.28-.9.1-.3.2-.59.32-.89.13-.29.25-.57.39-.86l.2-.43.1-.21.12-.21c.16-.27.31-.55.47-.82.08-.13.15-.28.25-.4l.27-.39c.18-.26.36-.52.55-.77l.61-.73c.84-.95,1.78-1.82,2.85-2.52.54-.34,1.09-.67,1.67-.91.15-.06.29-.13.44-.18.15-.05.3-.11.45-.15.3-.09.61-.17.93-.2Z" fill="#fff"/>
        <path d="M202.46,290.69c1.67.59,3.37,1.1,5.08,1.54.85.22,1.71.44,2.57.63.43.1.86.19,1.29.28l.65.14.65.12c1.73.32,3.47.6,5.21.78,1.75.18,3.5.29,5.25.32,1.75.04,3.5-.04,5.25-.2l.65-.06c.22-.02.44-.04.65-.07l1.3-.18c.22-.03.43-.07.65-.11l.65-.12.65-.12.64-.15.64-.15.32-.07.16-.04.16-.05c.42-.12.84-.24,1.27-.36l.32-.09.31-.1.62-.21c.42-.14.84-.27,1.24-.44l1.23-.48c.41-.17.8-.37,1.2-.54l.6-.27c.2-.1.39-.21.59-.31l1.18-.61c-.36.25-.73.5-1.1.75-.19.12-.37.25-.56.37l-.58.33c-.39.22-.77.45-1.17.65l-1.2.59c-.4.2-.82.36-1.23.53l-.62.25-.31.13-.32.11c-.42.15-.85.29-1.27.43l-.16.05-.16.05-.32.09-.65.18-.65.18-.66.15-.66.15c-.22.05-.44.1-.66.13l-1.33.22c-.22.04-.44.06-.67.09l-.67.08-.67.08-.67.05-.67.05c-.22.02-.45.04-.67.04l-1.34.04c-.45,0-.9,0-1.34,0-1.79-.03-3.58-.16-5.35-.39-1.77-.24-3.53-.55-5.27-.96l-.65-.15-.65-.17-.65-.17-.64-.18c-.86-.25-1.71-.52-2.55-.8-.84-.3-1.68-.6-2.5-.94-.82-.34-1.64-.69-2.43-1.09Z" fill="#fff"/>
      </g>
    </g>
    <g id="Mouth_U" data-name="Mouth U">
      <g id="Mouth_U-2" data-name="Mouth U">
        <path d="M274.2,276.97c-2.38-4.84-8.44-15.5-20.94-23.63-3.52-2.29-14.8-9.09-30.91-9.56-5.38-.16-17.77-.35-30.72,7.39-13.47,8.05-19.42,19.84-21.44,24.42,6.43,4.29,14.66,8.71,24.69,11.91,4.95,1.58,13.93,4.37,26.03,4.52,9.92.12,17.31-1.59,22.77-2.89,7.59-1.81,18.45-5.24,30.52-12.16Z" fill="#fff"/>
        <path d="M248.32,260.56c1.46.06,4.19.14,7.66-.32,2.04-.27,3.73-.65,4.95-.96-.68-.85-1.72-2.06-3.09-3.41-11.98-11.77-28.24-12.7-33.74-13.01-5.96-.34-20.63-1.18-33.86,8.19-3.59,2.54-6.18,5.2-7.9,7.21.69.28,1.74.67,3.05,1.01,4.58,1.18,8.36.68,9.84.49,7.38-.95,15.44-1.65,17.86-1.82,7.79-.57,14.35.06,17.74.49,5.17.65,10.87,1.85,17.49,2.14Z" fill="#fff"/>
        <path d="M243.26,290.33c3.57-.99,7.35-2.41,7.35-2.41,3.31-1.24,6.08-2.51,8.24-3.57-.5-.35-1.03-.68-1.57-.93-.38-.21-1.07-.55-1.99-.79-2.4-.63-4.46-.03-4.96.11-3.67.99-19.71,2.72-27.93,2.57-11.34-.21-26.93-4.36-32.23-2.45-1.76.63-3.19,1.68-3.19,1.68-.02.01-.03.02-.04.03,1.81.96,4.36,2.23,7.52,3.47,11.88,4.65,22.04,4.88,26.99,4.94,1.1.01,11.89.1,21.81-2.65Z" fill="#fff"/>
        <path d="M211.09,302.12c2.01.18,3.98.33,5.94.43,1.96.1,3.91.17,5.87.15.24,0,.49.01.73,0l.73-.02c.49-.01.98,0,1.46-.03.49-.02.98-.04,1.47-.05h.37s.37-.04.37-.04l.73-.04c.49-.04.98-.03,1.47-.08.49-.04.98-.08,1.48-.11.99-.05,1.98-.19,3-.21-.46.21-.93.4-1.4.59-.47.19-.94.37-1.43.51-.48.14-.97.28-1.46.41-.12.03-.24.07-.37.1l-.37.08-.74.15c-1.99.41-4.02.57-6.04.58-2.03.01-4.05-.18-6.04-.56-1.98-.39-3.95-.94-5.76-1.86Z" fill="#fff"/>
        <path d="M214.75,237.18c.58-.47,1.24-.84,1.91-1.16.67-.32,1.37-.57,2.08-.77,1.43-.39,2.93-.58,4.43-.49,1.5.08,2.99.43,4.36,1.07.09.04.17.08.26.12l.25.14c.16.09.33.18.49.28.32.21.64.4.93.64.6.45,1.13.99,1.59,1.57-1.36-.57-2.65-1.09-3.97-1.42-1.32-.34-2.65-.54-4-.61-1.35-.08-2.71-.03-4.09.09-1.38.12-2.77.32-4.22.56Z" fill="#fff"/>
      </g>
    </g>
    <g id="Mouth_R" data-name="Mouth R">
      <g id="Mouth_R-2" data-name="Mouth R">
        <path d="M162.46,269.13c4.94,5.84,8.23,10.69,19.65,13.94,11.68,3.32,15.58-1.05,35.44-.77,21.32.3,26.04,5.27,38.11,1.83,10.55-3,18.01-10.2,22.43-15.91-10.97-9.48-20.72-12.52-28.05-13.36-13.05-1.49-16.25,4.25-33.26,3.98-16.2-.26-19.83-5.58-31.27-3.43-10.59,1.99-18.27,8.57-23.06,13.74Z" fill="#fff"/>
        <path d="M257.72,284.61c-5.34,1.93-9.65,1.08-15.81.27-4.2-.55-14.08-1.86-23.67-1.78-6.02.05-12.69.65-20.12,1.33-5.42.49-8.94.92-13.68-.12-4.81-1.05-8.48-3.1-10.86-4.69,2.15-1.4,5.35-3.24,9.49-4.77,2.06-.76,6.54-2.25,18.3-3.2,2.49-.2,7.52-.55,17.35-.6,9.75-.05,14.62-.07,19.52.36,14.41,1.27,21.29,4.29,26.01,7.25.62.39,1.12.73,1.45.95-1.69,1.6-4.33,3.68-7.99,5Z" fill="#fff"/>
        <path d="M250.77,254.3c-14.47-2.49-17.92,4.37-33.5,3.86-14.54-.48-19.36-6.72-31.93-3.49-4.69,1.2-8.27,3.16-10.54,4.6.77.92,1.77,1.95,3.37,3.18,5.47,4.22,11.46,4.87,14.64,5.18,16.05,1.56,30.97,1.33,30.97,1.33,0,0,23.89-.37,35.1-4.49,3.77-1.39,6.6-3.71,6.6-3.71.36-.3.64-.53.87-.72-3.35-1.95-8.68-4.55-15.57-5.73Z" fill="#fff"/>
        <path d="M205.8,244.76c.23.16.47.31.71.45.23.15.47.29.71.44.48.28.95.56,1.44.82.96.53,1.94,1,2.94,1.41,1.98.83,4.05,1.4,6.12,1.54,2.07.15,4.15-.21,6.09-1.03,1.94-.84,3.72-2.14,5.42-3.63-.31.47-.62.96-.98,1.41-.37.44-.72.9-1.15,1.29-.21.2-.41.41-.63.6l-.68.54c-.12.09-.22.19-.35.27l-.36.24-.37.24c-.12.08-.24.16-.37.22l-.77.4c-.26.13-.54.22-.81.34-.14.05-.27.11-.41.16l-.42.12c-.28.08-.56.18-.85.23-1.14.27-2.32.33-3.48.26-2.32-.15-4.56-.91-6.55-2.01-1-.56-1.95-1.19-2.83-1.91-.88-.72-1.72-1.5-2.43-2.39Z" fill="#fff"/>
        <path d="M206.91,291.83c2.01.18,3.98.33,5.94.43,1.96.1,3.91.17,5.87.15.24,0,.49.01.73,0l.73-.02c.49-.01.98,0,1.46-.03.49-.02.98-.04,1.47-.05h.37s.37-.04.37-.04l.73-.04c.49-.04.98-.03,1.47-.08.49-.04.98-.08,1.48-.11.99-.05,1.98-.19,3-.21-.46.21-.93.4-1.4.59-.47.19-.94.37-1.43.51-.48.14-.97.28-1.46.41-.12.03-.24.07-.37.1l-.37.08-.74.15c-1.99.41-4.02.57-6.04.58-2.03.01-4.05-.18-6.04-.56-1.98-.39-3.95-.94-5.76-1.86Z" fill="#fff"/>
        <path d="M158.96,262.39c-.66,1.11-1.22,2.19-1.62,3.29-.41,1.09-.63,2.2-.64,3.29,0,.55.05,1.1.16,1.64.04.28.13.54.2.82l.13.41c.04.14.09.27.15.41.41,1.09,1,2.16,1.62,3.3-1.15-.62-2.12-1.54-2.85-2.67-.19-.28-.34-.59-.5-.89-.13-.31-.27-.63-.37-.97-.11-.33-.17-.67-.23-1.02l-.05-.52c-.02-.17-.01-.35-.02-.52,0-1.41.45-2.78,1.17-3.91.36-.57.79-1.08,1.26-1.54.48-.45,1-.85,1.6-1.13Z" fill="#fff"/>
        <path d="M284.08,262.58c1.13.5,2.08,1.43,2.71,2.57.63,1.14.91,2.49.81,3.79-.08,1.3-.49,2.55-1.11,3.64-.62,1.09-1.43,2.04-2.42,2.78.39-1.18.82-2.25,1.14-3.33.33-1.07.55-2.14.62-3.2.07-1.06-.03-2.1-.33-3.14-.29-1.04-.79-2.05-1.43-3.1Z" fill="#fff"/>
      </g>
    </g>
    <g id="Mouth_th" data-name="Mouth th">
      <g id="Mouth_th-2" data-name="Mouth th">
        <path d="M275.42,274.58c-4.28-5.06-11.17-11.55-21.06-14.36-10.13-2.88-13.5.91-30.72.67-18.48-.26-22.57-4.56-33.03-1.58-9.14,2.6-15.39,8.98-19.22,13.93,5.22,6.39,15.94,17.48,31.79,21.37,9.12,2.24,18.97,1.85,22.25,1.75,2.05-.07,9.08-.37,15.96-1.95,15.6-3.58,27.23-13.04,34.03-19.83Z" fill="#fff"/>
        <path d="M202.54,291.25c-4.92-6.18,3.54-26.46,16.8-29.16.99-.2,4.18-.75,8.07.49,9.25,2.94,15.6,13.75,16.8,27.35-4.56.61-10.69,1.35-17.96,1.98-14.48,1.24-21.76,1.81-23.72-.66Z" fill="#fff"/>
        <path d="M186.62,259.41c2.22-1.5,4.08-2.33,5.93-3.16,3.36-1.5,6.04-2.28,6.65-2.45,1.02-.29,3.86-1.06,9.66-1.65,1.58-.16,6.07-.58,12.41-.55,4.71.02,8.85.04,14.37.9,4.04.63,7.27,1.47,9.57,2.06,4.91,1.27,6.85,1.87,8.57,2.6,0,0,2.85,1.21,5.88,3.22,1.04.69,1.93,1.36,2.86,2.31.7.71,1.21,1.38,1.56,1.86-1.34.65-3.4,1.53-6.01,2.2-3.66.94-6.74,1.02-8.79.99-9.99-.18-16.92-3.74-27.02-3.95-9.65-.2-17.4,2.75-26.91,2.75-1.58,0-4.55-.08-8.13-1.1-2.3-.65-4.12-1.48-5.35-2.12,1.17-1.17,2.74-2.55,4.75-3.91Z" fill="#fff"/>
        <path d="M243.56,285.98c.48-.19,2.55-1.02,5.44-1.65.78-.17,2.9-.6,5.68-.74,1.7-.09,3.35-.17,5.52.16,1.36.21,2.48.51,3.28.76-3.61,3.39-10,7.25-18.55,10.01-6.23,2.02-11.19,2.15-19.06,2.37-8.08.22-14.35.39-22.19-1.74-4.53-1.23-11.66-3.79-19.32-9.53.54-.33,1.34-.74,2.37-1.05,1.3-.39,2.44-.44,3.54-.41,3.06.08,5.43.78,5.46.79,4.53,1.33,17.11,3.01,26.25,3.25.79.02,15.02.33,21.58-2.22Z" fill="#fff"/>
        <path d="M176.84,257.17c-.74.46-1.44.96-2.11,1.49-.67.53-1.3,1.09-1.89,1.67-1.19,1.17-2.23,2.47-3.07,3.89-.43.7-.8,1.44-1.12,2.2-.18.38-.31.77-.46,1.15-.07.19-.13.39-.2.59-.07.2-.14.39-.19.6-.47,1.61-.77,3.28-1.01,5.02-.37-1.71-.4-3.51-.12-5.28.14-.88.36-1.76.67-2.6.14-.43.34-.84.51-1.25.21-.4.41-.81.64-1.19.92-1.56,2.16-2.92,3.58-4.01.71-.54,1.47-1.02,2.27-1.41.4-.2.81-.37,1.22-.52.42-.15.84-.28,1.27-.36Z" fill="#fff"/>
        <path d="M269.76,258.26c.39,0,.76.13,1.12.26.36.13.71.3,1.05.48.68.37,1.31.81,1.91,1.29,1.19.98,2.22,2.14,3.09,3.4.86,1.26,1.58,2.63,2.11,4.05.54,1.42.92,2.89,1.07,4.4-.74-1.33-1.41-2.64-2.13-3.91-.71-1.28-1.47-2.51-2.28-3.7-.82-1.19-1.69-2.32-2.66-3.39-.48-.53-.99-1.05-1.53-1.54-.27-.25-.55-.48-.83-.72-.14-.12-.29-.23-.44-.33-.15-.11-.3-.21-.48-.28Z" fill="#fff"/>
        <path d="M213.26,245.78c1.48-.77,3.1-1.26,4.73-1.61,1.64-.34,3.31-.51,4.98-.52.84-.02,1.68.05,2.51.1.42.05.83.1,1.25.16.21.03.42.05.62.09l.62.13c1.64.32,3.24.89,4.72,1.63-1.67-.15-3.27-.4-4.88-.48-.8-.08-1.61-.08-2.41-.14l-1.21-.02c-.4-.02-.8-.01-1.21,0-1.61,0-3.22.07-4.83.19-1.62.11-3.23.27-4.89.46Z" fill="#fff"/>
        <path d="M213.26,302.12c1.74.29,3.45.56,5.16.78,1.71.22,3.41.37,5.11.44.42.01.85.03,1.27.03.21,0,.42,0,.64,0h.64c.85-.03,1.69-.1,2.54-.18.85-.09,1.68-.23,2.53-.4.84-.17,1.67-.41,2.53-.66-.36.26-.72.52-1.11.74-.38.24-.79.42-1.19.61-.82.36-1.68.65-2.55.85-.87.21-1.76.35-2.66.43-.22.03-.45.03-.67.05-.22.02-.45.02-.67.03-.45.01-.9,0-1.34,0-1.79-.07-3.56-.34-5.28-.78-1.71-.45-3.4-1.04-4.94-1.92Z" fill="#fff"/>
      </g>
    </g>
    <g id="Mouth_ch_sh" data-name="Mouth ch sh">
      <g id="mouth_ch_sh" data-name="mouth ch sh">
        <path d="M282.26,271.31c-4.71-5.57-7.85-10.2-18.74-13.29-11.14-3.16-14.86,1-33.81.74-20.34-.28-24.84-5.02-36.36-1.74-10.06,2.87-17.18,9.73-21.4,15.18,10.12,5.81,17.59,8.7,24.23,10.19,9.17,2.07,16.3,2.1,30.56,2.15,13.13.05,19.7.08,27.44-1.6,11.83-2.57,22.1-7.69,28.08-11.61Z" fill="#fff"/>
        <path d="M191.39,256.54c3.43-1.59,9.77-3.99,34.14-4.14,4.68-.03,10.55.02,17.76.52,11.58.79,15.75,1.97,19.08,3.33,4.05,1.65,7.25,3.53,9.29,5.05-1.88,1.34-5.03,3.34-9.06,4.55-6.38,1.92-11.18,1-19.66.4-6.56-.46-11.23-.44-17.76-.4-19.21.1-25.69,2.97-35.69-1.38-2.63-1.14-4.44-2.28-5.72-3.16,1.58-1.17,4.05-3.12,7.62-4.77Z" fill="#fff"/>
        <path d="M253.31,269.12c3.04.29,8.75.92,13.97,4.94,1.74,1.34,2.74,2.43,3.51,3.4-2.62,1.34-6.36,2.88-10.86,4.34-1.85.6-6.27,1.95-13.62,3.02-2.48.36-9.97,1.37-21.16,1.2-9.62-.14-19.03-.35-30.65-3.61-5.48-1.54-9.83-3.36-12.43-4.94.53-.62.78-.85,1.93-1.79,0,0,2.69-2.21,6.29-3.53,10.69-3.93,33.48-4.28,33.48-4.28,0,0,14.23-.22,29.54,1.26Z" fill="#fff"/>
        <path d="M211.91,245.94c.54-.21,1.09-.39,1.64-.55.55-.17,1.11-.31,1.67-.45.56-.14,1.12-.25,1.69-.37.56-.11,1.13-.21,1.7-.3,2.27-.36,4.58-.55,6.89-.58,2.31-.05,4.62.13,6.91.47.57.1,1.14.2,1.71.3.57.12,1.13.27,1.68.41l.84.22c.28.08.55.18.82.27.55.19,1.09.38,1.62.59-.58-.04-1.15-.1-1.71-.17-.28-.03-.56-.07-.85-.1l-.85-.06-.85-.07c-.28-.02-.56-.06-.84-.07-.57-.03-1.13-.06-1.69-.1-2.25-.11-4.51-.17-6.76-.13-2.25.03-4.51.11-6.77.24-2.26.13-4.53.3-6.82.47Z" fill="#fff"/>
        <path d="M213.02,295.59c1.12.34,2.24.62,3.36.87,1.12.24,2.25.45,3.38.61,2.26.33,4.53.5,6.79.5,2.27,0,4.53-.18,6.79-.52,2.26-.35,4.49-.86,6.76-1.46-2.02,1.19-4.23,2.06-6.51,2.66-2.29.57-4.66.88-7.03.87-2.37,0-4.74-.29-7.03-.86-1.15-.29-2.27-.64-3.37-1.08-.55-.22-1.08-.46-1.61-.72-.53-.26-1.04-.54-1.53-.87Z" fill="#fff"/>
        <path d="M162.77,273.09c.05.25.14.48.24.69.1.22.22.42.33.62.13.19.25.39.39.57.07.09.13.18.2.27.08.09.15.17.22.26.59.69,1.25,1.33,1.94,1.96.17.16.35.31.53.46.18.16.34.32.53.47.37.3.71.63,1.08.94.18.15.37.31.55.48.18.16.36.34.54.5.37.33.73.67,1.07,1.07-.5-.1-.99-.25-1.47-.42-.24-.08-.47-.19-.7-.29-.23-.1-.46-.21-.68-.33-.11-.06-.23-.11-.33-.18l-.32-.2c-.22-.13-.43-.27-.64-.41-.42-.29-.81-.61-1.2-.95-.75-.69-1.43-1.5-1.92-2.45-.06-.12-.12-.24-.17-.36-.05-.12-.1-.25-.14-.38-.1-.25-.15-.51-.2-.77-.04-.27-.06-.53-.04-.8,0-.13.03-.27.05-.39.04-.13.07-.26.13-.37Z" fill="#fff"/>
        <path d="M292.08,273.09c.08.53.02,1.06-.09,1.58-.05.26-.13.51-.2.77-.08.25-.17.5-.27.74-.4.97-.96,1.86-1.6,2.68-.63.82-1.38,1.55-2.17,2.2-.41.32-.83.61-1.26.89-.45.26-.9.51-1.39.71.27-.46.57-.87.87-1.27.29-.41.6-.8.91-1.19.6-.79,1.23-1.53,1.82-2.3.6-.76,1.19-1.52,1.76-2.31.14-.2.28-.4.42-.6.13-.2.28-.4.41-.61.28-.41.54-.83.79-1.29Z" fill="#fff"/>
      </g>
    </g>
    <g id="Mouth_E" data-name="Mouth E">
      <g id="Mouth_E-2" data-name="Mouth E">
        <path d="M274.11,258.67c-4.74.89-12.28,2.07-21.61,2.41-14.64.53-17.42-1.58-34.26-1.85-16.34-.26-18.72,1.65-32.15.56-9.7-.79-17.55-2.54-22.66-3.89,2.28,4.87,14.1,29.15,34.11,34.35,6.5,1.69,19.02,1.76,22,1.82,3.07.06,13.3.27,19.03-.64,17.9-2.84,30.21-22.69,35.53-32.76Z" fill="#fff"/>
        <path d="M266.7,259.86c-1.26.16-8.82,1.1-13.9.9-1.51-.06-3.22-.19-3.22-.19-2.82-.21-4.9-.48-5.5-.56-13.47-1.73-20.21-2.59-26-2.71-5.07-.11-11.68.53-24.95,1.36-2.21.14-4.68.29-8.08.25-6.78-.09-12.29-.94-15.93-1.66h0c1.43,2.56,4.17,6.66,8.9,9.74,2.52,1.64,4.82,2.49,7.03,3.15,8.9,2.67,15.85,2.27,34.18,2.44,7.01.06,7.01.13,9.7.07,8.3-.19,14.82-.39,22.53-2.88,5.38-1.74,8.36-3.63,10.36-5.18,2.2-1.7,3.81-3.43,4.88-4.73Z" fill="#fff"/>
        <path d="M258.67,280.25c-2.8-2.28-5.02-3.59-6.4-4.32-.57-.3-1.16-.59-1.97-.8-2.38-.64-4.41-.03-4.9.11-3.63,1-19.5,2.77-27.63,2.61-11.22-.21-26.64-4.43-31.89-2.48-1.74.64-3.16,1.7-3.16,1.7-1.27.95-2.22,1.76-2.91,2.56,1.56,1.91,4.04,4.53,7.61,6.81,2.19,1.4,4.79,2.67,9.66,4.07,3.73,1.07,8.73,2.47,15.11,2.94,1.52.11,3.08.16,7.11.11,10.44-.14,15.66-.21,19.09-.83,4.16-.76,11.84-3.14,20.28-12.48Z" fill="#fff"/>
        <path d="M211.71,252.7c.57-.5,1.21-.9,1.87-1.25.66-.35,1.35-.64,2.06-.87,1.42-.46,2.92-.72,4.44-.7,1.51.01,3.03.3,4.44.88.09.04.18.07.26.11l.26.12c.17.08.34.16.51.26.33.19.66.38.96.6.62.43,1.18.94,1.68,1.51-1.4-.52-2.71-.98-4.07-1.25-1.34-.29-2.7-.42-4.06-.44-1.36-.02-2.74.09-4.12.27-1.39.18-2.78.45-4.23.75Z" fill="#fff"/>
        <path d="M206.56,298.32c2.16.2,4.27.35,6.38.46,2.11.11,4.2.18,6.3.16.26,0,.52.01.79,0l.79-.02c.52-.01,1.05,0,1.57-.03.52-.02,1.05-.05,1.57-.06h.39s.39-.04.39-.04l.79-.05c.52-.04,1.06-.04,1.58-.09.53-.05,1.06-.08,1.59-.12,1.07-.06,2.12-.2,3.22-.23-.49.23-.99.43-1.5.63-.5.2-1.01.4-1.53.54-.52.15-1.04.3-1.57.45-.13.04-.26.07-.39.1l-.4.08-.8.16c-2.13.44-4.31.62-6.49.62-2.18.01-4.35-.2-6.49-.6-2.13-.42-4.24-1.01-6.19-1.99Z" fill="#fff"/>
        <path d="M271.53,255.43c.32-.21.66-.39,1-.56.34-.17.7-.32,1.05-.46.72-.27,1.46-.49,2.24-.63.39-.07.78-.12,1.18-.14.4-.03.81-.01,1.23.03.42.05.85.14,1.27.31.42.17.84.42,1.2.77.04.04.09.09.13.13l.11.13c.07.09.15.17.21.27.07.09.13.19.19.29.06.1.12.2.17.31.2.42.33.89.36,1.35.07.92-.17,1.77-.5,2.51-.34.74-.78,1.39-1.26,1.99-.24.3-.49.59-.76.86-.26.28-.53.55-.81.81.54-1.43,1.24-2.77,1.6-4.11.18-.66.26-1.31.16-1.88-.05-.28-.13-.55-.27-.79-.03-.06-.07-.12-.1-.18-.03-.06-.08-.12-.12-.18-.04-.06-.09-.11-.14-.17l-.07-.08-.07-.07c-.35-.36-.91-.59-1.55-.71-.64-.13-1.34-.16-2.05-.15-1.43.02-2.9.2-4.42.36Z" fill="#fff"/>
        <path d="M165.28,249.87c-1.35.49-2.62,1.03-3.71,1.74-1.09.71-1.94,1.62-2.32,2.71-.06.13-.08.28-.13.42-.05.14-.06.29-.09.43l-.04.22-.02.23c0,.15-.03.3-.02.46v.47c.02.16.04.32.05.48l.02.24.04.24.08.49c.25,1.31.72,2.61,1.14,4-.25-.26-.49-.53-.73-.8-.23-.28-.43-.58-.64-.87-.2-.3-.38-.62-.56-.94-.09-.16-.16-.33-.24-.5-.07-.17-.16-.34-.22-.51-.11-.36-.26-.7-.33-1.08-.04-.19-.09-.37-.12-.56l-.07-.58-.02-.15v-.15s0-.3,0-.3c0-.1,0-.2,0-.3l.03-.3c.03-.2.05-.4.11-.6.06-.2.09-.4.17-.59.14-.39.33-.76.55-1.1.23-.34.49-.66.78-.93.58-.56,1.25-.97,1.95-1.27.7-.3,1.42-.49,2.15-.59.73-.09,1.46-.12,2.18,0Z" fill="#fff"/>
      </g>
    </g>
    <g id="Moluth_FV" data-name="Moluth FV">
      <g id="Mouth_FV" data-name="Mouth FV">
        <path d="M278.29,279.71c-2.47-4.04-6.3-8.89-12.07-12.94-10.7-7.51-21.86-7.92-25.44-8-4.7-.11-4.43.61-11.63.87-10.98.39-13.84-1.2-21.23-1.31-2.95-.04-24.96-.07-36.79,14.54-2.14,2.65-3.45,5.16-4.22,6.83,3.28-.78,6.19-1.27,8.6-1.59,1.66-.22,3.93-.48,6.65-.63,2.08-.12,3.85-.14,5.2-.14,0,0,1.01,0,2.08.03,2.65.07,10.64.51,21.37,1.2,9.5.29,16.57.29,19.12.16,1.19-.06,2.18-.12,2.18-.12,1.78-.13,3.76-.32,8.29-.65,5.62-.41,10.45-.68,11.84-.75,4.08-.19,12.17-.12,26.04,2.49Z" fill="#fff"/>
        <path d="M243.59,258.18c-2.69-.16-5.51.13-5.51.13-1.71.18-2.3.37-4.09.6-2.5.33-4.38.37-6.31.4-4.44.07-7.94-.26-9.01-.36-11.31-1.04-16.97-1.56-22.68-.18-2.72.66-7.3,1.07-12.15,4.45,2.23,4.1,4.79,6.55,6.65,8,7.1,5.54,15.94,5.83,32.18,6.15,2.98.06,4.87.09,7.56-.07,8.66-.53,17.43-1.06,23.24-7.02,1.31-1.34,3.31-3.82,4.62-7.99-1.03-.58-8.68-3.78-14.5-4.12Z" fill="#fff"/>
        <path d="M207.92,249.03c2.51.84,5.02,1.53,7.54,2.07,2.52.54,5.06.9,7.6.99,1.27.06,2.54.04,3.8-.06.63-.03,1.26-.13,1.89-.19.62-.11,1.26-.18,1.88-.33,2.5-.48,4.92-1.37,7.33-2.49-1.95,1.8-4.35,3.17-6.94,3.98-.64.22-1.3.37-1.96.54-.67.13-1.33.26-2.01.34-.67.1-1.35.13-2.03.17-.68.01-1.36.03-2.03,0-2.71-.1-5.38-.63-7.92-1.47-1.27-.42-2.51-.92-3.71-1.51-.6-.3-1.19-.6-1.76-.95-.57-.34-1.14-.69-1.66-1.1Z" fill="#fff"/>
        <path d="M209.73,284.14c2.23.55,4.42,1.01,6.62,1.36,2.2.34,4.39.58,6.59.63,1.1.03,2.19.02,3.29-.05l.41-.02.41-.04c.27-.03.55-.04.82-.07.54-.07,1.09-.12,1.63-.21.55-.07,1.08-.19,1.63-.28l.81-.18.41-.09.4-.11c1.09-.25,2.15-.61,3.26-.95-.46.34-.91.71-1.41,1-.24.16-.49.3-.74.45-.25.14-.51.27-.77.4l-.39.2-.4.17c-.27.11-.54.23-.81.34-.55.19-1.1.4-1.66.55-1.12.33-2.28.54-3.44.69-.29.03-.58.07-.87.09l-.88.06c-.29.02-.58.01-.88.02-.29,0-.58,0-.88,0-2.34-.05-4.65-.45-6.87-1.09-1.11-.33-2.2-.72-3.25-1.19-.53-.24-1.05-.48-1.55-.76-.51-.28-1-.57-1.47-.9Z" fill="#fff"/>
      </g>
    </g>
    <g id="Mouth_L" data-name="Mouth L">
      <g id="Mouth_L-2" data-name="Mouth L">
        <path d="M268.19,277.07c-2.13-7.09-7.38-20.17-19.68-26.28-5.67-2.82-12.06-3.04-24.84-3.49-14.71-.52-22.06-.78-28.54,2.26-12.82,6-18.11,19.83-20.07,26.31,4.67,5.72,14.27,15.64,28.45,19.13,8.16,2.01,16.98,1.66,19.92,1.56,1.84-.06,8.13-.33,14.29-1.75,13.96-3.21,24.37-11.67,30.47-17.75Z" fill="#fff"/>
        <path d="M201,284.6c-1.08-13.26,9.86-23.51,20.41-22.73,10.07.74,19.15,11.48,17.2,23.98,0,0-21.79,9.84-37.61-1.25Z" fill="#fff"/>
        <path d="M189.73,252.02c1.44-1.21,5.07-3.96,14.23-5.89,4.32-.91,10.73-1.82,18.67-1.35,8.44-.12,14.91,1.11,19.1,2.21,2.84.74,5.33,1.51,8.01,3.18,3.27,2.05,5.41,4.52,6.67,6.24-.23.51-.64,1.28-1.33,2.05-1.84,2.07-4.31,2.62-5.65,2.9-8.15,1.69-15.5,1.85-15.5,1.85-6.16.13-9.25.2-11.5.21,0,0-17.14.06-28.12-1.95-1.06-.19-3.15-.62-5.44-1.95-1.63-.95-2.78-2.02-3.47-2.73.87-1.26,2.26-3.03,4.32-4.76Z" fill="#fff"/>
        <path d="M246.83,282.1c.45-.12,2.29-.64,4.44-.09.82.21,1.44.51,1.78.69,1.84.84,3.55,2.58,4.44,3.28-3.25,2.82-8.77,6.92-16.57,9.67-7.82,2.76-14.27,2.87-18.48,2.91-4.06.04-11.59.04-20.63-3.22-6.87-2.47-11.94-5.86-15.14-8.36.62-1.09,1.68-2.05,3.44-3.3,0,0,1.29-.91,2.86-1.46,4.75-1.67,18.7,1.95,28.86,2.13,7.36.13,21.72-1.39,25.01-2.25Z" fill="#fff"/>
        <path d="M210.4,306.49c2.03.19,4.01.33,5.99.43,1.98.1,3.95.17,5.91.15.25,0,.49.01.74,0l.74-.02c.49-.01.99,0,1.48-.03.49-.02.98-.05,1.48-.06h.37s.37-.04.37-.04l.74-.04c.49-.04.99-.03,1.49-.09.49-.04.99-.08,1.49-.11,1-.05,1.99-.19,3.02-.21-.46.21-.93.4-1.41.59-.47.19-.95.37-1.44.51-.49.14-.98.29-1.47.42-.12.03-.25.07-.37.1l-.37.08-.75.15c-2,.41-4.05.58-6.09.59-2.04.01-4.09-.19-6.09-.56-2-.39-3.98-.95-5.81-1.87Z" fill="#fff"/>
        <path d="M211.49,237.78c1.64-1.18,3.53-1.99,5.47-2.58,1.95-.58,3.99-.91,6.05-.9.51,0,1.03.03,1.54.05.51.06,1.03.1,1.54.19.51.08,1.01.2,1.52.32.5.14,1,.28,1.48.47,1.94.7,3.72,1.82,5.12,3.27-1.85-.82-3.66-1.49-5.53-1.88-.46-.11-.94-.18-1.4-.27-.47-.06-.94-.14-1.41-.18-.94-.1-1.89-.15-2.85-.14-1.9,0-3.82.18-5.73.47-1.92.29-3.84.69-5.79,1.17Z" fill="#fff"/>
      </g>
    </g>
    <g id="Mouth_BMP" data-name="Mouth BMP">
      <g id="Mouth_BMP-2" data-name="Mouth BMP">
        <path d="M167.77,270.72c2.33.26,4.67.44,7,.57,2.58.14,5.49.17,6.97.12,4.7-.1,8.27-.85,13.87-1.5,4.67-.55,9.39-.82,14.07-1.16,4.69-.34,9.38-.65,14.08-.9,2.35-.12,4.71-.2,7.07-.21,1.18,0,2.36.04,3.54.07,1.18.04,2.36.11,3.53.17,4.71.27,9.4.69,14.07,1.28,4.64.59,9.33,1.34,13.94,2.08,2.32.37,4.63.74,6.94,1.07,2.49.4,4.79.59,6.97.67l.02.2c-2.37.24-4.34.32-7.08.15-2.67-.14-5.1-.33-7.05-.52-4.67-.46-3.21-.3-14-1.51-4.65-.53-9.29-1.1-13.95-1.52-4.66-.41-9.31-.7-13.99-.82-4.68-.13-9.38-.02-14.04.44-2.33.24-4.65.56-6.96.95-2.31.39-4.61.82-6.92,1.22-8.02,1.39-11.24,1.45-14.11,1.4-2.03-.03-5.01-.29-7.08-.62-2.34-.35-4.66-.8-6.93-1.44l.04-.2Z" fill="#fff"/>
        <path d="M207.57,283.15c5.55,1.44,12.25,2.57,17.96,2.66,7.99.32,14.11-1.54,17.84-2.66-4.96,3.09-10.35,4.79-17.88,4.67-7.7-.16-14.64-2.68-17.92-4.67Z" fill="#fff"/>
        <path d="M214.06,254.06c3.74,2.28,8.03,3.56,12.92,3.67,4.5.02,9.42-1.07,12.81-3.67-1.48,2.52-6.14,5.73-12.82,5.68-4.81-.2-9.95-1.86-12.91-5.68Z" fill="#fff"/>
      </g>
    </g>
    <g id="Mouth_QW" data-name="Mouth QW">
      <g id="Mouth_QW-2" data-name="Mouth QW">
        <path d="M256.03,265.75c-1.85-3.51-5.43-9.21-11.77-14.25-3.81-3.03-11.31-8.99-22.41-9.12-11.98-.15-20.14,6.59-22.42,8.53-5.9,5.02-8.76,10.79-10.07,13.98-.03,2.23-.04,22.74,15.23,33.22,1.82,1.25,7.75,5.2,16.29,5.56,11.54.48,19.59-5.95,21.99-7.94,13.11-10.81,13.19-27.5,13.16-29.98Z" fill="#fff"/>
        <path d="M245.63,252.64c-.31-.46-.76-1.11-1.37-1.83-7.12-8.49-19.07-8.85-21.52-8.93-2.18-.07-13.85-.42-22.12,7.54-.91.87-1.59,1.67-2.06,2.25,8.55,4.09,26.55,10.04,47.07.97Z" fill="#fff"/>
        <path d="M220.26,282.82c-8.99-5.74-20.53-2.11-27.15.9,1.34,3.25,2.88,5.76,4.14,7.55.82,1.16,2.2,3.11,4.46,5.26.37.35,2.42,2.28,4.93,3.83,5.6,3.47,11.7,3.99,13.88,4.1,12.31.64,21.17-6.94,22.81-8.4,4.6-4.09,7.07-8.61,8.36-11.49-2.28-1.55-8-5-16.09-5.29-7.37-.26-12.89,2.24-15.34,3.53Z" fill="#fff"/>
        <path d="M207.84,236.8c2.55-1.01,5.24-1.62,7.96-2.02,2.72-.39,5.49-.52,8.25-.37.69.05,1.38.1,2.07.18.69.08,1.37.19,2.06.3,1.36.26,2.71.59,4.03,1.03,1.31.45,2.59,1,3.81,1.66.6.36,1.2.69,1.75,1.11.57.38,1.09.84,1.61,1.28-1.24-.6-2.47-1.14-3.73-1.59-1.27-.44-2.54-.81-3.83-1.11-1.3-.29-2.6-.52-3.91-.7-.66-.07-1.32-.17-1.98-.22-.66-.07-1.32-.11-1.99-.16-2.66-.15-5.33-.15-8.01-.02-2.68.12-5.37.34-8.09.62Z" fill="#fff"/>
        <path d="M203.99,304.66c1.29.89,2.61,1.69,3.98,2.4,1.36.72,2.76,1.34,4.17,1.88,2.84,1.07,5.81,1.71,8.79,1.79,5.45-.04,10.11-1.29,16.78-6.07-4.61,5.37-10.12,7.75-16.82,7.85-3.24-.09-6.42-.92-9.3-2.29-1.44-.68-2.8-1.51-4.09-2.43-1.27-.94-2.49-1.95-3.52-3.14Z" fill="#fff"/>
      </g>
    </g>
  </g>
</svg>