{
  "accessors": [
    {
      "bufferView": 2,
      "componentType": 5126,
      "count": 323,
      "max": [
        0.738913893699646,
        1.0120105743408203,
        0.738913893699646
      ],
      "min": [
        -0.738913893699646,
        0.9534271955490112,
        -0.738913893699646
      ],
      "type": "VEC3"
    },
    {
      "bufferView": 2,
      "byteOffset": 3876,
      "componentType": 5126,
      "count": 323,
      "max": [
        0.6641027927398682,
        1.0,
        0.6641027927398682
      ],
      "min": [
        -0.6641059517860413,
        0.5086619257926941,
        -0.6641027927398682
      ],
      "type": "VEC3"
    },
    {
      "bufferView": 1,
      "componentType": 5126,
      "count": 323,
      "max": [
        0.5832918882369995,
        0.45829179883003235
      ],
      "min": [
        0.41670823097229004,
        0.2917082607746124
      ],
      "type": "VEC2"
    },
    {
      "bufferView": 0,
      "componentType": 5125,
      "count": 1536,
      "type": "SCALAR"
    },
    {
      "bufferView": 2,
      "byteOffset": 7752,
      "componentType": 5126,
      "count": 22454,
      "max": [
        1.005277156829834,
        0.9753528237342834,
        2.1866486072540283
      ],
      "min": [
        -1.005277156829834,
        -0.9846144318580627,
        -0.9624187350273132
      ],
      "type": "VEC3"
    },
    {
      "bufferView": 2,
      "byteOffset": 277200,
      "componentType": 5126,
      "count": 22454,
      "max": [
        0.9999986886978149,
        0.9999744892120361,
        1.0
      ],
      "min": [
        -0.9999986886978149,
        -1.0,
        -1.0
      ],
      "type": "VEC3"
    },
    {
      "bufferView": 1,
      "byteOffset": 2584,
      "componentType": 5126,
      "count": 22454,
      "max": [
        0.8750002384185791,
        1.000000238418579
      ],
      "min": [
        0.1250000149011612,
        0.0
      ],
      "type": "VEC2"
    },
    {
      "bufferView": 0,
      "byteOffset": 6144,
      "componentType": 5125,
      "count": 127680,
      "type": "SCALAR"
    },
    {
      "bufferView": 2,
      "byteOffset": 546648,
      "componentType": 5126,
      "count": 954,
      "max": [
        0.9850461483001709,
        0.7420144081115723,
        -0.8401450514793396
      ],
      "min": [
        -0.9357317090034485,
        -0.7957601547241211,
        -1.1730047464370728
      ],
      "type": "VEC3"
    },
    {
      "bufferView": 2,
      "byteOffset": 558096,
      "componentType": 5126,
      "count": 954,
      "max": [
        0.999525785446167,
        0.9993116855621338,
        0.9998253583908081
      ],
      "min": [
        -0.9999932050704956,
        -0.9993106126785278,
        -0.9999327659606934
      ],
      "type": "VEC3"
    },
    {
      "bufferView": 1,
      "byteOffset": 182216,
      "componentType": 5126,
      "count": 954,
      "max": [
        0.8750001192092896,
        1.0000001192092896
      ],
      "min": [
        0.1250000149011612,
        0.0
      ],
      "type": "VEC2"
    },
    {
      "bufferView": 0,
      "byteOffset": 516864,
      "componentType": 5125,
      "count": 4032,
      "type": "SCALAR"
    },
    {
      "bufferView": 2,
      "byteOffset": 569544,
      "componentType": 5126,
      "count": 1023,
      "max": [
        1.2785831689834595,
        1.2999660725654394e-07,
        0.6481960415840149
      ],
      "min": [
        -1.2785831689834595,
        -1.299965788348345e-07,
        -0.6481960415840149
      ],
      "type": "VEC3"
    },
    {
      "bufferView": 2,
      "byteOffset": 581820,
      "componentType": 5126,
      "count": 1023,
      "max": [
        1.8352811945957642e-13,
        -1.0,
        -4.371076300913046e-08
      ],
      "min": [
        -1.5354247550041639e-13,
        -1.0,
        -4.371195672092654e-08
      ],
      "type": "VEC3"
    },
    {
      "bufferView": 1,
      "byteOffset": 189848,
      "componentType": 5126,
      "count": 1023,
      "max": [
        1.000000238418579,
        1.000000238418579
      ],
      "min": [
        0.0,
        0.0
      ],
      "type": "VEC2"
    },
    {
      "bufferView": 0,
      "byteOffset": 532992,
      "componentType": 5125,
      "count": 1536,
      "type": "SCALAR"
    }
  ],
  "asset": {
    "extras": {
      "author": "teammastergame1 (https://sketchfab.com/teammastergame1)",
      "license": "CC-BY-4.0 (http://creativecommons.org/licenses/by/4.0/)",
      "source": "https://sketchfab.com/3d-models/loco-4d886b38d22f4af993fbe1dec5133bd9",
      "title": "Loco"
    },
    "generator": "Sketchfab-15.55.0",
    "version": "2.0"
  },
  "bufferViews": [
    {
      "buffer": 0,
      "byteLength": 539136,
      "name": "floatBufferViews",
      "target": 34963
    },
    {
      "buffer": 0,
      "byteLength": 198032,
      "byteOffset": 539136,
      "byteStride": 8,
      "name": "floatBufferViews",
      "target": 34962
    },
    {
      "buffer": 0,
      "byteLength": 594096,
      "byteOffset": 737168,
      "byteStride": 12,
      "name": "floatBufferViews",
      "target": 34962
    }
  ],
  "buffers": [
    {
      "byteLength": 1331264,
      "uri": "scene.bin"
    }
  ],
  "extensionsUsed": [
    "KHR_materials_emissive_strength",
    "KHR_materials_clearcoat"
  ],
  "materials": [
    {
      "doubleSided": true,
      "name": "Material.001",
      "pbrMetallicRoughness": {
        "baseColorFactor": [
          0.0,
          0.0,
          0.0,
          1.0
        ],
        "metallicFactor": 0.0
      }
    },
    {
      "doubleSided": true,
      "name": "Material",
      "pbrMetallicRoughness": {
        "baseColorFactor": [
          0.8,
          0.8,
          0.8,
          1.0
        ],
        "metallicFactor": 0.0,
        "roughnessFactor": 0.8277422004125554
      }
    },
    {
      "doubleSided": true,
      "name": "Material.004",
      "pbrMetallicRoughness": {
        "baseColorFactor": [
          1.0,
          0.12737,
          0.951106,
          1.0
        ],
        "metallicFactor": 0.0,
        "roughnessFactor": 0.9167366822147438
      }
    },
    {
      "doubleSided": true,
      "emissiveFactor": [
        0.0006819195191915803,
        0.008533209657138448,
        0.398045601540723
      ],
      "extensions": {
        "KHR_materials_clearcoat": {
          "clearcoatFactor": 1.0,
          "clearcoatRoughnessFactor": 0.04
        },
        "KHR_materials_emissive_strength": {
          "emissiveStrength": 10.0
        }
      },
      "name": "Material.003",
      "pbrMetallicRoughness": {
        "baseColorFactor": [
          0.8,
          0.8,
          0.8,
          1.0
        ],
        "metallicFactor": 0.30933427606636515,
        "roughnessFactor": 0.8040408205773457
      }
    }
  ],
  "meshes": [
    {
      "name": "Screen_Material.001_0",
      "primitives": [
        {
          "attributes": {
            "NORMAL": 1,
            "POSITION": 0,
            "TEXCOORD_0": 2
          },
          "indices": 3,
          "material": 0,
          "mode": 4
        }
      ]
    },
    {
      "name": "Screen_Material_0",
      "primitives": [
        {
          "attributes": {
            "NORMAL": 5,
            "POSITION": 4,
            "TEXCOORD_0": 6
          },
          "indices": 7,
          "material": 1,
          "mode": 4
        }
      ]
    },
    {
      "name": "Screen_Material.004_0",
      "primitives": [
        {
          "attributes": {
            "NORMAL": 9,
            "POSITION": 8,
            "TEXCOORD_0": 10
          },
          "indices": 11,
          "material": 2,
          "mode": 4
        }
      ]
    },
    {
      "name": "Plane_Material.003_0",
      "primitives": [
        {
          "attributes": {
            "NORMAL": 13,
            "POSITION": 12,
            "TEXCOORD_0": 14
          },
          "indices": 15,
          "material": 3,
          "mode": 4
        }
      ]
    }
  ],
  "nodes": [
    {
      "children": [
        1
      ],
      "matrix": [
        1.0,
        0.0,
        0.0,
        0.0,
        0.0,
        2.220446049250313e-16,
        -1.0,
        0.0,
        0.0,
        1.0,
        2.220446049250313e-16,
        0.0,
        0.0,
        0.0,
        0.0,
        1.0
      ],
      "name": "Sketchfab_model"
    },
    {
      "children": [
        2
      ],
      "matrix": [
        0.009999999776482582,
        0.0,
        0.0,
        0.0,
        0.0,
        0.0,
        0.009999999776482582,
        0.0,
        0.0,
        -0.009999999776482582,
        0.0,
        0.0,
        0.0,
        0.0,
        0.0,
        1.0
      ],
      "name": "3d748467a36243ceac0692eae969d4f7.fbx"
    },
    {
      "children": [
        3,
        7
      ],
      "name": "RootNode"
    },
    {
      "children": [
        4,
        5,
        6
      ],
      "matrix": [
        232.794921875,
        0.0,
        0.0,
        0.0,
        0.0,
        -6.567842413028255e-05,
        232.79492187499073,
        0.0,
        0.0,
        -212.89143371581184,
        -6.006305362966406e-05,
        0.0,
        0.0,
        448.30413818359375,
        -2.0492327213287354,
        1.0
      ],
      "name": "Screen"
    },
    {
      "mesh": 0,
      "name": "Screen_Material.001_0"
    },
    {
      "mesh": 1,
      "name": "Screen_Material_0"
    },
    {
      "mesh": 2,
      "name": "Screen_Material.004_0"
    },
    {
      "children": [
        8
      ],
      "matrix": [
        100.0,
        0.0,
        0.0,
        0.0,
        0.0,
        -1.629206793918314e-05,
        -99.99999999999868,
        0.0,
        0.0,
        99.99999999999868,
        -1.629206793918314e-05,
        0.0,
        5.9604644775390625e-06,
        493.2122802734375,
        235.14633178710938,
        1.0
      ],
      "name": "Plane"
    },
    {
      "mesh": 3,
      "name": "Plane_Material.003_0"
    }
  ],
  "scene": 0,
  "scenes": [
    {
      "name": "Sketchfab_Scene",
      "nodes": [
        0
      ]
    }
  ]
}
